<svg width="18" height="22" viewBox="0 0 18 22" fill="none" xmlns="http://www.w3.org/2000/svg">
<path d="M7.3335 7.33325V13.9892H12.8761L15.0263 19.3333L17.3335 18.4477" stroke="black" stroke-width="2" stroke-miterlimit="10"/>
<path d="M11.3335 18.8779C10.7473 19.489 10.0432 19.9635 9.2679 20.2699C8.49259 20.5764 7.66369 20.7077 6.83603 20.6554C6.00837 20.603 5.20081 20.3681 4.46676 19.9662C3.73271 19.5642 3.0889 19.0045 2.57791 18.3239C2.06693 17.6433 1.70041 16.8574 1.50261 16.0181C1.3048 15.1789 1.28021 14.3055 1.43047 13.4556C1.58073 12.6057 1.90241 11.7988 2.37423 11.0881C2.84606 10.3775 3.45727 9.77933 4.16745 9.33325" stroke="black" stroke-width="2" stroke-miterlimit="10"/>
<path d="M7.3335 9.33325H12.6668" stroke="black" stroke-width="2" stroke-miterlimit="10"/>
<path d="M7.3335 5.33325C8.43806 5.33325 9.3335 4.43782 9.3335 3.33325C9.3335 2.22868 8.43806 1.33325 7.3335 1.33325C6.22893 1.33325 5.3335 2.22868 5.3335 3.33325C5.3335 4.43782 6.22893 5.33325 7.3335 5.33325Z" stroke="black" stroke-width="2" stroke-miterlimit="10"/>
</svg>
