<svg width="362" height="62" viewBox="0 0 362 62" fill="none" xmlns="http://www.w3.org/2000/svg">
<g clip-path="url(#clip0_1037_193)">
<path d="M205.698 11.8081H193.125V49.974H205.698V11.8081Z" fill="white"/>
<path d="M189.112 19.9941H171.344L160.945 30.3768H175.218C174.221 32.6114 172.566 34.4863 170.475 35.7494C168.384 37.0125 165.957 37.6031 163.521 37.4418C161.084 37.2806 158.756 36.3751 156.849 34.8473C154.941 33.3195 153.546 31.2426 152.851 28.896C152.156 26.5495 152.195 24.0458 152.962 21.7219C153.729 19.3979 155.187 17.3652 157.14 15.8972C159.094 14.4291 161.449 13.5962 163.889 13.5104C166.329 13.4246 168.737 14.0901 170.788 15.4173L180.417 5.79299C175.763 1.95747 169.902 -0.099494 163.878 -0.0124854C157.854 0.0745233 152.055 2.29988 147.512 6.26823C142.97 10.2366 139.977 15.691 139.066 21.6624C138.155 27.6339 139.385 33.7357 142.537 38.884C145.689 44.0322 150.56 47.8935 156.283 49.7818C162.006 51.6702 168.211 51.4633 173.797 49.198C179.382 46.9326 183.986 42.7555 186.79 37.4087C189.594 32.062 190.417 25.8917 189.112 19.9941" fill="white"/>
<path d="M205.698 0.880371H193.125V8.57806H205.698V0.880371Z" fill="white"/>
<path d="M234.026 50.2398H223.17L223.066 49.9782L208.185 11.7905H221.601L228.674 33.0093L235.808 11.7905H249.02L234.026 50.2398Z" fill="white"/>
<path d="M263.918 11.8081H251.328V49.974H263.918V11.8081Z" fill="white"/>
<path d="M263.918 0.880371H251.328V8.57806H263.918V0.880371Z" fill="white"/>
<path d="M302.957 49.9914H290.393V28.8075C290.393 24.8366 288.754 22.8097 285.516 22.8097C281.329 22.8097 280.464 26.0789 280.464 28.8075V49.9914H267.856V11.808H276.573L280.025 15.2515C281.251 13.9352 282.736 12.8894 284.388 12.181C286.039 11.4725 287.819 11.1169 289.615 11.1368C297.832 11.1368 302.936 16.6856 302.936 25.6255V49.9914H302.957Z" fill="white"/>
<path d="M16.8549 50.632C10.2903 50.632 4.83867 48.1432 0.699933 43.222L0 42.3895L8.52527 33.8506L9.01218 34.3867C11.7119 37.3594 13.9726 38.6322 16.5897 38.6322C19.9894 38.6322 21.5892 36.5792 21.5892 32.1637V0.880371H34.5793V32.617C34.5793 44.0633 28.119 50.632 16.8592 50.632" fill="white"/>
<path d="M337.159 11.808L333.964 15.0379C330.92 12.366 327.543 11.115 323.33 11.115C314.796 11.115 306.153 17.3045 306.153 29.13V29.2695C306.153 41.1081 314.796 47.2976 323.33 47.2976C327.377 47.2976 330.551 46.16 333.472 43.6362C332.929 48.1476 330.216 51.1465 324.778 51.1465C321.667 51.1824 318.587 50.5305 315.757 49.2373L307.531 57.4886L308.67 58.0814C313.733 60.6934 319.354 62.0309 325.047 61.9782C339.537 61.9782 346.28 54.5682 346.28 40.7856V11.808H337.159ZM334.346 29.2957C334.346 33.7025 330.938 36.8931 326.247 36.8931C321.556 36.8931 318.235 33.7766 318.235 29.2957V29.1518C318.235 24.7451 321.604 21.5587 326.247 21.5587C330.89 21.5587 334.346 24.7451 334.346 29.1518V29.2957Z" fill="white"/>
<path d="M52.1081 50.6322C43.8915 50.6322 38.792 45.0878 38.792 36.1391V11.8081H51.3603V32.9441C51.3603 36.9324 52.9993 38.9505 56.2164 38.9505C60.416 38.9505 61.2855 35.6771 61.2855 32.9441V11.8081H73.893V49.9914H65.1547L61.7028 46.5044C58.977 49.2722 55.8295 50.6148 52.1081 50.6148" fill="white"/>
<path d="M125.901 50.571C118.102 50.571 114.302 46.6481 114.302 38.5973V22.9666H110.055V11.8036H114.302V0.880371H126.879V11.8036H135.235V22.9666H126.879V36.954C126.879 38.6496 127.34 39.164 128.892 39.164C130.423 39.17 131.929 38.7797 133.265 38.0307L135.113 37.0281V47.9732L134.509 48.3262C131.907 49.8708 128.924 50.6488 125.901 50.571" fill="white"/>
<path d="M96.5473 26.4798L95.3778 26.0918C92.4477 25.0937 89.661 24.1565 89.661 22.9099V22.7748C89.661 21.5369 91.2043 21.0923 92.6433 21.0923C94.6605 21.0923 97.382 21.9379 100.303 23.4199L107.559 16.1493L106.981 15.7658C102.782 12.9747 97.8722 11.4498 92.8346 11.3721C84.305 11.3721 78.5795 16.3978 78.5795 23.8732V24.0127C78.5795 31.4576 84.418 34.1818 90.1175 35.8513C90.5913 36.0038 91.0609 36.1389 91.513 36.2871C94.5084 37.1589 97.0994 37.9391 97.0994 39.2947V39.4342C97.0994 40.9816 95.1866 41.3172 93.578 41.3172C90.5131 41.3172 86.9004 40.0096 83.4659 37.7343L76.5492 44.6866L76.4492 44.8261L77.0622 45.3012C81.6835 48.9857 87.4043 51.0086 93.3085 51.0461C102.608 51.0461 108.168 46.3081 108.168 38.3402V38.1963C108.168 30.3853 100.586 27.8572 96.5299 26.4885" fill="white"/>
<path d="M348.88 13.5386H350.68V17.8887H352.701V13.5386H354.484V11.8081H348.88V13.5386Z" fill="white"/>
<path d="M359.874 11.8081L358.561 13.9352L357.248 11.8081H355.148V17.8887H357.135V14.8593L358.048 16.2759H359.035L359.961 14.8593V17.8887H362V11.8081H359.874Z" fill="white"/>
</g>
<defs>
<clipPath id="clip0_1037_193">
<rect width="362" height="62" fill="white"/>
</clipPath>
</defs>
</svg>
