<svg width="229" height="229" viewBox="0 0 229 229" fill="none" xmlns="http://www.w3.org/2000/svg">
<path d="M33.5864 139.053L24.9732 141.342L5.93618 151.29L4.38424 145.469L8.69086 143.386C10.5661 142.494 13.6312 141.239 17.0195 140.023C13.476 140.657 10.1911 141.097 8.12182 141.317L3.34963 141.653L1.96582 136.478L23.4342 135.65L32.0474 133.348L33.5864 139.053Z" fill="white"/>
<path d="M7.44883 130.514C2.35333 130.928 0.762599 129.816 0.374617 125.146L0.154743 122.339C-0.233239 117.656 1.1635 116.297 6.259 115.87L23.2655 114.486C28.374 114.059 29.9647 115.172 30.3397 119.855L30.5725 122.662C30.9605 127.345 29.5638 128.703 24.4683 129.13L7.44883 130.514ZM7.44883 121.782C6.15555 121.886 5.75464 122.041 5.83223 123.076V123.503C5.90983 124.525 6.34952 124.616 7.62986 124.512L23.1491 123.218C24.4424 123.115 24.8433 122.947 24.7657 121.925V121.511C24.6752 120.489 24.2485 120.398 22.9681 120.489L7.44883 121.782Z" fill="white"/>
<path d="M23.253 105.834C24.5463 105.976 24.9602 105.834 25.0636 104.915V104.449C25.18 103.466 24.7662 103.298 23.4858 103.156L0.879401 100.711L1.48724 95.1094L24.7662 97.6967C29.8617 98.2529 31.2325 99.5983 30.7152 104.268L30.4437 106.726C29.9393 111.396 28.3227 112.47 23.2272 111.901L-0.0517578 109.314L0.594879 103.363L23.253 105.834Z" fill="white"/>
<path d="M5.21191 79.9486L8.36751 71.7858C10.0617 67.4004 11.8852 66.8311 16.6703 68.681L32.1896 74.6835C36.9618 76.5464 37.9317 78.1893 36.2375 82.5747L33.069 90.7375L5.21191 79.9486ZM30.5471 81.6563C30.8963 80.7378 30.5471 80.4661 29.3573 80.0004L15.1313 74.5153C13.9415 74.0496 13.5018 74.0238 13.1397 74.9293L12.5706 76.4041L29.9264 83.1309L30.5471 81.6563Z" fill="white"/>
<path d="M19.0889 63.3888C14.7435 60.6722 14.1356 58.8351 16.6187 54.8507L18.1189 52.4575C20.602 48.4861 22.529 48.2273 26.8744 50.9439L41.3461 59.9994C45.6915 62.716 46.2993 64.5531 43.8033 68.5375L42.3161 70.9307C39.82 74.9151 37.906 75.1738 33.5606 72.4571L19.0889 63.3888ZM24.262 56.3902C23.1756 55.7175 22.7488 55.5881 22.2056 56.4678L21.9858 56.83C21.4426 57.6968 21.7401 58.0331 22.8135 58.7058L36.0566 66.9851C37.143 67.6707 37.5827 67.7871 38.1258 66.9851L38.3457 66.6229C38.8889 65.7432 38.5914 65.4198 37.5051 64.7342L24.262 56.3902Z" fill="white"/>
<path d="M43.2602 49.9601C41.4496 48.8476 39.8071 47.7221 38.0871 46.4802C39.6778 47.9032 41.1392 49.158 42.6653 50.581L51.1233 58.4851L47.6315 62.2238L25.7881 41.836L30.6896 36.5838L39.3933 42.0818C41.1522 43.2073 42.7558 44.4233 44.463 45.6652C42.8722 44.2293 41.385 42.9614 39.8848 41.5643L32.4872 34.6563L36.0179 30.8789L57.8483 51.2666L53.3736 56.079L43.2602 49.9601Z" fill="white"/>
<path d="M40.6348 27.0364L45.3682 23.2461L49.9205 28.951L48.5108 35.6521H48.097L48.1875 30.3741L45.2 32.7802L40.6348 27.0364Z" fill="white"/>
<path d="M67.3276 44.2687L54.5242 23.5705L51.8471 25.2393L48.8984 20.4916L59.3481 14.0234L62.2838 18.7711L59.6067 20.4399L72.4101 41.0735L67.3276 44.2687Z" fill="white"/>
<path d="M83.4165 23.5711C82.356 21.7083 81.4636 19.9361 80.5713 18.0215C81.2826 20.0395 81.9551 21.8377 82.6017 23.8299L86.1711 34.8388L81.3084 36.417L72.0615 7.95691L78.89 5.73189L83.8432 14.7874C84.8391 16.6243 85.6668 18.4613 86.5591 20.3759C85.8478 18.3578 85.1624 16.4949 84.5287 14.5674L81.399 4.94271L86.3134 3.35156L95.5474 31.8116L89.3009 33.8426L83.4165 23.5711Z" fill="white"/>
<path d="M100.733 12.4976L104.794 11.9284L105.582 17.504L101.522 18.0862L102.53 25.0977L107.703 24.3603L108.492 29.9359L97.4348 31.5141L93.2188 1.92861L104.289 0.363281L105.091 5.93886L99.9179 6.67625L100.733 12.4976Z" fill="white"/>
<path d="M116.097 11.5778H120.196V17.2181H116.097L116.032 24.3072H121.205V29.9475L110.031 29.844L110.303 -0.0390625L121.49 0.0644507V5.69175H116.317L116.097 11.5778Z" fill="white"/>
<path d="M127.853 0.59375L136.467 2.15908C141.084 3.01288 141.989 4.74633 141.071 9.72684L138.083 26.1561C137.165 31.1883 135.717 32.4432 131.1 31.6023L122.486 30.037L127.853 0.59375ZM130.931 25.8068C131.901 25.9879 132.095 25.5869 132.328 24.3321L135.057 9.37761C135.29 8.08397 135.238 7.66998 134.281 7.48887L132.716 7.20423L129.379 25.5222L130.931 25.8068Z" fill="white"/>
<path d="M146.321 36.1168L156.241 13.9309L153.357 12.6372L155.646 7.52734L166.858 12.5467L164.582 17.7212L161.698 16.4276L151.792 38.5489L146.321 36.1168Z" fill="white"/>
<path d="M168.216 20.4901C171.062 16.2341 172.911 15.6649 176.817 18.2651L179.17 19.8304C183.05 22.4177 183.283 24.3581 180.464 28.6271L171.01 42.8571C168.178 47.1261 166.315 47.6825 162.41 45.0822L160.056 43.5299C156.176 40.9426 155.943 38.9892 158.763 34.7331L168.216 20.4901ZM175.071 25.9234C175.782 24.8497 175.911 24.4228 175.071 23.8665L174.709 23.6207C173.855 23.0515 173.519 23.3362 172.807 24.4099L164.155 37.4239C163.444 38.4847 163.328 38.9116 164.155 39.4808L164.518 39.7136C165.371 40.2828 165.707 39.9982 166.419 38.9375L175.071 25.9234Z" fill="white"/>
<path d="M180.955 62.1969L178.278 58.924L187.331 49.0536C188.521 47.7599 190.37 45.8324 191.896 44.2541C190.306 45.5478 188.417 47.2166 186.866 48.4844L176.636 56.8801L173.338 52.8569L196.397 33.918L201.674 40.3862L193.655 48.8465C192.569 50.0108 191.263 51.188 189.995 52.404C191.431 51.3821 192.84 50.3472 194.198 49.5063L204.053 43.2839L209.498 49.9203L186.4 68.8462L182.688 64.3185L192.918 55.9228C194.47 54.6291 196.475 53.0639 198.091 51.7444C196.19 52.9216 193.849 54.448 192.362 55.3277L180.955 62.1969Z" fill="white"/>
<path d="M194.069 75.909L192.556 72.8948L188.883 74.266L186.478 69.4536L214.839 59.3633L218.538 66.7241L193.487 83.425L190.81 78.0823L194.069 75.909ZM197.509 70.9802L198.544 73.05C203.924 69.7642 208.476 67.0475 212.602 64.6931C208.256 66.5947 203.355 68.6258 197.509 70.9802V70.9802Z" fill="white"/>
<path d="M206.509 86.7789C208.411 85.7958 210.221 84.9678 212.161 84.1916C210.118 84.8126 208.281 85.4206 206.277 85.9898L195.155 89.1722L193.758 84.2434L222.481 76.0547L224.447 82.9498L215.252 87.568C213.39 88.4994 211.514 89.2498 209.575 90.0777C211.618 89.4438 213.454 88.7841 215.446 88.2666L225.171 85.4853L226.594 90.4529L197.857 98.6028L196.06 92.2769L206.509 86.7789Z" fill="white"/>
<path d="M206.109 112.21C204.816 112.21 204.402 112.366 204.415 113.349V113.815C204.415 114.798 204.855 114.914 206.135 114.901L228.884 114.617L228.961 120.257L205.488 120.542C200.315 120.542 198.854 119.429 198.789 114.733V112.262C198.789 107.566 200.212 106.311 205.333 106.247L228.806 105.949L228.884 111.926L206.109 112.21Z" fill="white"/>
<path d="M228.392 127.436L226.879 135.975C226.064 140.593 224.383 141.511 219.339 140.619L213.041 139.506C207.997 138.614 206.691 137.178 207.506 132.546L207.972 129.959L197.923 128.187L198.97 122.301L228.392 127.436ZM213.261 132.352C213.093 133.323 213.494 133.517 214.748 133.737L219.663 134.603C220.956 134.836 221.37 134.784 221.538 133.814L221.797 132.339L213.52 130.878L213.261 132.352Z" fill="white"/>
<path d="M203.859 135.834L202.229 141.681L195.194 139.74L192.4 133.492L192.775 133.285L195.789 137.606L196.81 133.906L203.859 135.834Z" fill="white"/>
<path d="M196.759 154.912C195.621 154.33 195.194 154.252 194.715 155.158L194.521 155.533C194.069 156.413 194.366 156.826 195.504 157.344L215.718 167.784L213.002 173.062L192.142 162.286C187.589 159.931 186.813 158.185 188.973 154.006L190.098 151.807C192.258 147.642 194.159 147.228 198.699 149.582L204.35 152.493L201.764 157.499L196.759 154.912Z" fill="white"/>
<path d="M187.577 169.817C186.568 169.041 186.154 168.873 185.546 169.649L185.262 170.024C184.654 170.8 184.913 171.162 185.921 171.952L203.898 185.897L200.445 190.347L181.899 175.962C177.851 172.818 177.399 170.955 180.283 167.243L181.796 165.289C184.68 161.577 186.62 161.512 190.668 164.655L209.213 179.054L205.553 183.775L187.577 169.817Z" fill="white"/>
<path d="M175.303 184.527C176.894 186.312 178.071 186.286 181.705 186.144C185.675 186.04 187.861 186.312 190.758 189.598L191.547 190.49C194.961 194.371 195.026 196.26 191.547 199.378L189.788 200.943C186.283 204.061 184.395 203.737 180.994 199.921L178.575 197.204L182.753 193.491L184.692 195.652C185.533 196.609 185.986 196.816 186.684 196.169L186.943 195.936C187.706 195.251 187.512 194.85 186.749 193.996L186.387 193.582C184.822 191.823 183.58 191.836 179.92 191.965C175.924 192.094 173.738 191.81 170.867 188.537L169.639 187.166C166.237 183.285 166.173 181.396 169.639 178.304L171.423 176.713C174.889 173.621 176.816 173.906 180.218 177.735L183.192 181.086L179.015 184.798L176.519 181.991C175.665 181.034 175.29 180.801 174.553 181.461L174.269 181.719C173.544 182.366 173.726 182.767 174.579 183.725L175.303 184.527Z" fill="white"/>
<path d="M162.28 184.305L175.212 204.835L177.876 203.14L180.877 207.862L170.531 214.446L167.53 209.712L170.207 208.03L157.21 187.5L162.28 184.305Z" fill="white"/>
<path d="M143.566 202.545C144.329 204.809 145.428 205.236 148.83 206.517C152.529 207.966 154.443 209.104 155.852 213.231L156.24 214.369C157.896 219.208 157.197 221.032 152.761 222.545L150.537 223.295C146.088 224.809 144.484 223.774 142.777 218.936L141.613 215.495L146.903 213.697L147.834 216.439C148.248 217.655 148.545 218.005 149.476 217.733L149.8 217.629C150.77 217.293 150.757 216.853 150.382 215.766L150.201 215.236C149.451 213.011 148.3 212.545 144.924 211.265C141.199 209.829 139.285 208.677 137.863 204.564L137.281 202.817C135.625 197.979 136.311 196.155 140.721 194.654L142.984 193.891C147.381 192.39 149.037 193.399 150.744 198.251L152.179 202.494L146.89 204.305L145.687 200.747C145.273 199.531 145.015 199.169 144.083 199.454L143.721 199.583C142.79 199.894 142.803 200.346 143.217 201.562L143.566 202.545Z" fill="white"/>
<path d="M138.277 226.671L129.702 227.964C125.059 228.663 123.663 227.369 122.9 222.298L121.955 215.972C121.192 210.901 122.149 209.206 126.792 208.508L129.443 208.107L127.93 198.029L133.841 197.137L138.277 226.671ZM128.81 213.889C127.84 214.032 127.775 214.484 127.956 215.739L128.706 220.681C128.887 221.975 129.081 222.35 130 222.207L131.474 221.988L130.181 213.669L128.81 213.889Z" fill="white"/>
<path d="M111.764 217.359L107.678 217.268L107.794 211.641L111.881 211.718L112.036 204.642L106.863 204.526L106.979 198.898L118.166 199.131L117.545 229.001L106.358 228.769L106.475 223.141L111.648 223.245L111.764 217.359Z" fill="white"/>
<path d="M96.7629 201.121L100.074 201.755L101.225 198.016L106.501 199.012L97.2802 227.679L89.1973 226.153L91.163 196.102L97.0345 197.214L96.7629 201.121ZM98.5864 206.852L96.3232 206.425C95.6507 212.686 95.0299 217.964 94.4092 222.66C95.5472 218.055 96.9181 212.932 98.5864 206.852Z" fill="white"/>
<path d="M79.3681 223.618L73.82 221.418L78.5533 209.426C77.9455 210.293 77.6351 210.72 77.1695 211.315L70.1212 219.957L64.6895 217.809L74.2468 206.529L75.54 189.957L81.3727 192.273L80.3122 203.191C80.2272 204.15 80.0933 205.104 79.9113 206.05L84.8257 193.631L90.3739 195.83L79.3681 223.618Z" fill="white"/>
<path d="M60.6162 188.639C61.3792 187.617 61.5344 187.19 60.7455 186.608L60.3705 186.323C59.5816 185.741 59.2324 186.012 58.4564 187.034L44.877 205.288L40.3506 201.924L54.3826 183.089C57.4347 178.975 59.2841 178.496 63.0605 181.304L65.0392 182.778C68.8026 185.586 68.919 187.526 65.841 191.627L51.822 210.462L47.0239 206.892L60.6162 188.639Z" fill="white"/>
<path d="M35.0086 197.072L29.1501 190.695C25.9687 187.241 26.2661 185.339 30.0295 181.872L34.737 177.538C38.5005 174.071 40.4404 173.916 43.6218 177.37L45.4453 179.349L52.9463 172.441L56.9943 176.84L35.0086 197.072ZM40.2852 182.066C39.6256 181.342 39.2247 181.536 38.2806 182.402L34.6077 185.779C33.6636 186.646 33.4438 187.072 34.1033 187.758L35.1121 188.858L41.2939 183.166L40.2852 182.066Z" fill="white"/>
<path d="M26.1114 165.869C25.8348 165.44 25.6534 164.957 25.5795 164.451C25.5057 163.946 25.5411 163.431 25.6833 162.94C25.8255 162.45 26.0712 161.996 26.4038 161.608C26.7365 161.221 27.1483 160.909 27.6116 160.695C28.029 160.415 28.5003 160.226 28.9952 160.139C29.4902 160.053 29.9977 160.071 30.4851 160.193C30.9725 160.315 31.429 160.538 31.8251 160.847C32.2212 161.156 32.5481 161.545 32.7847 161.988C33.0427 162.414 33.2087 162.889 33.2718 163.382C33.335 163.876 33.294 164.377 33.1514 164.854C33.0088 165.33 32.7678 165.772 32.444 166.15C32.1202 166.527 31.7208 166.833 31.2716 167.046C30.8644 167.337 30.4006 167.537 29.9104 167.635C29.4202 167.733 28.9149 167.727 28.4276 167.615C27.9402 167.504 27.4819 167.291 27.0827 166.99C26.6835 166.689 26.3525 166.307 26.1114 165.869V165.869Z" fill="white"/>
</svg>
