<svg width="62" height="95" viewBox="0 0 62 95" fill="none" xmlns="http://www.w3.org/2000/svg">
<path d="M59.6981 22.8909C58.6154 21.6708 56.3317 21.1393 55.0484 22.0224C54.9328 22.0856 54.8135 22.1416 54.6911 22.1903C54.343 22.3648 54.1889 22.1996 54.1597 21.8693C54.1185 21.451 54.0933 21.0314 54.0707 20.6119C53.9936 19.1906 54.1677 17.788 54.3018 16.3761C54.4905 14.3901 54.7455 12.4334 55.3526 10.5273C55.5714 9.87814 55.7258 9.20891 55.8136 8.52935C55.849 8.31025 55.8202 8.08556 55.7309 7.8825C55.6415 7.67943 55.4954 7.50669 55.3101 7.38517C54.2274 6.58597 53.0199 6.44212 51.7233 6.6206C50.7243 6.7538 49.9219 7.18004 49.3799 8.0525C49.1235 8.46541 48.8219 8.85169 48.6279 9.30057C47.7272 11.3545 47.0776 13.479 46.8119 15.7155C46.7774 16.0125 46.8385 16.4627 46.4811 16.488C46.1238 16.5133 46.0042 16.0884 45.9099 15.7661C45.7478 15.216 45.5911 14.6645 45.4303 14.1144C44.8671 12.1857 44.2746 10.2649 43.7485 8.32689C43.35 6.83506 43.0245 5.31925 42.6631 3.8141C42.4678 2.99892 42.0946 2.7152 41.2643 2.69922C40.4015 2.70194 39.5448 2.84361 38.7269 3.1188C36.3543 3.85139 35.3871 5.5004 35.2543 7.47175C35.1214 9.4431 35.52 11.3971 36.0022 13.3085C36.333 14.6219 36.6518 15.9219 36.5987 17.2925C36.5729 18.3339 36.6566 19.375 36.8484 20.3987C37.0172 21.3791 37.247 22.3448 37.425 23.3211C37.6835 24.8889 38.0515 26.4364 38.5263 27.9525C38.7485 28.5583 38.7625 29.2212 38.5661 29.8359C38.3589 30.4539 38.3802 31.1 38.4041 31.7433C38.4253 32.2908 38.2712 32.4093 37.7398 32.2761C37.3347 32.1696 36.9786 31.9405 36.5615 31.8512C34.7627 31.4663 32.9281 31.405 31.1148 31.2385C28.5615 31.0041 25.9962 30.9588 23.4323 30.9428C22.4384 30.934 21.4503 31.0939 20.5096 31.4156C18.3841 32.1403 16.3011 32.9994 14.1928 33.7826C12.8165 34.2941 11.5079 35.0427 9.97224 35.0094C9.75012 35.0121 9.52834 35.0277 9.30801 35.056C7.47738 35.2238 6.16884 36.0936 5.47007 37.8532C5.04496 38.9188 4.97455 40.0496 4.84834 41.1645C4.74904 42.0874 4.51401 42.9906 4.1509 43.8445C3.68195 44.9447 3.1054 45.989 2.56338 47.0519C1.92705 48.2987 1.87657 49.604 2.17946 50.928C2.67631 53.1031 3.70454 55.0678 4.69292 57.0419C5.4249 58.507 6.20338 59.9403 6.96858 61.3828C7.94899 63.2343 8.42192 65.2696 9.09413 67.2343C9.35982 68.0055 9.7185 68.7434 9.89121 69.5466C10.481 72.2625 10.954 75.0078 11.9928 77.6118C12.7169 79.4247 13.4741 81.1909 14.7109 82.7267C15.3508 83.4873 16.0457 84.1996 16.7899 84.8579C17.9988 85.9727 18.6352 87.3607 18.9381 88.9471C19.1493 90.0513 19.3366 91.1635 19.6222 92.2504C19.7338 92.666 19.9238 92.7566 20.4193 92.6687C20.4753 92.66 20.5296 92.6425 20.58 92.6167C21.3107 92.3503 22.3283 92.289 23.051 92.289C24.3795 92.289 26.2393 92.1812 27.5678 92.1812C29.3652 92.1812 30.6711 92.1239 32.4632 92.1239C33.0915 92.1239 33.5259 92.0746 34.1583 92.0733C34.5635 92.0733 36.0182 92.0493 36.4167 92.0559C37.2469 92.0516 38.0767 92.0934 38.9022 92.1812C39.8587 92.2797 40.6505 92.2984 41.692 92.4476C42.2128 92.5221 42.974 92.4862 43.5001 92.4862C44.4526 92.4862 45.4529 92.6474 46.3988 92.6474C46.4811 92.6474 46.5808 92.6473 46.6844 92.6593C46.8037 92.6752 46.9242 92.6806 47.0444 92.6753C47.3872 92.6753 47.6994 92.7273 47.6834 92.1878C47.6542 91.1915 47.7179 90.1898 47.6994 89.1948C47.611 85.4566 48.072 81.7256 49.0677 78.122C50.046 74.6316 51.352 71.2421 52.968 67.9988C54.6021 64.7181 56.268 61.4494 57.1567 57.8584C57.4383 56.7142 57.5978 55.5727 57.4397 54.3805C57.2165 52.7009 56.5855 51.1478 56.07 49.5574C55.6197 48.1695 54.9435 46.8681 54.525 45.4655C54.3324 44.8742 54.3362 44.2363 54.5356 43.6473C55.1117 41.8831 55.5942 40.0895 55.981 38.2741C56.4021 36.38 56.7661 34.4699 57.5008 32.6544C57.7922 31.885 57.9945 31.0845 58.1039 30.2688C58.352 28.5841 58.8021 26.9356 59.4443 25.3591C59.6303 24.9142 59.7273 24.4267 59.9119 23.9845C60.0966 23.5422 59.9757 23.2159 59.6901 22.8949" fill="black"/>
<path d="M59.6981 22.8909C58.6154 21.6708 56.3317 21.1393 55.0484 22.0224C54.9328 22.0856 54.8135 22.1416 54.6911 22.1903C54.343 22.3648 54.1889 22.1996 54.1597 21.8693C54.1185 21.451 54.0933 21.0314 54.0707 20.6119C53.9936 19.1906 54.1677 17.788 54.3018 16.3761C54.4905 14.3901 54.7455 12.4334 55.3526 10.5273C55.5714 9.87814 55.7258 9.20891 55.8136 8.52935C55.849 8.31025 55.8202 8.08556 55.7309 7.8825C55.6415 7.67943 55.4954 7.50669 55.3101 7.38517C54.2274 6.58597 53.0199 6.44212 51.7233 6.62061C50.7243 6.7538 49.9219 7.18004 49.3799 8.0525C49.1235 8.46541 48.8219 8.85169 48.6279 9.30057C47.7272 11.3545 47.0776 13.479 46.8119 15.7155C46.7774 16.0125 46.8385 16.4627 46.4811 16.488C46.1238 16.5133 46.0042 16.0884 45.9099 15.7661C45.7478 15.216 45.5911 14.6645 45.4303 14.1144C44.8671 12.1857 44.2746 10.2649 43.7485 8.32689C43.35 6.83506 43.0245 5.31925 42.6631 3.8141C42.4679 2.99892 42.0946 2.7152 41.2643 2.69922C40.4015 2.70194 39.5448 2.84361 38.7269 3.1188C36.3543 3.85139 35.3871 5.5004 35.2543 7.47175C35.1214 9.4431 35.52 11.3971 36.0022 13.3085C36.333 14.6219 36.6518 15.9219 36.5987 17.2925C36.5729 18.3339 36.6566 19.375 36.8484 20.3987C37.0172 21.3791 37.247 22.3448 37.425 23.3211C37.6835 24.8889 38.0515 26.4364 38.5263 27.9525C38.7485 28.5583 38.7625 29.2212 38.5661 29.8359C38.3589 30.4539 38.3802 31.1 38.4041 31.7433C38.4253 32.2908 38.2712 32.4093 37.7398 32.2761C37.3347 32.1696 36.9786 31.9405 36.5615 31.8512C34.7627 31.4663 32.9281 31.405 31.1148 31.2385C28.5615 31.0041 25.9962 30.9588 23.4323 30.9428C22.4384 30.934 21.4503 31.0939 20.5096 31.4156C18.3841 32.1403 16.3011 32.9994 14.1928 33.7826C12.8165 34.2941 11.5079 35.0427 9.97224 35.0094C9.75012 35.0121 9.52834 35.0277 9.30801 35.056C7.47738 35.2238 6.16884 36.0936 5.47007 37.8532C5.04496 38.9188 4.97455 40.0496 4.84834 41.1645C4.74904 42.0874 4.51401 42.9906 4.1509 43.8445C3.68195 44.9447 3.1054 45.989 2.56338 47.0519C1.92705 48.2987 1.87657 49.604 2.17946 50.928C2.67631 53.1031 3.70454 55.0678 4.69292 57.0419C5.4249 58.507 6.20338 59.9403 6.96858 61.3828C7.94899 63.2343 8.42192 65.2696 9.09413 67.2343C9.35982 68.0055 9.7185 68.7434 9.89121 69.5466C10.481 72.2625 10.954 75.0078 11.9928 77.6118C12.7169 79.4247 13.4741 81.1909 14.7109 82.7267C15.3508 83.4873 16.0457 84.1996 16.7899 84.8579C17.9988 85.9727 18.6352 87.3607 18.9381 88.9471C19.1493 90.0513 19.3366 91.1635 19.6222 92.2504C19.7338 92.666 19.9238 92.7566 20.4193 92.6687C20.4753 92.66 20.5296 92.6425 20.58 92.6167C21.3107 92.3503 22.3283 92.289 23.051 92.289C24.3795 92.289 26.2393 92.1812 27.5678 92.1812C29.3652 92.1812 30.6711 92.1239 32.4632 92.1239C33.0915 92.1239 33.5259 92.0746 34.1583 92.0733C34.5635 92.0733 36.0181 92.0493 36.4167 92.0559C37.2469 92.0516 38.0767 92.0934 38.9022 92.1812C39.8587 92.2797 40.6505 92.2984 41.692 92.4476C42.2128 92.5221 42.974 92.4862 43.5001 92.4862C44.4526 92.4862 45.4529 92.6474 46.3988 92.6474C46.4811 92.6474 46.5808 92.6473 46.6844 92.6593C46.8037 92.6752 46.9242 92.6806 47.0444 92.6753C47.3872 92.6753 47.6994 92.7273 47.6834 92.1878C47.6542 91.1915 47.718 90.1898 47.6994 89.1948C47.611 85.4565 48.072 81.7256 49.0677 78.122C50.046 74.6316 51.352 71.2421 52.968 67.9988C54.6021 64.7181 56.268 61.4494 57.1567 57.8584C57.4383 56.7142 57.5978 55.5727 57.4397 54.3805C57.2165 52.7009 56.5855 51.1478 56.07 49.5574C55.6197 48.1695 54.9435 46.8681 54.525 45.4655C54.3324 44.8742 54.3362 44.2363 54.5356 43.6473C55.1117 41.8831 55.5942 40.0895 55.981 38.2741C56.4021 36.38 56.7661 34.4699 57.5008 32.6544C57.7922 31.8849 57.9945 31.0845 58.1039 30.2688C58.352 28.5841 58.8021 26.9356 59.4443 25.3591C59.6303 24.9142 59.7273 24.4267 59.9119 23.9845C60.0966 23.5422 59.9757 23.2159 59.6901 22.8949" stroke="white" stroke-width="4" stroke-miterlimit="10"/>
<path d="M20.0023 91.5477L19.3311 89.5038L18.6533 86.6404L16.6399 84.1577L13.8427 80.5642L11.9984 76.3829L10.1528 70.2487L9.17165 66.5682L6.46969 59.6763L5.06436 57.0118L2.77314 52.6883L2 50.1463L2.17852 48.2184L3.39862 46.027L5.12744 41.797L5.24556 38.9506L7.14082 36.2466L8.66025 35.7669L10.8078 35.6351L12.891 34.9763L17.5325 33.0286L21.2224 31.7728L23.5136 31.5092L34.3751 32.0943L37.6193 32.8138L38.5414 33.2922L39.1965 30.2995L38.9575 28.033L37.0784 18.4805L36.7509 14.9002L35.865 9.30892L35.9831 6.56271L37.7133 4.60452L40.9548 3.69922L42.4192 4.04184L44.7319 13.0474L46.309 17.7808L46.9802 17.4566L47.5922 15.7554L49.1318 10.4567L50.6794 8.11108L52.3747 7.47065H53.5518L54.8739 7.90551L55.6793 8.68958L55.7974 9.39853L54.7746 13.0211L54.0659 19.0683L54.2753 23.0413L56.3934 22.3982L58.2725 22.5445L59.4631 23.2521L60 23.8346L58.9517 26.8351L57.9101 31.6265L56.5424 35.9751L55.9169 39.1008L54.7585 42.9118L54.278 44.8634L55.1155 47.6241L56.8202 52.6052L57.4068 54.8243L57.2283 57.22L55.2055 63.005L53.0028 67.5618L50.9505 72.2069L48.6284 77.9036L48.0915 80.8027L47.4969 84.3606L47.4083 88.8001L47.2889 91.6992C47.2889 91.6992 43.1521 91.553 42.9735 91.553C42.795 91.553 32.2906 90.9402 32.2906 90.9402C32.2906 90.9402 28.3336 91.408 27.9175 91.3487C27.5014 91.2894 21.9056 91.437 21.9056 91.437L20.0023 91.5477Z" fill="white"/>
<path d="M59.3088 23.8566C59.0923 24.5226 58.9369 25.2192 58.6446 25.8666C58.6114 25.9425 58.6047 26.0624 58.4931 26.049C58.3815 26.0357 58.4041 25.9238 58.4068 25.8413C58.4094 25.7587 58.4201 25.7081 58.428 25.6428C58.4679 24.9768 58.6672 24.3401 58.8465 23.7007C58.8917 23.5409 58.9701 23.4037 59.1733 23.473C59.3766 23.5422 59.3593 23.7034 59.3062 23.8566H59.3088ZM58.1398 23.5609C57.9471 24.103 57.9166 24.6758 57.7598 25.2259C57.5659 25.9092 57.4941 26.6165 57.8927 27.2771C58.0255 27.5049 57.9936 27.7567 57.9312 27.9844C57.5127 29.5375 57.2895 31.1532 56.6492 32.6331C55.9584 34.2315 55.9983 35.9471 55.5865 37.5841C55.4231 38.2501 55.3327 38.9268 55.0551 39.5581C54.889 39.9444 54.6937 40.3227 54.2899 40.5065C54.0507 40.6171 54.0361 40.7516 54.2048 40.8968C54.436 41.0966 54.3377 41.2817 54.2381 41.4828C54.068 41.8372 53.8807 42.1835 53.7346 42.5484C53.6017 42.8721 53.5021 42.7309 53.4157 42.5484C53.2324 42.1488 53.2962 41.7239 53.2829 41.4003C53.2829 39.5661 53.6814 37.8878 54.1331 36.2281C54.2819 35.6873 54.5888 35.1839 54.7548 34.6297C55.0843 33.5375 55.2078 32.4346 54.9754 31.2998C54.8931 30.8016 54.8588 30.2967 54.8731 29.7919C54.8611 27.9951 54.618 26.2155 54.5728 24.4214C54.5503 23.5382 54.9554 23.072 55.6795 22.7377C56.5164 22.3528 57.3028 22.442 58.0534 22.9508C58.2952 23.116 58.1969 23.3757 58.1305 23.5609H58.1398ZM53.8249 11.854C53.7992 11.7377 53.7876 11.6188 53.7904 11.4997C53.7797 10.9416 53.9086 10.5154 54.0189 10.0878C54.1623 9.53234 54.2925 8.97157 54.4692 8.42679C54.5835 8.07514 54.8173 8.06182 55.0498 8.3442C55.1189 8.43227 55.1656 8.53593 55.1857 8.64619C55.2059 8.75645 55.1989 8.86997 55.1653 8.9769C54.9089 9.95858 54.7269 10.9602 54.3948 11.9206C54.335 12.0924 54.3125 12.3748 54.0733 12.3482C53.8342 12.3215 53.878 12.0338 53.8249 11.854ZM53.8037 8.35619C53.3453 9.58296 53.1633 10.867 53.0584 12.1657C53.0322 12.5013 53.1338 12.8345 53.3427 13.0981C53.7704 13.6415 53.7532 14.2503 53.6363 14.8643C53.4118 16.0351 53.3267 17.2219 53.1939 18.4021C53.1407 18.8763 52.9149 19.0015 52.4938 18.9708C52.3503 18.9602 52.1364 18.9016 52.0859 19.0881C52.0355 19.2745 52.2547 19.3545 52.3756 19.3997C53.0757 19.6781 53.1726 20.2216 53.1859 20.8996C53.2231 22.2689 53.3852 23.6341 53.4317 25.0034C53.4689 26.109 53.6163 27.2105 53.5791 28.3188C53.5717 28.5406 53.5968 28.7623 53.6535 28.9768C53.809 29.5509 53.8289 30.1183 53.3732 30.5871C53.1793 30.7856 53.2125 30.9161 53.4662 30.9867C53.9192 31.108 53.9976 31.4116 53.9976 31.8419C54.0218 32.7488 53.9285 33.655 53.72 34.5378C53.6243 34.9001 53.5207 35.2851 53.0398 35.3224C52.802 35.341 52.794 35.4796 52.8857 35.6407C53.3267 36.4093 53.0305 37.1832 52.9003 37.9531C52.8509 38.1527 52.7861 38.3483 52.7063 38.5378C52.3237 38.2248 52.3357 37.7679 52.2693 37.3856C52.0262 35.9737 51.8707 34.5472 51.6356 33.1326C51.5028 32.352 51.3194 31.5808 51.1348 30.8096C50.9275 29.9491 50.9727 29.0447 50.7136 28.2015C50.1823 26.4566 49.6894 24.6957 48.9255 23.0281C48.4562 22.0306 48.0567 21.0016 47.7299 19.9485C47.6475 19.6741 47.4443 19.2932 48.0355 19.3265C48.1803 19.3345 48.1524 19.2452 48.0952 19.164C48.0495 19.0878 47.9951 19.0172 47.9332 18.9535C47.2689 18.3714 47.3207 17.6588 47.5134 16.8889C47.9345 15.2053 48.2626 13.495 48.7462 11.8274C49.158 10.4128 49.696 9.03018 50.7934 7.96458C51.5187 7.26129 52.3742 7.0202 53.348 7.32656C53.9378 7.51304 54.0255 7.77544 53.8063 8.35885L53.8037 8.35619ZM48.0076 22.9415C48.2958 24.0071 48.7302 25.0407 48.4167 26.1769C48.3397 26.4566 48.4752 26.4313 48.701 26.418C49.2563 26.3834 49.5672 26.6151 49.7412 27.1426C49.9404 27.7604 49.9155 28.4289 49.6708 29.03C49.5379 29.3684 49.3134 29.6454 49.878 29.8066C50.1105 29.8732 50.1876 30.1769 50.2301 30.4167C50.3895 31.3078 50.5821 32.1975 50.6658 33.098C50.8943 35.5475 51.4629 37.9357 51.9239 40.3413C52.3636 42.6257 53.2298 44.7849 54.1238 46.9267C54.881 48.7409 55.6316 50.5564 56.1404 52.4625C56.6107 54.226 56.6824 55.9696 56.179 57.7545C55.8229 59.0145 55.338 60.2173 54.8505 61.4254C53.8794 63.847 52.6997 66.174 51.6622 68.5636C50.974 70.142 50.3244 71.7377 49.6203 73.3082C48.7143 75.3301 47.9079 77.3867 47.4775 79.5685C47.1468 81.306 46.9056 83.0595 46.7548 84.8219C46.5462 87.0183 46.4705 89.2241 46.4134 91.4272C45.8063 91.4272 45.5539 91.354 44.9162 91.358C44.5266 91.3656 44.1368 91.3531 43.7485 91.3207C43.0843 91.2634 42.3695 91.3114 41.7757 91.2061C41.154 91.0982 40.523 91.0729 39.8893 91.0183C38.7402 90.9277 37.5313 90.8984 36.3795 90.8984C33.316 90.8984 30.246 90.8465 27.1865 90.9584C25.7943 91.009 24.41 91.0823 23.0191 91.1449C22.3894 91.1728 21.7398 91.1662 21.1141 91.2181C20.9812 91.2288 20.6823 91.2314 20.4246 91.2488C20.2506 90.4496 20.038 89.6677 19.9955 88.8512C19.9822 88.5968 19.8919 88.2544 20.1788 88.1332C20.6319 87.9427 20.4618 87.7629 20.2479 87.5298C19.1998 86.391 18.1848 85.2188 17.0995 84.1159C15.4863 82.5022 14.1961 80.5938 13.2987 78.4936C12.5016 76.6008 11.941 74.6202 11.306 72.6661C11.1778 72.2213 11.0775 71.7689 11.0058 71.3115C10.9779 71.1663 10.9473 70.9692 11.0895 70.8813C11.2569 70.7774 11.4322 70.8693 11.5651 71.0051C11.8122 71.2582 12.0632 71.5086 12.3024 71.771C13.053 72.5657 13.9064 73.256 14.8397 73.8236C14.7233 73.6553 14.5897 73.4995 14.4412 73.3588C13.2961 72.4796 12.5136 71.3075 11.7444 70.1114C10.5129 68.1986 9.70256 66.0941 8.86961 63.9975C7.62218 60.854 6.36678 57.7158 4.75137 54.7335C4.02735 53.3922 3.32327 52.0362 2.95661 50.5337C2.50493 48.6929 3.0589 47.1625 4.59062 46.0622C5.1696 45.6541 5.80339 45.3303 6.47306 45.1005C6.0599 45.01 5.80218 45.2071 5.52055 45.3097C5.23891 45.4122 5.0051 45.5574 4.71417 45.5907C4.38737 45.6293 4.27312 45.5121 4.33556 45.1738C4.39326 44.9602 4.48914 44.759 4.61852 44.5797C4.84362 44.2265 5.02728 43.8484 5.16585 43.4529C5.50859 42.358 6.25785 41.66 7.32195 41.2804C7.69658 41.1472 8.06988 41.014 8.4445 40.8808C9.00379 40.685 9.28542 40.2587 9.39967 39.7046C9.50032 39.2967 9.51749 38.8726 9.45015 38.4579C9.35364 37.915 9.21461 37.3805 9.03434 36.8595C8.83242 36.2934 8.99183 36.1069 9.60292 36.0736C10.4106 36.0283 11.0642 36.368 11.6395 36.8835C12.7806 37.9131 13.4927 39.2491 14.0931 40.6277C14.9513 42.5951 14.9845 44.7129 15.039 46.8175C15.047 47.1571 14.8836 47.2344 14.59 47.2171C14.4226 47.2091 14.2738 47.1278 13.9988 47.0439C14.9115 48.1481 15.4668 49.3349 16.2386 50.3832C17.5671 52.1801 18.7786 54.0555 20.2081 55.7765C20.9068 56.6169 21.7225 57.2323 22.8159 57.4734C24.3409 57.8104 25.8514 58.2087 27.3712 58.5656C28.5309 58.8387 29.6893 59.1171 30.8584 59.3369C31.4323 59.4448 32.0195 59.5953 32.6186 59.4634C30.0945 58.9786 27.6462 58.2646 25.1792 57.592C24.9401 57.5459 24.7106 57.4594 24.5003 57.3362C24.2147 57.1404 24.2214 56.9566 24.5309 56.8181C24.7549 56.7242 24.9848 56.645 25.219 56.581C27.7352 55.8231 30.3283 55.8524 32.9095 55.9336C34.7468 55.9909 36.5788 56.248 38.416 56.4171C38.4147 56.3812 38.4005 56.3469 38.3762 56.3206C38.3518 56.2942 38.3188 56.2774 38.2832 56.2733C36.887 55.8737 35.516 55.3609 34.0401 55.3076C33.7133 55.2956 33.4834 55.1877 33.5445 54.7828C33.7425 53.4641 34.3177 52.3079 35.067 51.229C35.2636 50.944 35.5266 50.9107 35.7976 51.1558L36.7116 51.9829C36.3997 51.4258 36.193 50.8158 36.1018 50.1834C35.9836 49.3949 36.3264 49.0086 37.1208 49.0006C37.4303 49.0006 37.7398 49.0259 38.0507 49.0259C38.3333 49.0224 38.6157 49.0402 38.8956 49.0792C36.6226 48.1015 34.61 46.8148 32.9853 44.93C31.8016 43.5594 31.5173 42.0609 32.1018 40.368C32.155 40.2148 32.317 40.0723 32.1643 39.8591C30.4266 41.1792 28.4897 41.042 26.5422 40.5411C24.6398 40.0523 22.6777 39.6247 21.5817 37.6281C21.4794 38.1102 21.6534 38.4672 21.6787 38.8415C21.7013 39.1772 21.5976 39.3943 21.2801 39.5075C19.6475 40.0669 17.9935 40.5504 16.2492 40.5065C15.3937 40.4852 14.578 40.2108 14.0493 39.4702C13.5352 38.7509 13.0888 37.985 12.5999 37.2471C12.3608 36.8861 12.5375 36.7143 12.8656 36.6131C13.0968 36.5358 13.3412 36.4959 13.5631 36.4013C14.7946 35.8765 15.9955 35.3171 16.5003 33.9171C16.5489 33.7929 16.6241 33.6808 16.7205 33.5888C16.8169 33.4968 16.9322 33.427 17.0583 33.3843C18.3132 32.9021 19.5647 32.4106 20.8125 31.9098C20.9587 31.8512 21.134 31.734 21.2483 31.8126C21.6003 32.0523 21.858 31.8445 22.1397 31.6914C22.3991 31.5624 22.6906 31.5129 22.9779 31.5488C24.5601 31.682 26.1423 31.8272 27.7259 31.9405C29.9696 32.099 32.2161 32.2468 34.4519 32.5026C35.2171 32.5891 36.0009 32.6358 36.7329 32.8795C37.8235 33.2525 38.5927 33.9078 37.8435 35.1372C37.8435 35.1452 37.8634 35.1705 37.8939 35.2225C38.1756 35.068 38.4599 34.9121 38.7415 34.755C39.3871 34.3953 39.4057 34.3807 39.8866 34.9641C40.8046 36.0723 41.6203 37.2578 42.4227 38.4486C43.4483 39.971 44.4366 41.5255 45.6256 42.9241C48.0873 45.8012 50.5981 48.625 53.0557 51.4928C53.8767 52.4491 54.6207 53.4668 54.9714 54.7189C55.0458 54.9853 54.9581 55.3103 55.2198 55.55C55.2583 53.8864 54.5981 52.4864 53.6974 51.1744C52.8684 49.9756 51.8933 48.8781 50.9528 47.7645C49.1248 45.604 47.3048 43.4409 45.5911 41.1845C43.8255 38.8615 42.0534 36.5398 40.0833 34.3807C39.7991 34.0696 39.6081 33.6846 39.5319 33.2698C39.3406 32.3001 39.4482 31.3264 39.4456 30.3554C39.4564 30.221 39.5194 30.0962 39.6209 30.0077C39.7817 29.8319 40.1829 29.8892 40.167 29.6494C40.155 29.4643 39.8494 29.3084 39.694 29.1166C39.5989 28.9941 39.5199 28.8598 39.4589 28.717C39.1786 28.1336 39.0417 27.5062 38.9142 26.8775C38.3735 24.2136 37.8222 21.5496 37.5206 18.8496C37.4463 18.1836 37.4728 17.5176 37.4489 16.8596C37.4489 16.7504 37.4409 16.5932 37.5472 16.5626C37.9458 16.4694 37.8195 16.3668 37.5844 16.207C37.4516 16.115 37.4662 15.9406 37.4356 15.7834C37.1381 14.2702 36.8312 12.7584 36.5283 11.2453C36.2825 10.0092 36.0274 8.77177 36.1218 7.49972C36.2865 5.26464 37.7452 3.91266 39.8255 3.69555C40.4233 3.63161 40.438 3.69555 40.5695 4.26564C40.8352 5.42581 41.0185 6.60862 41.4795 7.71817C41.7784 8.43478 42.1185 9.09944 43.0232 9.15805C43.2782 9.17537 43.3114 9.3432 43.3632 9.55765C43.9149 11.856 44.6102 14.1173 45.4449 16.3282C46.2739 18.5379 47.3805 20.6398 48.0022 22.9295L48.0076 22.9415ZM42.784 8.17504C42.6924 8.23365 42.61 8.17504 42.5436 8.12176C42.3786 8.00921 42.2422 7.85961 42.145 7.68487C41.5034 6.4621 41.3028 5.09814 40.9242 3.79278C40.8392 3.50241 41.0743 3.3772 41.3865 3.49442C41.603 3.57434 41.6787 3.76082 41.7345 3.9473C42.0946 5.16873 42.4439 6.39417 42.7973 7.61827C42.8224 7.72935 42.8406 7.8419 42.8518 7.95526C42.8686 7.9941 42.8708 8.03771 42.8582 8.07808C42.8455 8.11845 42.8187 8.15288 42.7827 8.17504H42.784ZM15.5425 34.5605C15.4892 34.73 15.3898 34.8813 15.2555 34.9974C14.47 35.5931 13.5485 35.9828 12.5747 36.1309C12.317 36.1309 12.1483 36.1309 12.0181 35.9711C11.8348 35.738 11.8002 35.5528 12.1297 35.4383C12.7713 35.2145 13.4156 34.9974 14.0546 34.7723C14.4664 34.6231 14.8703 34.4566 15.2755 34.2941C15.3565 34.2608 15.4362 34.2075 15.5173 34.2688C15.6302 34.3527 15.581 34.4686 15.5425 34.5671V34.5605ZM8.85234 37.7639C9.11804 38.4086 9.07154 39.0666 8.9201 39.7126C8.82976 40.0936 8.49366 40.3333 8.1363 40.4625C7.53849 40.681 6.96592 40.954 6.39335 41.2284C5.69724 41.5614 5.66801 41.5428 5.6813 40.6171C5.85134 39.5967 5.98418 38.3806 6.82377 37.4203C7.57303 36.5598 8.40731 36.7143 8.85234 37.7679V37.7639ZM59.6981 22.8909C58.6154 21.6708 56.3317 21.1393 55.0484 22.0224C54.9328 22.0856 54.8135 22.1416 54.6911 22.1903C54.343 22.3648 54.1889 22.1996 54.1597 21.8693C54.1185 21.451 54.0933 21.0314 54.0707 20.6119C53.9936 19.1906 54.1677 17.788 54.3018 16.3761C54.4905 14.3901 54.7455 12.4334 55.3526 10.5273C55.5714 9.87814 55.7258 9.20891 55.8136 8.52935C55.849 8.31025 55.8202 8.08556 55.7309 7.8825C55.6415 7.67943 55.4954 7.50669 55.3101 7.38517C54.2274 6.58597 53.0199 6.44212 51.7233 6.6206C50.7243 6.7538 49.9219 7.18004 49.3799 8.0525C49.1235 8.46541 48.8219 8.85169 48.6279 9.30057C47.7272 11.3545 47.0776 13.479 46.8119 15.7155C46.7774 16.0125 46.8385 16.4627 46.4811 16.488C46.1238 16.5133 46.0042 16.0884 45.9099 15.7661C45.7478 15.216 45.5911 14.6645 45.4303 14.1144C44.8671 12.1857 44.2746 10.2649 43.7485 8.32689C43.35 6.83506 43.0245 5.31925 42.6631 3.8141C42.4679 2.99892 42.0946 2.7152 41.2643 2.69922C40.4015 2.70194 39.5448 2.84361 38.7269 3.1188C36.3543 3.85139 35.3871 5.5004 35.2543 7.47175C35.1214 9.4431 35.52 11.3971 36.0022 13.3085C36.333 14.6219 36.6518 15.9219 36.5987 17.2925C36.5729 18.3339 36.6566 19.375 36.8484 20.3987C37.0172 21.3791 37.247 22.3448 37.425 23.3211C37.6835 24.8889 38.0515 26.4364 38.5263 27.9525C38.7485 28.5583 38.7625 29.2212 38.5661 29.8359C38.3589 30.4539 38.3802 31.1 38.4041 31.7433C38.4253 32.2908 38.2712 32.4093 37.7398 32.2761C37.3347 32.1696 36.9786 31.9405 36.5615 31.8512C34.7627 31.4663 32.9281 31.405 31.1148 31.2385C28.5615 31.0041 25.9962 30.9588 23.4323 30.9428C22.4384 30.934 21.4503 31.0939 20.5096 31.4156C18.3841 32.1403 16.3011 32.9994 14.1928 33.7826C12.8165 34.2941 11.5079 35.0427 9.97224 35.0094C9.75012 35.0121 9.52834 35.0277 9.30801 35.056C7.47738 35.2238 6.16884 36.0936 5.47007 37.8532C5.04496 38.9188 4.97455 40.0496 4.84834 41.1645C4.74904 42.0874 4.51401 42.9906 4.1509 43.8445C3.68195 44.9447 3.1054 45.989 2.56338 47.0519C1.92705 48.2987 1.87657 49.604 2.17946 50.928C2.67631 53.1031 3.70454 55.0678 4.69292 57.0419C5.4249 58.507 6.20338 59.9403 6.96858 61.3828C7.94899 63.2343 8.42192 65.2696 9.09413 67.2343C9.35982 68.0055 9.7185 68.7434 9.89121 69.5466C10.481 72.2625 10.954 75.0078 11.9928 77.6118C12.7169 79.4247 13.4741 81.1909 14.7109 82.7267C15.3508 83.4873 16.0457 84.1996 16.7899 84.8578C17.9988 85.9727 18.6352 87.3607 18.9381 88.9471C19.1493 90.0513 19.3366 91.1635 19.6222 92.2504C19.7338 92.666 19.9238 92.7566 20.4193 92.6687C20.4753 92.66 20.5296 92.6425 20.58 92.6167C21.3107 92.3503 22.3283 92.289 23.051 92.289C24.3795 92.289 26.2393 92.1812 27.5678 92.1812C29.3652 92.1812 30.6711 92.1239 32.4632 92.1239C33.0915 92.1239 33.5259 92.0746 34.1583 92.0733C34.5635 92.0733 36.0182 92.0493 36.4167 92.0559C37.2469 92.0516 38.0767 92.0934 38.9022 92.1812C39.8587 92.2797 40.6505 92.2984 41.692 92.4476C42.2128 92.5221 42.974 92.4862 43.5001 92.4862C44.4526 92.4862 45.4529 92.6473 46.3988 92.6473C46.4811 92.6473 46.5808 92.6473 46.6844 92.6593C46.8037 92.6752 46.9242 92.6805 47.0444 92.6753C47.3872 92.6753 47.6994 92.7273 47.6834 92.1878C47.6542 91.1915 47.7179 90.1898 47.6994 89.1948C47.611 85.4565 48.072 81.7256 49.0677 78.122C50.046 74.6316 51.352 71.2421 52.968 67.9988C54.6021 64.7181 56.268 61.4494 57.1567 57.8584C57.4383 56.7142 57.5978 55.5727 57.4397 54.3805C57.2165 52.7009 56.5855 51.1478 56.07 49.5574C55.6197 48.1694 54.9435 46.8681 54.525 45.4655C54.3324 44.8742 54.3362 44.2363 54.5356 43.6473C55.1117 41.8831 55.5942 40.0895 55.981 38.2741C56.4021 36.38 56.7661 34.4699 57.5008 32.6544C57.7922 31.8849 57.9945 31.0845 58.1039 30.2688C58.352 28.5841 58.8021 26.9356 59.4443 25.3591C59.6303 24.9142 59.7273 24.4267 59.9119 23.9845C60.0966 23.5422 59.9757 23.2159 59.6901 22.8949" fill="black"/>
<path d="M59.6981 22.8909C58.6154 21.6708 56.3317 21.1393 55.0484 22.0224C54.9328 22.0856 54.8135 22.1416 54.6911 22.1903C54.343 22.3648 54.1889 22.1996 54.1597 21.8693C54.1185 21.451 54.0933 21.0314 54.0707 20.6119C53.9936 19.1906 54.1677 17.788 54.3018 16.3761C54.4905 14.3901 54.7455 12.4334 55.3526 10.5273C55.5714 9.87814 55.7258 9.20891 55.8136 8.52935C55.849 8.31025 55.8202 8.08556 55.7309 7.8825C55.6415 7.67943 55.4954 7.50669 55.3101 7.38517C54.2274 6.58597 53.0199 6.44212 51.7233 6.6206C50.7243 6.7538 49.9219 7.18004 49.3799 8.0525C49.1235 8.46541 48.8219 8.85169 48.6279 9.30057C47.7272 11.3545 47.0776 13.479 46.8119 15.7155C46.7774 16.0125 46.8385 16.4627 46.4811 16.488C46.1238 16.5133 46.0042 16.0884 45.9099 15.7661C45.7478 15.216 45.5911 14.6645 45.4303 14.1144C44.8671 12.1857 44.2746 10.2649 43.7485 8.32689C43.35 6.83506 43.0245 5.31925 42.6631 3.8141C42.4679 2.99892 42.0946 2.7152 41.2643 2.69922C40.4015 2.70194 39.5448 2.84361 38.7269 3.1188C36.3543 3.85139 35.3871 5.5004 35.2543 7.47175C35.1214 9.4431 35.52 11.3971 36.0022 13.3085C36.333 14.6219 36.6518 15.9219 36.5987 17.2925C36.5729 18.3339 36.6566 19.375 36.8484 20.3987C37.0172 21.3791 37.247 22.3448 37.425 23.3211C37.6835 24.8889 38.0515 26.4364 38.5263 27.9525C38.7485 28.5583 38.7625 29.2212 38.5661 29.8359C38.3589 30.4539 38.3802 31.1 38.4041 31.7433C38.4253 32.2908 38.2712 32.4093 37.7398 32.2761C37.3347 32.1696 36.9786 31.9405 36.5615 31.8512C34.7627 31.4663 32.9281 31.405 31.1148 31.2385C28.5615 31.0041 25.9962 30.9588 23.4323 30.9428C22.4384 30.934 21.4503 31.0939 20.5096 31.4156C18.3841 32.1403 16.3011 32.9994 14.1928 33.7826C12.8165 34.2941 11.5079 35.0427 9.97224 35.0094C9.75012 35.0121 9.52834 35.0277 9.30801 35.056C7.47738 35.2238 6.16884 36.0936 5.47007 37.8532C5.04496 38.9188 4.97455 40.0496 4.84834 41.1645C4.74904 42.0874 4.51401 42.9906 4.1509 43.8445C3.68195 44.9447 3.1054 45.989 2.56338 47.0519C1.92705 48.2987 1.87657 49.604 2.17946 50.928C2.67631 53.1031 3.70454 55.0678 4.69292 57.0419C5.4249 58.507 6.20338 59.9403 6.96858 61.3828C7.94899 63.2343 8.42192 65.2696 9.09413 67.2343C9.35982 68.0055 9.7185 68.7434 9.89121 69.5466C10.481 72.2625 10.954 75.0078 11.9928 77.6118C12.7169 79.4247 13.4741 81.1909 14.7109 82.7267C15.3508 83.4873 16.0457 84.1996 16.7899 84.8578C17.9988 85.9727 18.6352 87.3607 18.9381 88.9471C19.1493 90.0513 19.3366 91.1635 19.6222 92.2504C19.7338 92.666 19.9238 92.7566 20.4193 92.6687C20.4753 92.66 20.5296 92.6425 20.58 92.6167C21.3107 92.3503 22.3283 92.289 23.051 92.289C24.3795 92.289 26.2393 92.1812 27.5678 92.1812C29.3652 92.1812 30.6711 92.1239 32.4632 92.1239C33.0915 92.1239 33.5259 92.0746 34.1583 92.0733C34.5635 92.0733 36.0181 92.0493 36.4167 92.0559C37.2469 92.0516 38.0767 92.0934 38.9022 92.1812C39.8587 92.2797 40.6505 92.2984 41.692 92.4476C42.2128 92.5221 42.974 92.4862 43.5001 92.4862C44.4526 92.4862 45.4529 92.6473 46.3988 92.6473C46.4811 92.6473 46.5808 92.6473 46.6844 92.6593C46.8037 92.6752 46.9242 92.6806 47.0444 92.6753C47.3872 92.6753 47.6994 92.7273 47.6834 92.1878C47.6542 91.1915 47.7179 90.1898 47.6994 89.1948C47.611 85.4565 48.072 81.7256 49.0677 78.122C50.046 74.6316 51.352 71.2421 52.968 67.9988C54.6021 64.7181 56.268 61.4494 57.1567 57.8584C57.4383 56.7142 57.5978 55.5727 57.4397 54.3805C57.2165 52.7009 56.5855 51.1478 56.07 49.5574C55.6197 48.1694 54.9435 46.8681 54.525 45.4655C54.3324 44.8742 54.3362 44.2363 54.5356 43.6473C55.1117 41.8831 55.5942 40.0895 55.981 38.2741C56.4021 36.38 56.7661 34.4699 57.5008 32.6544C57.7922 31.8849 57.9945 31.0845 58.1039 30.2688C58.352 28.5841 58.8021 26.9356 59.4443 25.3591C59.6303 24.9142 59.7273 24.4267 59.9119 23.9845C60.0966 23.5422 59.9757 23.2159 59.6901 22.8949M59.3088 23.8566C59.0923 24.5226 58.9368 25.2192 58.6446 25.8666C58.6114 25.9425 58.6047 26.0624 58.4931 26.049C58.3815 26.0357 58.4041 25.9238 58.4068 25.8413C58.4094 25.7587 58.4201 25.7081 58.428 25.6428C58.4679 24.9768 58.6672 24.3401 58.8465 23.7007C58.8917 23.5409 58.9701 23.4037 59.1733 23.473C59.3766 23.5422 59.3593 23.7034 59.3062 23.8566H59.3088ZM58.1398 23.5609C57.9471 24.103 57.9166 24.6758 57.7598 25.2259C57.5659 25.9092 57.4941 26.6165 57.8927 27.2771C58.0255 27.5049 57.9936 27.7567 57.9312 27.9844C57.5127 29.5375 57.2895 31.1532 56.6492 32.6331C55.9584 34.2315 55.9983 35.9471 55.5865 37.5841C55.4231 38.2501 55.3327 38.9268 55.0551 39.5581C54.889 39.9444 54.6937 40.3227 54.2899 40.5065C54.0507 40.617 54.0361 40.7516 54.2048 40.8968C54.436 41.0966 54.3377 41.2817 54.2381 41.4828C54.068 41.8372 53.8807 42.1835 53.7346 42.5484C53.6017 42.8721 53.5021 42.7309 53.4157 42.5484C53.2324 42.1488 53.2962 41.7239 53.2829 41.4003C53.2829 39.5661 53.6814 37.8878 54.1331 36.2281C54.2819 35.6873 54.5888 35.1839 54.7548 34.6297C55.0843 33.5375 55.2078 32.4346 54.9754 31.2998C54.8931 30.8016 54.8588 30.2967 54.8731 29.7919C54.8611 27.9951 54.618 26.2155 54.5728 24.4214C54.5503 23.5382 54.9554 23.072 55.6795 22.7377C56.5164 22.3528 57.3028 22.442 58.0534 22.9508C58.2952 23.116 58.1969 23.3757 58.1305 23.5609H58.1398ZM53.8249 11.854C53.7992 11.7377 53.7876 11.6188 53.7904 11.4997C53.7797 10.9416 53.9086 10.5154 54.0189 10.0878C54.1623 9.53234 54.2925 8.97157 54.4692 8.42679C54.5835 8.07514 54.8173 8.06182 55.0498 8.3442C55.1189 8.43227 55.1656 8.53593 55.1857 8.64619C55.2059 8.75645 55.1989 8.86997 55.1653 8.9769C54.9089 9.95858 54.7269 10.9602 54.3948 11.9206C54.335 12.0924 54.3125 12.3748 54.0733 12.3482C53.8342 12.3215 53.878 12.0338 53.8249 11.854ZM53.8037 8.35619C53.3453 9.58296 53.1633 10.867 53.0584 12.1657C53.0322 12.5013 53.1338 12.8345 53.3427 13.0981C53.7704 13.6415 53.7532 14.2503 53.6363 14.8643C53.4118 16.0351 53.3267 17.2219 53.1939 18.4021C53.1407 18.8763 52.9149 19.0015 52.4938 18.9708C52.3503 18.9602 52.1364 18.9016 52.0859 19.0881C52.0355 19.2745 52.2547 19.3545 52.3756 19.3997C53.0757 19.6781 53.1726 20.2216 53.1859 20.8996C53.2231 22.2689 53.3852 23.6341 53.4317 25.0034C53.4689 26.109 53.6163 27.2105 53.5791 28.3188C53.5717 28.5406 53.5968 28.7623 53.6535 28.9768C53.809 29.5509 53.8289 30.1183 53.3732 30.5871C53.1793 30.7856 53.2125 30.9161 53.4662 30.9867C53.9192 31.108 53.9976 31.4116 53.9976 31.8419C54.0218 32.7488 53.9285 33.655 53.72 34.5378C53.6243 34.9001 53.5207 35.2851 53.0398 35.3224C52.802 35.341 52.794 35.4796 52.8857 35.6407C53.3267 36.4093 53.0305 37.1832 52.9003 37.9531C52.8509 38.1527 52.7861 38.3483 52.7063 38.5378C52.3237 38.2248 52.3357 37.7679 52.2693 37.3856C52.0262 35.9737 51.8707 34.5472 51.6356 33.1326C51.5028 32.352 51.3194 31.5808 51.1348 30.8096C50.9275 29.9491 50.9727 29.0447 50.7136 28.2015C50.1823 26.4566 49.6894 24.6957 48.9255 23.0281C48.4562 22.0306 48.0567 21.0016 47.7299 19.9485C47.6475 19.6741 47.4443 19.2932 48.0355 19.3265C48.1803 19.3345 48.1524 19.2452 48.0952 19.164C48.0495 19.0878 47.9951 19.0172 47.9332 18.9535C47.2689 18.3714 47.3207 17.6588 47.5134 16.8889C47.9345 15.2053 48.2626 13.495 48.7462 11.8274C49.158 10.4128 49.696 9.03018 50.7934 7.96459C51.5187 7.26129 52.3742 7.0202 53.348 7.32656C53.9378 7.51304 54.0255 7.77544 53.8063 8.35885L53.8037 8.35619ZM48.0076 22.9415C48.2958 24.0071 48.7302 25.0407 48.4167 26.1769C48.3397 26.4566 48.4752 26.4313 48.701 26.418C49.2563 26.3834 49.5672 26.6151 49.7412 27.1426C49.9404 27.7604 49.9155 28.4289 49.6708 29.03C49.5379 29.3684 49.3134 29.6454 49.878 29.8066C50.1105 29.8732 50.1876 30.1769 50.2301 30.4167C50.3895 31.3078 50.5821 32.1975 50.6658 33.098C50.8943 35.5475 51.4629 37.9358 51.9239 40.3413C52.3636 42.6257 53.2298 44.7849 54.1238 46.9267C54.881 48.7409 55.6316 50.5564 56.1404 52.4625C56.6107 54.226 56.6824 55.9696 56.179 57.7545C55.8229 59.0145 55.338 60.2173 54.8505 61.4254C53.8794 63.847 52.6997 66.174 51.6622 68.5636C50.974 70.142 50.3244 71.7377 49.6203 73.3081C48.7143 75.3301 47.9079 77.3867 47.4775 79.5685C47.1468 81.306 46.9056 83.0595 46.7548 84.8219C46.5462 87.0183 46.4705 89.2241 46.4134 91.4272C45.8063 91.4272 45.5539 91.354 44.9162 91.358C44.5266 91.3656 44.1368 91.3531 43.7485 91.3207C43.0843 91.2634 42.3695 91.3114 41.7757 91.2061C41.154 91.0982 40.523 91.0729 39.8893 91.0183C38.7402 90.9277 37.5313 90.8984 36.3795 90.8984C33.316 90.8984 30.246 90.8465 27.1865 90.9584C25.7943 91.009 24.41 91.0823 23.0191 91.1449C22.3894 91.1728 21.7398 91.1662 21.1141 91.2181C20.9812 91.2288 20.6823 91.2314 20.4246 91.2488C20.2506 90.4496 20.038 89.6677 19.9955 88.8512C19.9822 88.5968 19.8919 88.2544 20.1788 88.1332C20.6319 87.9428 20.4618 87.7629 20.2479 87.5298C19.1998 86.391 18.1848 85.2188 17.0995 84.1159C15.4863 82.5022 14.1961 80.5938 13.2987 78.4936C12.5016 76.6008 11.941 74.6202 11.306 72.6661C11.1778 72.2213 11.0775 71.7689 11.0058 71.3115C10.9779 71.1663 10.9473 70.9692 11.0895 70.8813C11.2569 70.7774 11.4322 70.8693 11.5651 71.0051C11.8122 71.2582 12.0632 71.5086 12.3024 71.771C13.053 72.5657 13.9064 73.256 14.8397 73.8236C14.7233 73.6553 14.5897 73.4995 14.4412 73.3588C13.2961 72.4796 12.5136 71.3075 11.7444 70.1114C10.5129 68.1986 9.70256 66.0941 8.86961 63.9975C7.62218 60.854 6.36678 57.7158 4.75137 54.7335C4.02735 53.3922 3.32327 52.0362 2.95661 50.5337C2.50493 48.6929 3.0589 47.1625 4.59062 46.0622C5.1696 45.6541 5.80339 45.3303 6.47306 45.1005C6.0599 45.01 5.80218 45.2071 5.52055 45.3097C5.23891 45.4122 5.0051 45.5574 4.71417 45.5907C4.38737 45.6293 4.27312 45.5121 4.33556 45.1738C4.39326 44.9602 4.48914 44.759 4.61852 44.5797C4.84362 44.2265 5.02728 43.8484 5.16585 43.4529C5.50859 42.358 6.25785 41.66 7.32195 41.2804C7.69658 41.1472 8.06988 41.014 8.4445 40.8808C9.00379 40.685 9.28542 40.2587 9.39967 39.7046C9.50032 39.2967 9.51749 38.8726 9.45015 38.4579C9.35364 37.915 9.21461 37.3805 9.03434 36.8595C8.83242 36.2934 8.99183 36.1069 9.60292 36.0736C10.4106 36.0283 11.0642 36.368 11.6395 36.8835C12.7806 37.9131 13.4927 39.2491 14.0931 40.6277C14.9513 42.5951 14.9845 44.7129 15.039 46.8175C15.047 47.1571 14.8836 47.2344 14.59 47.2171C14.4226 47.2091 14.2738 47.1278 13.9988 47.0439C14.9115 48.1481 15.4668 49.3349 16.2386 50.3832C17.5671 52.1801 18.7786 54.0555 20.2081 55.7765C20.9068 56.6169 21.7225 57.2323 22.8159 57.4734C24.3409 57.8104 25.8514 58.2087 27.3712 58.5656C28.5309 58.8387 29.6893 59.1171 30.8584 59.3369C31.4323 59.4448 32.0195 59.5953 32.6186 59.4634C30.0945 58.9786 27.6462 58.2646 25.1792 57.592C24.9401 57.5459 24.7106 57.4594 24.5003 57.3362C24.2147 57.1404 24.2214 56.9566 24.5309 56.8181C24.7549 56.7242 24.9848 56.645 25.219 56.581C27.7352 55.8231 30.3283 55.8524 32.9095 55.9336C34.7468 55.9909 36.5788 56.248 38.416 56.4171C38.4147 56.3812 38.4005 56.3469 38.3762 56.3206C38.3518 56.2942 38.3188 56.2774 38.2832 56.2733C36.887 55.8737 35.516 55.3609 34.0401 55.3076C33.7133 55.2956 33.4834 55.1877 33.5445 54.7828C33.7425 53.4641 34.3177 52.3079 35.067 51.229C35.2636 50.944 35.5266 50.9107 35.7976 51.1558L36.7116 51.9829C36.3997 51.4258 36.193 50.8158 36.1018 50.1834C35.9836 49.3949 36.3264 49.0086 37.1208 49.0006C37.4303 49.0006 37.7398 49.0259 38.0507 49.0259C38.3333 49.0224 38.6157 49.0402 38.8956 49.0792C36.6226 48.1015 34.61 46.8148 32.9853 44.93C31.8016 43.5594 31.5173 42.0609 32.1018 40.368C32.155 40.2148 32.317 40.0723 32.1643 39.8591C30.4266 41.1792 28.4897 41.042 26.5422 40.5411C24.6398 40.0523 22.6777 39.6247 21.5817 37.6281C21.4794 38.1102 21.6534 38.4672 21.6787 38.8415C21.7013 39.1772 21.5976 39.3943 21.2801 39.5075C19.6475 40.0669 17.9935 40.5504 16.2492 40.5065C15.3937 40.4852 14.578 40.2108 14.0493 39.4702C13.5352 38.7509 13.0888 37.985 12.5999 37.2471C12.3608 36.8861 12.5375 36.7143 12.8656 36.6131C13.0968 36.5358 13.3412 36.4959 13.5631 36.4013C14.7946 35.8765 15.9955 35.3171 16.5003 33.9171C16.5489 33.7929 16.6241 33.6808 16.7205 33.5888C16.8169 33.4968 16.9322 33.427 17.0583 33.3843C18.3132 32.9021 19.5647 32.4106 20.8125 31.9098C20.9587 31.8512 21.134 31.734 21.2483 31.8126C21.6003 32.0523 21.858 31.8445 22.1397 31.6914C22.3991 31.5624 22.6906 31.5129 22.9779 31.5488C24.5601 31.682 26.1423 31.8272 27.7259 31.9405C29.9696 32.099 32.2161 32.2468 34.4519 32.5026C35.2171 32.5891 36.0009 32.6358 36.7329 32.8795C37.8235 33.2525 38.5927 33.9078 37.8435 35.1372C37.8435 35.1452 37.8634 35.1705 37.8939 35.2225C38.1756 35.068 38.4599 34.9121 38.7415 34.755C39.3871 34.3953 39.4057 34.3807 39.8866 34.9641C40.8046 36.0723 41.6203 37.2578 42.4227 38.4486C43.4483 39.971 44.4366 41.5255 45.6256 42.9241C48.0873 45.8012 50.5981 48.625 53.0557 51.4928C53.8767 52.4491 54.6207 53.4668 54.9714 54.7189C55.0458 54.9853 54.9581 55.3103 55.2198 55.55C55.2583 53.8864 54.5981 52.4864 53.6974 51.1744C52.8684 49.9756 51.8933 48.8781 50.9528 47.7645C49.1248 45.604 47.3048 43.4409 45.5911 41.1845C43.8255 38.8615 42.0534 36.5398 40.0833 34.3807C39.7991 34.0696 39.6081 33.6846 39.5319 33.2698C39.3406 32.3001 39.4482 31.3264 39.4456 30.3554C39.4564 30.221 39.5194 30.0962 39.6209 30.0077C39.7817 29.8319 40.1829 29.8892 40.167 29.6494C40.155 29.4643 39.8494 29.3084 39.694 29.1166C39.5989 28.9941 39.5199 28.8598 39.4589 28.717C39.1786 28.1336 39.0417 27.5062 38.9142 26.8775C38.3735 24.2136 37.8222 21.5496 37.5206 18.8496C37.4463 18.1836 37.4728 17.5176 37.4489 16.8596C37.4489 16.7504 37.4409 16.5932 37.5472 16.5626C37.9458 16.4694 37.8196 16.3668 37.5844 16.207C37.4516 16.115 37.4662 15.9406 37.4356 15.7834C37.138 14.2702 36.8312 12.7584 36.5283 11.2453C36.2825 10.0092 36.0274 8.77177 36.1218 7.49972C36.2865 5.26464 37.7452 3.91266 39.8255 3.69555C40.4233 3.63161 40.438 3.69555 40.5695 4.26564C40.8352 5.42581 41.0185 6.60862 41.4795 7.71817C41.7784 8.43478 42.1185 9.09944 43.0232 9.15805C43.2782 9.17537 43.3114 9.3432 43.3632 9.55765C43.9149 11.856 44.6102 14.1173 45.4449 16.3282C46.2739 18.5379 47.3805 20.6398 48.0022 22.9295L48.0076 22.9415ZM42.784 8.17504C42.6924 8.23365 42.61 8.17504 42.5436 8.12176C42.3786 8.00921 42.2422 7.85961 42.145 7.68487C41.5034 6.4621 41.3028 5.09814 40.9242 3.79278C40.8392 3.50241 41.0743 3.3772 41.3865 3.49442C41.603 3.57434 41.6787 3.76082 41.7345 3.9473C42.0946 5.16873 42.4439 6.39417 42.7973 7.61827C42.8224 7.72935 42.8406 7.8419 42.8518 7.95526C42.8686 7.9941 42.8708 8.03771 42.8582 8.07808C42.8455 8.11845 42.8187 8.15288 42.7827 8.17504H42.784ZM15.5425 34.5605C15.4892 34.73 15.3898 34.8813 15.2555 34.9974C14.47 35.5931 13.5485 35.9828 12.5747 36.1309C12.317 36.1309 12.1483 36.1309 12.0181 35.9711C11.8348 35.738 11.8002 35.5528 12.1297 35.4383C12.7713 35.2145 13.4156 34.9974 14.0546 34.7723C14.4664 34.6231 14.8703 34.4566 15.2755 34.2941C15.3565 34.2608 15.4362 34.2075 15.5173 34.2688C15.6302 34.3527 15.581 34.4686 15.5425 34.5671V34.5605ZM8.85234 37.7639C9.11804 38.4086 9.07154 39.0666 8.9201 39.7126C8.82976 40.0936 8.49366 40.3333 8.1363 40.4625C7.53849 40.681 6.96592 40.954 6.39335 41.2284C5.69724 41.5614 5.66801 41.5428 5.6813 40.6171C5.85134 39.5967 5.98418 38.3806 6.82377 37.4203C7.57303 36.5598 8.40731 36.7143 8.85234 37.7679V37.7639Z" stroke="black" stroke-width="0.25" stroke-miterlimit="10"/>
</svg>
