<svg width="1261" height="100%" viewBox="0 0 1261 193" fill="none" xmlns="http://www.w3.org/2000/svg">
<path d="M91.0442 1.99999H61.6142L59.4542 33.32H45.9542L48.3842 1.99999H18.9542L16.5242 33.32H8.96422L6.53422 64.91H14.3642L10.3142 121.61H2.75422L0.864219 153.2H8.15422L5.72422 191H35.1542L37.5842 153.2H50.8142L48.3842 191H77.8142L80.2442 153.2H88.3442L90.5042 121.61H82.4042L86.4542 64.91H94.2842L96.4442 33.32H88.6142L91.0442 1.99999ZM43.7942 64.91H57.0242L52.9742 121.61H39.7442L43.7942 64.91ZM104.112 191H141.912V1.99999H104.112V191ZM207.355 191V37.37H227.335V1.99999H149.575V37.37H169.555V191H207.355ZM284.039 145.91C284.039 154.01 283.229 156.71 277.019 156.71H274.589C268.379 156.71 267.569 154.01 267.569 145.91V122.15H232.199V150.5C232.199 182.9 240.029 192.35 269.459 192.35H284.579C314.009 192.35 321.839 182.9 321.839 150.5V138.89C321.839 111.08 312.659 100.55 293.219 84.35C275.669 69.77 269.729 64.64 269.729 49.79V46.28C269.729 38.99 270.539 36.29 277.019 36.29H279.179C285.389 36.29 286.469 38.99 286.469 47.09V65.45H321.839V42.5C321.839 10.1 314.279 0.649988 284.579 0.649988H269.729C240.029 0.649988 232.199 10.1 232.199 42.5V50.06C232.199 77.87 241.379 88.4 260.549 104.6C278.369 119.18 284.039 124.04 284.039 139.16V145.91ZM332.156 150.5C332.156 182.9 339.986 192.35 369.686 192.35H387.506C417.206 192.35 425.036 182.9 425.036 150.5V42.5C425.036 10.1 417.206 0.649988 387.506 0.649988H369.686C339.986 0.649988 332.156 10.1 332.156 42.5V150.5ZM387.236 145.91C387.236 154.01 386.426 156.71 379.946 156.71H377.246C370.766 156.71 369.956 154.01 369.956 145.91V47.09C369.956 38.99 370.766 36.29 377.246 36.29H379.946C386.426 36.29 387.236 38.99 387.236 47.09V145.91ZM437.657 191H475.457V106.49C476.807 113.51 478.157 118.91 479.777 124.31L498.947 191H538.637L507.587 90.56L537.557 1.99999H500.567L479.237 69.23C477.887 73.82 477.077 77.06 475.457 83.54V1.99999H437.657V191ZM601.106 191H638.906L615.686 1.99999H563.576L540.086 191H574.106L576.806 166.43H598.136L601.106 191ZM587.336 29.81C588.956 59.78 591.386 93.26 594.626 132.95H580.046C583.286 93.26 585.716 59.78 587.336 29.81ZM694.849 191V134.57L724.819 1.99999H690.799L685.129 31.7C682.699 44.66 679.999 65.45 678.109 88.13C676.219 65.45 673.519 44.66 671.089 31.7L665.419 1.99999H627.349L657.049 134.57V191H694.849ZM783.478 191V37.37H803.458V1.99999H725.698V37.37H745.678V191H783.478ZM809.402 150.5C809.402 182.9 817.232 192.35 846.932 192.35H864.752C894.452 192.35 902.282 182.9 902.282 150.5V42.5C902.282 10.1 894.452 0.649988 864.752 0.649988H846.932C817.232 0.649988 809.402 10.1 809.402 42.5V150.5ZM864.482 145.91C864.482 154.01 863.672 156.71 857.192 156.71H854.492C848.012 156.71 847.202 154.01 847.202 145.91V47.09C847.202 38.99 848.012 36.29 854.492 36.29H857.192C863.672 36.29 864.482 38.99 864.482 47.09V145.91ZM966.203 191V37.37H986.183V1.99999H908.423V37.37H928.403V191H966.203ZM1039.86 191H1077.66L1054.44 1.99999H1002.33L978.836 191H1012.86L1015.56 166.43H1036.89L1039.86 191ZM1026.09 29.81C1027.71 59.78 1030.14 93.26 1033.38 132.95H1018.8C1022.04 93.26 1024.47 59.78 1026.09 29.81ZM1086.03 191H1151.64V155.36H1123.83V1.99999H1086.03V191ZM1159.33 191H1197.13V106.49C1198.48 113.51 1199.83 118.91 1201.45 124.31L1220.62 191H1260.31L1229.26 90.56L1259.23 1.99999H1222.24L1200.91 69.23C1199.56 73.82 1198.75 77.06 1197.13 83.54V1.99999H1159.33V191Z" fill="white"/>
</svg>
