<svg width="187" height="55" viewBox="0 0 187 55" fill="none" xmlns="http://www.w3.org/2000/svg">
<path d="M33.8334 13.7176C33.2361 13.0398 31.9761 12.7445 31.2681 13.2351C31.2043 13.2702 31.1385 13.3013 31.0709 13.3284C30.8789 13.4253 30.7939 13.3335 30.7778 13.15C30.755 12.9177 30.7411 12.6846 30.7286 12.4515C30.6861 11.6619 30.7822 10.8827 30.8562 10.0983C30.9603 8.99494 31.101 7.90789 31.4359 6.84896C31.5566 6.48829 31.6418 6.1165 31.6903 5.73896C31.7098 5.61724 31.6939 5.49241 31.6446 5.3796C31.5953 5.26678 31.5147 5.17081 31.4125 5.10331C30.8151 4.65931 30.1489 4.57939 29.4335 4.67855C28.8824 4.75255 28.4397 4.98935 28.1406 5.47404C27.9992 5.70344 27.8328 5.91804 27.7258 6.16742C27.2288 7.30849 26.8704 8.48879 26.7238 9.73124C26.7048 9.89626 26.7385 10.1464 26.5413 10.1604C26.3442 10.1745 26.2782 9.93844 26.2262 9.75936C26.1367 9.45374 26.0503 9.14738 25.9616 8.84176C25.6508 7.77025 25.3239 6.70318 25.0337 5.62648C24.8138 4.79769 24.6342 3.95557 24.4348 3.11938C24.3271 2.6665 24.1211 2.50888 23.663 2.5C23.187 2.50151 22.7144 2.58022 22.2631 2.7331C20.9541 3.1401 20.4205 4.05621 20.3472 5.15141C20.2739 6.2466 20.4938 7.33217 20.7598 8.39407C20.9423 9.1237 21.1182 9.84594 21.0889 10.6074C21.0747 11.1859 21.1209 11.7643 21.2267 12.3331C21.3198 12.8777 21.4466 13.4142 21.5448 13.9566C21.6875 14.8276 21.8905 15.6873 22.1524 16.5296C22.275 16.8662 22.2828 17.2344 22.1744 17.5759C22.0601 17.9193 22.0718 18.2782 22.085 18.6356C22.0967 18.9397 22.0117 19.0056 21.7185 18.9316C21.495 18.8724 21.2986 18.7451 21.0684 18.6955C20.076 18.4817 19.0638 18.4476 18.0633 18.3552C16.6546 18.2249 15.2393 18.1998 13.8247 18.1909C13.2764 18.186 12.7312 18.2748 12.2122 18.4536C11.0395 18.8561 9.89024 19.3334 8.72705 19.7685C7.96772 20.0527 7.24576 20.4686 6.39848 20.4501C6.27593 20.4516 6.15357 20.4602 6.032 20.476C5.022 20.5692 4.30005 21.0524 3.91452 22.03C3.67998 22.622 3.64113 23.2502 3.5715 23.8696C3.51671 24.3823 3.38704 24.8841 3.1867 25.3585C2.92797 25.9697 2.60987 26.5499 2.31083 27.1404C1.95975 27.833 1.9319 28.5582 2.09901 29.2938C2.37313 30.5022 2.94043 31.5937 3.48575 32.6904C3.8896 33.5043 4.31911 34.3006 4.74129 35.102C5.2822 36.1306 5.54313 37.2613 5.914 38.3528C6.06059 38.7813 6.25849 39.1912 6.35377 39.6374C6.6792 41.1463 6.94013 42.6714 7.51329 44.1181C7.91275 45.1252 8.33052 46.1065 9.0129 46.9597C9.36594 47.3823 9.74934 47.778 10.16 48.1437C10.8269 48.7631 11.178 49.5341 11.3451 50.4155C11.4617 51.0289 11.565 51.6468 11.7226 52.2507C11.7842 52.4815 11.889 52.5319 12.1624 52.483C12.1933 52.4782 12.2232 52.4685 12.2511 52.4542C12.6542 52.3062 13.2156 52.2721 13.6143 52.2721C14.3473 52.2721 15.3734 52.2122 16.1064 52.2122C17.098 52.2122 17.8185 52.1804 18.8073 52.1804C19.154 52.1804 19.3936 52.153 19.7425 52.1522C19.9661 52.1522 20.7686 52.1389 20.9885 52.1426C21.4466 52.1402 21.9044 52.1634 22.3599 52.2122C22.8876 52.2669 23.3244 52.2773 23.899 52.3602C24.1864 52.4016 24.6063 52.3816 24.8966 52.3816C25.4221 52.3816 25.974 52.4712 26.4959 52.4712C26.5413 52.4712 26.5963 52.4712 26.6535 52.4778C26.7193 52.4867 26.7858 52.4896 26.8521 52.4867C27.0412 52.4867 27.2134 52.5156 27.2046 52.2159C27.1885 51.6624 27.2237 51.1059 27.2134 50.5531C27.1647 48.4763 27.4191 46.4035 27.9684 44.4015C28.5081 42.4625 29.2287 40.5794 30.1203 38.7776C31.0218 36.9549 31.9409 35.139 32.4313 33.144C32.5867 32.5083 32.6746 31.8741 32.5874 31.2118C32.4643 30.2787 32.1161 29.4159 31.8317 28.5323C31.5833 27.7612 31.2102 27.0383 30.9793 26.259C30.8731 25.9306 30.8751 25.5762 30.9852 25.249C31.303 24.2688 31.5692 23.2724 31.7826 22.2638C32.015 21.2115 32.2158 20.1504 32.6211 19.1418C32.7819 18.7143 32.8935 18.2696 32.9539 17.8164C33.0908 16.8805 33.3391 15.9647 33.6934 15.0888C33.796 14.8417 33.8495 14.5708 33.9514 14.3251C34.0533 14.0795 33.9866 13.8982 33.829 13.7198" fill="black"/>
<path d="M33.8334 13.7176C33.2361 13.0398 31.9761 12.7445 31.2681 13.2351C31.2043 13.2702 31.1385 13.3013 31.0709 13.3284C30.8789 13.4253 30.7939 13.3335 30.7778 13.15C30.755 12.9177 30.7411 12.6846 30.7286 12.4515C30.6861 11.6619 30.7822 10.8827 30.8562 10.0983C30.9603 8.99494 31.101 7.90789 31.4359 6.84896C31.5566 6.48829 31.6418 6.1165 31.6903 5.73896C31.7098 5.61724 31.6939 5.49241 31.6446 5.3796C31.5953 5.26678 31.5147 5.17081 31.4125 5.10331C30.8151 4.65931 30.1489 4.57939 29.4335 4.67855C28.8824 4.75255 28.4397 4.98935 28.1406 5.47404C27.9992 5.70344 27.8328 5.91804 27.7258 6.16742C27.2288 7.30849 26.8704 8.48879 26.7238 9.73124C26.7048 9.89626 26.7385 10.1464 26.5413 10.1604C26.3442 10.1745 26.2782 9.93844 26.2262 9.75936C26.1367 9.45374 26.0503 9.14738 25.9616 8.84176C25.6508 7.77025 25.3239 6.70318 25.0337 5.62648C24.8138 4.79769 24.6342 3.95557 24.4348 3.11938C24.3271 2.6665 24.1211 2.50888 23.663 2.5C23.187 2.50151 22.7144 2.58022 22.2631 2.7331C20.9541 3.1401 20.4205 4.05621 20.3472 5.15141C20.2739 6.2466 20.4938 7.33217 20.7598 8.39407C20.9423 9.1237 21.1183 9.84594 21.0889 10.6074C21.0747 11.1859 21.1209 11.7643 21.2267 12.3331C21.3198 12.8777 21.4466 13.4142 21.5448 13.9566C21.6875 14.8276 21.8905 15.6873 22.1524 16.5296C22.275 16.8662 22.2828 17.2344 22.1744 17.5759C22.0601 17.9193 22.0718 18.2782 22.085 18.6356C22.0967 18.9397 22.0117 19.0056 21.7185 18.9316C21.495 18.8724 21.2986 18.7451 21.0684 18.6955C20.076 18.4817 19.0638 18.4476 18.0633 18.3552C16.6546 18.2249 15.2393 18.1998 13.8247 18.1909C13.2764 18.186 12.7312 18.2748 12.2122 18.4536C11.0395 18.8561 9.89024 19.3334 8.72705 19.7685C7.96772 20.0527 7.24576 20.4686 6.39848 20.4501C6.27593 20.4516 6.15357 20.4602 6.032 20.476C5.022 20.5692 4.30005 21.0524 3.91452 22.03C3.67998 22.622 3.64113 23.2502 3.5715 23.8696C3.51671 24.3823 3.38704 24.8841 3.1867 25.3585C2.92797 25.9697 2.60987 26.5499 2.31083 27.1404C1.95975 27.833 1.9319 28.5582 2.09901 29.2938C2.37313 30.5022 2.94043 31.5937 3.48575 32.6904C3.8896 33.5043 4.31911 34.3006 4.74129 35.102C5.2822 36.1306 5.54313 37.2613 5.914 38.3528C6.06059 38.7813 6.25849 39.1912 6.35377 39.6374C6.6792 41.1463 6.94013 42.6714 7.51329 44.1181C7.91275 45.1252 8.33052 46.1065 9.0129 46.9597C9.36594 47.3823 9.74934 47.778 10.16 48.1437C10.8269 48.7631 11.178 49.5341 11.3451 50.4155C11.4617 51.0289 11.565 51.6468 11.7226 52.2507C11.7842 52.4815 11.889 52.5319 12.1624 52.483C12.1933 52.4782 12.2232 52.4685 12.2511 52.4542C12.6542 52.3062 13.2156 52.2721 13.6143 52.2721C14.3473 52.2721 15.3734 52.2122 16.1064 52.2122C17.098 52.2122 17.8185 52.1804 18.8073 52.1804C19.154 52.1804 19.3936 52.153 19.7425 52.1522C19.9661 52.1522 20.7686 52.1389 20.9885 52.1426C21.4466 52.1402 21.9044 52.1634 22.3599 52.2122C22.8876 52.2669 23.3244 52.2773 23.8991 52.3602C24.1864 52.4016 24.6063 52.3816 24.8966 52.3816C25.4221 52.3816 25.974 52.4712 26.4959 52.4712C26.5413 52.4712 26.5963 52.4712 26.6535 52.4778C26.7193 52.4867 26.7858 52.4896 26.8521 52.4867C27.0412 52.4867 27.2134 52.5156 27.2046 52.2159C27.1885 51.6624 27.2237 51.1059 27.2134 50.5531C27.1647 48.4763 27.4191 46.4035 27.9684 44.4015C28.5081 42.4625 29.2287 40.5794 30.1203 38.7776C31.0218 36.9549 31.9409 35.139 32.4313 33.144C32.5867 32.5083 32.6746 31.8741 32.5874 31.2118C32.4643 30.2787 32.1161 29.4159 31.8317 28.5323C31.5833 27.7612 31.2102 27.0383 30.9793 26.259C30.8731 25.9306 30.8751 25.5762 30.9852 25.249C31.303 24.2688 31.5692 23.2724 31.7826 22.2638C32.015 21.2115 32.2158 20.1504 32.6211 19.1418C32.7819 18.7143 32.8935 18.2696 32.9539 17.8164C33.0908 16.8805 33.3391 15.9647 33.6934 15.0888C33.796 14.8417 33.8495 14.5708 33.9514 14.3251C34.0533 14.0795 33.9866 13.8982 33.829 13.7198" stroke="white" stroke-width="3" stroke-miterlimit="10"/>
<path d="M11.9323 51.4173L11.562 50.3025L11.188 48.7406L10.0772 47.3864L8.53389 45.4263L7.51637 43.1456L6.49811 39.7997L5.95677 37.7922L4.46604 34.033L3.69068 32.5796L2.42656 30.2213L2 28.8348L2.09849 27.7832L2.77165 26.5879L3.72549 24.2806L3.79065 22.728L4.83631 21.2531L5.67462 20.9915L6.8595 20.9196L8.00884 20.5602L10.5697 19.4978L12.6054 18.8128L13.8696 18.6691L19.8621 18.9882L21.652 19.3807L22.1608 19.6416L22.5222 18.0093L22.3904 16.773L21.3536 11.5625L21.1729 9.60961L20.6841 6.55984L20.7493 5.0619L21.7039 3.9938L23.4923 3.5L24.3002 3.68688L25.5762 8.59901L26.4464 11.1809L26.8166 11.004L27.1543 10.0761L28.0037 7.18589L28.8576 5.90647L29.7929 5.55714H30.4424L31.1718 5.79434L31.6162 6.22201L31.6813 6.60872L31.117 8.58464L30.726 11.8831L30.8415 14.0502L32.0101 13.6995L33.0469 13.7792L33.7038 14.1652L34 14.4829L33.4216 16.1196L32.847 18.7331L32.0923 21.105L31.7472 22.81L31.1081 24.8887L30.843 25.9532L31.3051 27.459L32.2456 30.176L32.5693 31.3864L32.4708 32.6932L31.3547 35.8486L30.1395 38.3341L29.0072 40.8678L27.726 43.9751L27.4298 45.5564L27.1018 47.4971L27.0529 49.9187L26.987 51.5C26.987 51.5 24.7046 51.4202 24.6061 51.4202C24.5076 51.4202 18.712 51.086 18.712 51.086C18.712 51.086 16.5289 51.3412 16.2993 51.3088C16.0698 51.2765 12.9824 51.357 12.9824 51.357L11.9323 51.4173Z" fill="white"/>
<path d="M33.6187 14.2541C33.4992 14.6241 33.4134 15.0111 33.2522 15.3707C33.2339 15.4129 33.2302 15.4795 33.1686 15.4721C33.1071 15.4647 33.1195 15.4026 33.121 15.3567C33.1225 15.3108 33.1283 15.2827 33.1327 15.2464C33.1547 14.8764 33.2646 14.5227 33.3636 14.1675C33.3885 14.0787 33.4318 14.0025 33.5439 14.041C33.656 14.0795 33.6465 14.169 33.6172 14.2541H33.6187ZM32.9737 14.0898C32.8674 14.391 32.8505 14.7092 32.764 15.0148C32.657 15.3944 32.6175 15.7874 32.8373 16.1544C32.9106 16.2809 32.893 16.4208 32.8586 16.5473C32.6277 17.4102 32.5046 18.3078 32.1513 19.1299C31.7702 20.0179 31.7922 20.971 31.5649 21.8805C31.4748 22.2505 31.4249 22.6264 31.2718 22.9772C31.1801 23.1918 31.0724 23.4019 30.8496 23.504C30.7177 23.5655 30.7096 23.6402 30.8027 23.7209C30.9302 23.8319 30.876 23.9347 30.821 24.0465C30.7272 24.2433 30.6238 24.4357 30.5432 24.6385C30.4699 24.8183 30.4149 24.7398 30.3673 24.6385C30.2662 24.4165 30.3013 24.1804 30.294 24.0006C30.294 22.9816 30.5139 22.0492 30.7631 21.1272C30.8452 20.8267 31.0145 20.547 31.1061 20.2392C31.2879 19.6324 31.3561 19.0197 31.2278 18.3892C31.1824 18.1124 31.1635 17.8319 31.1713 17.5515C31.1648 16.5533 31.0306 15.5646 31.0057 14.5679C30.9932 14.0772 31.2168 13.8182 31.6162 13.6325C32.078 13.4186 32.5119 13.4682 32.926 13.7509C33.0594 13.8427 33.0052 13.987 32.9685 14.0898H32.9737ZM30.5931 7.58599C30.5788 7.5214 30.5725 7.4553 30.574 7.38915C30.5681 7.07909 30.6392 6.8423 30.7001 6.60476C30.7792 6.29618 30.851 5.98464 30.9485 5.68198C31.0116 5.48662 31.1406 5.47922 31.2688 5.6361C31.307 5.68503 31.3327 5.74262 31.3439 5.80387C31.355 5.86513 31.3511 5.9282 31.3326 5.9876C31.1911 6.53298 31.0907 7.08945 30.9075 7.62299C30.8745 7.71845 30.862 7.87533 30.7301 7.86053C30.5982 7.84573 30.6224 7.68589 30.5931 7.58599ZM30.5813 5.64276C30.3285 6.3243 30.228 7.03765 30.1701 7.75915C30.1557 7.94562 30.2117 8.1307 30.327 8.27715C30.563 8.57907 30.5535 8.91724 30.489 9.25838C30.3651 9.90884 30.3182 10.5682 30.2449 11.2238C30.2156 11.4872 30.091 11.5568 29.8586 11.5398C29.7795 11.5339 29.6615 11.5013 29.6336 11.6049C29.6058 11.7085 29.7267 11.7529 29.7934 11.7781C30.1797 11.9327 30.2332 12.2346 30.2405 12.6113C30.261 13.372 30.3504 14.1305 30.3761 14.8912C30.3966 15.5054 30.478 16.1174 30.4575 16.7331C30.4534 16.8563 30.4672 16.9795 30.4985 17.0986C30.5843 17.4176 30.5953 17.7328 30.3439 17.9933C30.2368 18.1036 30.2552 18.1761 30.3952 18.2153C30.6451 18.2826 30.6883 18.4513 30.6883 18.6904C30.7017 19.1942 30.6502 19.6977 30.5352 20.1881C30.4824 20.3894 30.4252 20.6033 30.1599 20.624C30.0287 20.6343 30.0243 20.7113 30.0749 20.8008C30.3182 21.2278 30.1548 21.6578 30.0829 22.0855C30.0557 22.1964 30.0199 22.305 29.9759 22.4103C29.7648 22.2364 29.7714 21.9826 29.7348 21.7702C29.6006 20.9858 29.5149 20.1933 29.3852 19.4074C29.3119 18.9738 29.2107 18.5453 29.1088 18.1169C28.9945 17.6388 29.0194 17.1364 28.8765 16.668C28.5833 15.6986 28.3114 14.7203 27.8899 13.7938C27.631 13.2397 27.4106 12.668 27.2303 12.0829C27.1849 11.9305 27.0727 11.7189 27.3989 11.7374C27.4788 11.7418 27.4634 11.6922 27.4319 11.6471C27.4066 11.6048 27.3766 11.5655 27.3424 11.5302C26.976 11.2068 27.0045 10.8109 27.1108 10.3832C27.3432 9.44782 27.5242 8.49767 27.791 7.57119C28.0182 6.78532 28.3151 6.0172 28.9205 5.4252C29.3207 5.03449 29.7927 4.90055 30.3299 5.07075C30.6554 5.17435 30.7037 5.32012 30.5828 5.64424L30.5813 5.64276ZM27.3835 13.7457C27.5425 14.3377 27.7822 14.9119 27.6092 15.5432C27.5667 15.6986 27.6415 15.6845 27.7661 15.6771C28.0725 15.6579 28.244 15.7866 28.34 16.0797C28.4499 16.4229 28.4361 16.7943 28.3011 17.1282C28.2278 17.3162 28.104 17.4701 28.4155 17.5597C28.5437 17.5967 28.5862 17.7654 28.6097 17.8986C28.6977 18.3936 28.8039 18.8879 28.8501 19.3882C28.9762 20.749 29.2899 22.0758 29.5442 23.4123C29.7868 24.6814 30.2647 25.8809 30.758 27.0708C31.1757 28.0787 31.5899 29.0873 31.8706 30.1462C32.13 31.126 32.1696 32.0947 31.8918 33.0862C31.6954 33.7863 31.4279 34.4545 31.1589 35.1257C30.6231 36.471 29.9722 37.7638 29.3998 39.0913C29.0201 39.9682 28.6617 40.8547 28.2733 41.7272C27.7734 42.8505 27.3285 43.993 27.091 45.2052C26.9086 46.1705 26.7755 47.1446 26.6923 48.1237C26.5772 49.344 26.5355 50.5694 26.5039 51.7933C26.169 51.7933 26.0297 51.7526 25.6779 51.7549C25.4629 51.7591 25.2479 51.7522 25.0337 51.7341C24.6672 51.7023 24.2729 51.729 23.9452 51.6705C23.6022 51.6106 23.2541 51.5965 22.9044 51.5662C22.2704 51.5158 21.6035 51.4996 20.968 51.4996C19.2778 51.4996 17.584 51.4707 15.896 51.5329C15.1279 51.561 14.3641 51.6017 13.5967 51.6365C13.2493 51.652 12.8909 51.6483 12.5457 51.6772C12.4724 51.6831 12.3075 51.6846 12.1653 51.6942C12.0693 51.2502 11.952 50.8158 11.9286 50.3622C11.9212 50.2209 11.8714 50.0307 12.0297 49.9633C12.2796 49.8575 12.1858 49.7576 12.0678 49.6281C11.4895 48.9954 10.9296 48.3442 10.3307 47.7315C9.4407 46.835 8.7289 45.7747 8.23378 44.608C7.79401 43.5564 7.4847 42.4561 7.13435 41.3705C7.06359 41.1234 7.00827 40.872 6.96871 40.6179C6.95332 40.5373 6.93646 40.4277 7.01488 40.3789C7.10723 40.3212 7.20398 40.3722 7.27728 40.4477C7.41361 40.5883 7.55214 40.7274 7.68407 40.8732C8.09823 41.3147 8.56905 41.6982 9.08399 42.0136C9.01975 41.92 8.94606 41.8335 8.86411 41.7553C8.23231 41.2669 7.80061 40.6157 7.37623 39.9512C6.69679 38.8886 6.24969 37.7194 5.79013 36.5546C5.10189 34.8082 4.40926 33.0648 3.518 31.4079C3.11854 30.6628 2.73008 29.9094 2.52778 29.0747C2.27858 28.0521 2.58422 27.2018 3.42931 26.5906C3.74875 26.3638 4.09842 26.1839 4.46789 26.0563C4.23995 26.006 4.09776 26.1155 3.94237 26.1725C3.78699 26.2294 3.65799 26.3101 3.49747 26.3286C3.31717 26.3501 3.25414 26.2849 3.28858 26.097C3.32042 25.9783 3.37332 25.8665 3.4447 25.7669C3.56889 25.5707 3.67022 25.3606 3.74668 25.1409C3.93578 24.5326 4.34916 24.1449 4.93625 23.934C5.14294 23.86 5.3489 23.786 5.55559 23.712C5.86416 23.6032 6.01954 23.3664 6.08258 23.0586C6.13811 22.832 6.14758 22.5963 6.11043 22.3659C6.05718 22.0643 5.98047 21.7674 5.88102 21.4779C5.76961 21.1634 5.85756 21.0598 6.19472 21.0413C6.64035 21.0162 7.00096 21.2049 7.31832 21.4913C7.94793 22.0633 8.34079 22.8055 8.67208 23.5714C9.14556 24.6644 9.16388 25.8409 9.19394 27.0101C9.19833 27.1988 9.10818 27.2418 8.9462 27.2321C8.85385 27.2277 8.77176 27.1826 8.62004 27.1359C9.12357 27.7494 9.42994 28.4087 9.85579 28.9911C10.5887 29.9894 11.2572 31.0313 12.0458 31.9874C12.4314 32.4543 12.8814 32.7962 13.4846 32.9301C14.326 33.1173 15.1594 33.3386 15.9979 33.5369C16.6377 33.6886 17.2769 33.8433 17.9219 33.9654C18.2385 34.0253 18.5625 34.1089 18.893 34.0357C17.5004 33.7663 16.1496 33.3697 14.7885 32.996C14.6566 32.9704 14.53 32.9223 14.414 32.8539C14.2564 32.7451 14.2601 32.643 14.4308 32.566C14.5544 32.5139 14.6813 32.4699 14.8105 32.4343C16.1987 32.0133 17.6294 32.0295 19.0535 32.0747C20.0672 32.1065 21.0779 32.2493 22.0916 32.3433C22.0909 32.3233 22.0831 32.3043 22.0696 32.2896C22.0562 32.275 22.038 32.2657 22.0183 32.2634C21.248 32.0414 20.4916 31.7565 19.6773 31.7269C19.497 31.7202 19.3702 31.6603 19.4039 31.4353C19.5131 30.7027 19.8305 30.0604 20.2438 29.461C20.3523 29.3026 20.4974 29.2841 20.647 29.4203L21.1512 29.8798C20.9792 29.5703 20.8651 29.2314 20.8148 28.8801C20.7496 28.442 20.9387 28.2274 21.377 28.223C21.5478 28.223 21.7185 28.2371 21.89 28.2371C22.0459 28.2351 22.2018 28.245 22.3562 28.2667C21.1021 27.7235 19.9917 27.0087 19.0953 25.9616C18.4423 25.2001 18.2854 24.3676 18.6079 23.4271C18.6372 23.342 18.7266 23.2628 18.6424 23.1444C17.6837 23.8777 16.615 23.8015 15.5405 23.5233C14.4909 23.2517 13.4084 23.0142 12.8037 21.9049C12.7473 22.1728 12.8433 22.3711 12.8572 22.579C12.8697 22.7655 12.8125 22.8861 12.6373 22.949C11.7365 23.2598 10.824 23.5285 9.86165 23.504C9.38963 23.4922 8.9396 23.3398 8.64789 22.9283C8.36424 22.5287 8.11797 22.1032 7.84825 21.6933C7.71632 21.4927 7.8138 21.3973 7.99483 21.341C8.12237 21.2981 8.25723 21.2759 8.37963 21.2234C9.05907 20.9318 9.72166 20.621 10.0002 19.8433C10.027 19.7743 10.0685 19.712 10.1216 19.6609C10.1748 19.6097 10.2384 19.571 10.308 19.5473C11.0004 19.2794 11.6908 19.0063 12.3793 18.7281C12.4599 18.6955 12.5567 18.6304 12.6197 18.6741C12.814 18.8073 12.9562 18.6918 13.1115 18.6067C13.2547 18.5351 13.4155 18.5076 13.574 18.5276C14.447 18.6016 15.3199 18.6822 16.1936 18.7451C17.4315 18.8332 18.6709 18.9153 19.9045 19.0574C20.3267 19.1055 20.7591 19.1314 21.163 19.2668C21.7647 19.474 22.1891 19.8381 21.7757 20.5211C21.7757 20.5256 21.7867 20.5396 21.8036 20.5685C21.9589 20.4826 22.1158 20.3961 22.2712 20.3087C22.6274 20.1089 22.6376 20.1008 22.903 20.4249C23.4094 21.0406 23.8595 21.6992 24.3022 22.3607C24.868 23.2066 25.4133 24.0701 26.0693 24.8471C27.4275 26.4455 28.8127 28.0143 30.1687 29.6075C30.6216 30.1388 31.0321 30.7042 31.2256 31.3998C31.2666 31.5478 31.2183 31.7284 31.3626 31.8616C31.3839 30.9373 31.0196 30.1596 30.5227 29.4307C30.0653 28.7647 29.5273 28.1549 29.0084 27.5363C27.9999 26.336 26.9958 25.1343 26.0502 23.8807C25.0762 22.5901 24.0984 21.3003 23.0115 20.1008C22.8547 19.928 22.7493 19.7141 22.7073 19.4836C22.6017 18.9449 22.6611 18.404 22.6596 17.8645C22.6656 17.7899 22.7004 17.7205 22.7564 17.6714C22.8451 17.5737 23.0664 17.6055 23.0576 17.4723C23.051 17.3695 22.8825 17.2829 22.7967 17.1763C22.7442 17.1082 22.7006 17.0336 22.667 16.9543C22.5123 16.6302 22.4368 16.2817 22.3665 15.9324C22.0681 14.4524 21.764 12.9724 21.5976 11.4724C21.5566 11.1025 21.5712 10.7325 21.558 10.3669C21.558 10.3062 21.5536 10.2189 21.6123 10.2019C21.8321 10.1501 21.7625 10.0931 21.6328 10.0043C21.5595 9.95324 21.5675 9.8563 21.5507 9.76898C21.3865 8.92834 21.2172 8.08845 21.0501 7.24781C20.9145 6.5611 20.7738 5.87364 20.8258 5.16694C20.9167 3.92523 21.7215 3.17414 22.8693 3.05352C23.1991 3.018 23.2071 3.05352 23.2797 3.37024C23.4263 4.01477 23.5274 4.67189 23.7818 5.2883C23.9467 5.68642 24.1343 6.05568 24.6335 6.08824C24.7742 6.09786 24.7925 6.1911 24.8211 6.31024C25.1255 7.5871 25.5091 8.84338 25.9696 10.0716C26.427 11.2993 27.0375 12.467 27.3805 13.7391L27.3835 13.7457ZM24.5015 5.54212C24.451 5.57468 24.4055 5.54212 24.3689 5.51252C24.2779 5.44999 24.2026 5.36688 24.149 5.2698C23.795 4.59049 23.6843 3.83273 23.4754 3.10754C23.4285 2.94622 23.5582 2.87666 23.7305 2.94178C23.8499 2.98618 23.8917 3.08978 23.9225 3.19338C24.1211 3.87195 24.3139 4.55275 24.5089 5.2328C24.5227 5.29452 24.5328 5.35705 24.5389 5.42002C24.5482 5.4416 24.5494 5.46583 24.5424 5.48826C24.5354 5.51069 24.5206 5.52981 24.5008 5.54212H24.5015ZM9.47172 20.2007C9.44232 20.2949 9.38749 20.3789 9.31341 20.4434C8.88001 20.7744 8.37159 20.9909 7.83432 21.0732C7.69213 21.0732 7.59905 21.0732 7.52722 20.9844C7.42607 20.8549 7.40701 20.752 7.58878 20.6884C7.9428 20.564 8.29828 20.4434 8.65082 20.3184C8.87804 20.2355 9.10085 20.143 9.3244 20.0527C9.36911 20.0342 9.41309 20.0046 9.4578 20.0386C9.5201 20.0853 9.49298 20.1496 9.47172 20.2044V20.2007ZM5.7806 21.9804C5.92719 22.3385 5.90154 22.7041 5.81798 23.063C5.76814 23.2746 5.58271 23.4078 5.38554 23.4796C5.05572 23.601 4.73982 23.7527 4.42392 23.9051C4.03985 24.0901 4.02373 24.0798 4.03106 23.5655C4.12488 22.9986 4.19817 22.323 4.66139 21.7895C5.07477 21.3114 5.53507 21.3973 5.7806 21.9826V21.9804ZM33.8334 13.7176C33.2361 13.0398 31.9761 12.7445 31.2681 13.2351C31.2043 13.2702 31.1385 13.3013 31.0709 13.3284C30.8789 13.4253 30.7939 13.3335 30.7778 13.15C30.755 12.9177 30.7411 12.6846 30.7286 12.4515C30.6861 11.6619 30.7822 10.8827 30.8562 10.0983C30.9603 8.99494 31.101 7.90789 31.4359 6.84896C31.5566 6.48829 31.6418 6.1165 31.6903 5.73896C31.7098 5.61724 31.6939 5.49241 31.6446 5.3796C31.5953 5.26678 31.5147 5.17081 31.4125 5.10331C30.8151 4.65931 30.1489 4.57939 29.4335 4.67855C28.8824 4.75255 28.4397 4.98935 28.1406 5.47404C27.9992 5.70344 27.8328 5.91804 27.7258 6.16742C27.2288 7.30849 26.8704 8.48879 26.7238 9.73124C26.7048 9.89626 26.7385 10.1464 26.5413 10.1604C26.3442 10.1745 26.2782 9.93844 26.2262 9.75936C26.1367 9.45374 26.0503 9.14738 25.9616 8.84176C25.6508 7.77025 25.3239 6.70318 25.0337 5.62648C24.8138 4.79769 24.6342 3.95557 24.4348 3.11938C24.3271 2.6665 24.1211 2.50888 23.663 2.5C23.187 2.50151 22.7144 2.58022 22.2631 2.7331C20.9541 3.1401 20.4205 4.05621 20.3472 5.15141C20.2739 6.2466 20.4938 7.33217 20.7598 8.39407C20.9423 9.1237 21.1182 9.84594 21.0889 10.6074C21.0747 11.1859 21.1209 11.7643 21.2267 12.3331C21.3198 12.8777 21.4466 13.4142 21.5448 13.9566C21.6875 14.8276 21.8905 15.6873 22.1524 16.5296C22.275 16.8662 22.2828 17.2344 22.1744 17.5759C22.0601 17.9193 22.0718 18.2782 22.085 18.6356C22.0967 18.9397 22.0117 19.0056 21.7185 18.9316C21.495 18.8724 21.2986 18.7451 21.0684 18.6955C20.076 18.4817 19.0638 18.4476 18.0633 18.3551C16.6546 18.2249 15.2393 18.1998 13.8247 18.1909C13.2764 18.186 12.7312 18.2748 12.2122 18.4536C11.0395 18.8561 9.89023 19.3334 8.72705 19.7685C7.96772 20.0527 7.24576 20.4686 6.39848 20.4501C6.27593 20.4516 6.15357 20.4602 6.032 20.476C5.022 20.5692 4.30005 21.0524 3.91452 22.03C3.67998 22.622 3.64113 23.2502 3.5715 23.8696C3.51671 24.3823 3.38704 24.8841 3.1867 25.3585C2.92797 25.9697 2.60987 26.5499 2.31083 27.1404C1.95975 27.833 1.9319 28.5582 2.09901 29.2938C2.37313 30.5022 2.94043 31.5937 3.48575 32.6903C3.8896 33.5043 4.31911 34.3006 4.74129 35.102C5.2822 36.1306 5.54313 37.2613 5.914 38.3528C6.06059 38.7813 6.25849 39.1912 6.35377 39.6374C6.6792 41.1463 6.94013 42.6714 7.51329 44.1181C7.91275 45.1252 8.33052 46.1065 9.0129 46.9597C9.36594 47.3822 9.74934 47.778 10.16 48.1437C10.8269 48.7631 11.178 49.5341 11.3451 50.4155C11.4617 51.0289 11.565 51.6468 11.7226 52.2507C11.7842 52.4815 11.889 52.5319 12.1624 52.483C12.1933 52.4782 12.2232 52.4685 12.2511 52.4542C12.6542 52.3062 13.2156 52.2721 13.6143 52.2721C14.3473 52.2721 15.3734 52.2122 16.1064 52.2122C17.098 52.2122 17.8185 52.1804 18.8073 52.1804C19.154 52.1804 19.3936 52.153 19.7425 52.1522C19.9661 52.1522 20.7686 52.1389 20.9885 52.1426C21.4466 52.1402 21.9044 52.1634 22.3599 52.2122C22.8876 52.2669 23.3244 52.2773 23.899 52.3602C24.1864 52.4016 24.6063 52.3816 24.8966 52.3816C25.4221 52.3816 25.974 52.4712 26.4959 52.4712C26.5413 52.4712 26.5963 52.4712 26.6535 52.4778C26.7193 52.4867 26.7858 52.4896 26.8521 52.4867C27.0412 52.4867 27.2134 52.5156 27.2046 52.2159C27.1885 51.6624 27.2237 51.1059 27.2134 50.5531C27.1647 48.4763 27.4191 46.4035 27.9684 44.4015C28.5081 42.4625 29.2287 40.5794 30.1203 38.7776C31.0218 36.9549 31.9409 35.139 32.4313 33.144C32.5867 32.5083 32.6746 31.8741 32.5874 31.2118C32.4643 30.2787 32.1161 29.4159 31.8317 28.5323C31.5833 27.7612 31.2102 27.0383 30.9793 26.259C30.8731 25.9306 30.8751 25.5762 30.9852 25.249C31.303 24.2688 31.5692 23.2724 31.7826 22.2638C32.015 21.2115 32.2158 20.1504 32.6211 19.1418C32.7819 18.7143 32.8935 18.2696 32.9539 17.8164C33.0908 16.8805 33.3391 15.9647 33.6934 15.0888C33.796 14.8417 33.8495 14.5708 33.9514 14.3251C34.0533 14.0795 33.9866 13.8982 33.829 13.7198" fill="black"/>
<path d="M33.8334 13.7176C33.2361 13.0398 31.9761 12.7445 31.2681 13.2351C31.2043 13.2702 31.1385 13.3013 31.0709 13.3284C30.8789 13.4253 30.7939 13.3335 30.7778 13.15C30.755 12.9177 30.7411 12.6846 30.7286 12.4515C30.6861 11.6619 30.7822 10.8827 30.8562 10.0983C30.9603 8.99494 31.101 7.90789 31.4359 6.84896C31.5566 6.48829 31.6418 6.1165 31.6903 5.73896C31.7098 5.61724 31.6939 5.49241 31.6446 5.3796C31.5953 5.26678 31.5147 5.17081 31.4125 5.10331C30.8151 4.65931 30.1489 4.57939 29.4335 4.67855C28.8824 4.75255 28.4397 4.98935 28.1406 5.47404C27.9992 5.70344 27.8328 5.91804 27.7258 6.16742C27.2288 7.30849 26.8704 8.48879 26.7238 9.73124C26.7048 9.89626 26.7385 10.1464 26.5413 10.1604C26.3442 10.1745 26.2782 9.93844 26.2262 9.75936C26.1367 9.45374 26.0503 9.14738 25.9616 8.84176C25.6508 7.77025 25.3239 6.70318 25.0337 5.62648C24.8138 4.79769 24.6342 3.95557 24.4348 3.11938C24.3271 2.6665 24.1211 2.50888 23.663 2.5C23.187 2.50151 22.7144 2.58022 22.2631 2.7331C20.9541 3.1401 20.4205 4.05621 20.3472 5.15141C20.2739 6.2466 20.4938 7.33217 20.7598 8.39407C20.9423 9.1237 21.1182 9.84594 21.0889 10.6074C21.0747 11.1859 21.1209 11.7643 21.2267 12.3331C21.3198 12.8777 21.4466 13.4142 21.5448 13.9566C21.6874 14.8276 21.8905 15.6873 22.1524 16.5296C22.275 16.8662 22.2828 17.2344 22.1744 17.5759C22.0601 17.9193 22.0718 18.2782 22.085 18.6356C22.0967 18.9397 22.0117 19.0056 21.7185 18.9316C21.495 18.8724 21.2986 18.7451 21.0684 18.6955C20.076 18.4817 19.0638 18.4476 18.0633 18.3551C16.6546 18.2249 15.2393 18.1998 13.8247 18.1909C13.2764 18.186 12.7312 18.2748 12.2122 18.4536C11.0395 18.8561 9.89024 19.3334 8.72705 19.7685C7.96772 20.0527 7.24576 20.4686 6.39848 20.4501C6.27593 20.4516 6.15357 20.4602 6.032 20.476C5.022 20.5692 4.30005 21.0524 3.91452 22.03C3.67998 22.622 3.64113 23.2502 3.5715 23.8696C3.51671 24.3823 3.38704 24.8841 3.1867 25.3585C2.92797 25.9697 2.60987 26.5499 2.31083 27.1404C1.95975 27.833 1.9319 28.5582 2.09901 29.2938C2.37313 30.5022 2.94043 31.5937 3.48575 32.6903C3.8896 33.5043 4.31911 34.3006 4.74129 35.102C5.2822 36.1306 5.54313 37.2613 5.914 38.3528C6.06059 38.7813 6.25849 39.1912 6.35377 39.6374C6.6792 41.1463 6.94013 42.6714 7.51329 44.1181C7.91275 45.1252 8.33052 46.1065 9.0129 46.9597C9.36594 47.3822 9.74934 47.778 10.16 48.1437C10.8269 48.7631 11.178 49.5341 11.3451 50.4155C11.4617 51.0289 11.565 51.6468 11.7226 52.2507C11.7842 52.4815 11.889 52.5319 12.1624 52.483C12.1933 52.4782 12.2232 52.4685 12.2511 52.4542C12.6542 52.3062 13.2156 52.2721 13.6143 52.2721C14.3473 52.2721 15.3734 52.2122 16.1064 52.2122C17.098 52.2122 17.8185 52.1804 18.8073 52.1804C19.154 52.1804 19.3936 52.153 19.7425 52.1522C19.9661 52.1522 20.7686 52.1389 20.9885 52.1426C21.4466 52.1402 21.9044 52.1634 22.3599 52.2122C22.8876 52.2669 23.3244 52.2773 23.899 52.3602C24.1864 52.4016 24.6063 52.3816 24.8966 52.3816C25.4221 52.3816 25.974 52.4712 26.4959 52.4712C26.5413 52.4712 26.5963 52.4712 26.6535 52.4778C26.7193 52.4867 26.7858 52.4896 26.8521 52.4867C27.0412 52.4867 27.2134 52.5156 27.2046 52.2159C27.1885 51.6624 27.2237 51.1059 27.2134 50.5531C27.1647 48.4763 27.4191 46.4035 27.9684 44.4015C28.5081 42.4625 29.2287 40.5794 30.1203 38.7776C31.0218 36.9549 31.9409 35.139 32.4313 33.144C32.5867 32.5083 32.6746 31.8741 32.5874 31.2118C32.4643 30.2787 32.1161 29.4159 31.8317 28.5323C31.5833 27.7612 31.2102 27.0383 30.9793 26.259C30.8731 25.9306 30.8751 25.5762 30.9852 25.249C31.303 24.2688 31.5692 23.2724 31.7826 22.2638C32.015 21.2115 32.2158 20.1504 32.6211 19.1418C32.7819 18.7143 32.8935 18.2696 32.9539 17.8164C33.0908 16.8805 33.3391 15.9647 33.6934 15.0888C33.796 14.8417 33.8495 14.5708 33.9514 14.3251C34.0533 14.0795 33.9866 13.8982 33.829 13.7198M33.6187 14.2541C33.4992 14.6241 33.4134 15.0111 33.2522 15.3707C33.2339 15.4129 33.2302 15.4795 33.1686 15.4721C33.1071 15.4647 33.1195 15.4026 33.121 15.3567C33.1225 15.3108 33.1283 15.2827 33.1327 15.2464C33.1547 14.8764 33.2646 14.5227 33.3636 14.1675C33.3885 14.0787 33.4318 14.0025 33.5439 14.041C33.656 14.0795 33.6465 14.169 33.6172 14.2541H33.6187ZM32.9737 14.0898C32.8674 14.391 32.8505 14.7092 32.764 15.0148C32.657 15.3944 32.6175 15.7874 32.8373 16.1544C32.9106 16.2809 32.893 16.4208 32.8586 16.5473C32.6277 17.4102 32.5046 18.3078 32.1513 19.1299C31.7702 20.0179 31.7922 20.971 31.5649 21.8805C31.4748 22.2505 31.4249 22.6264 31.2718 22.9772C31.1801 23.1918 31.0724 23.4019 30.8496 23.504C30.7177 23.5655 30.7096 23.6402 30.8027 23.7209C30.9302 23.8319 30.876 23.9347 30.821 24.0465C30.7272 24.2433 30.6238 24.4357 30.5432 24.6385C30.4699 24.8183 30.4149 24.7398 30.3673 24.6385C30.2662 24.4165 30.3013 24.1804 30.294 24.0006C30.294 22.9816 30.5139 22.0492 30.7631 21.1272C30.8452 20.8267 31.0145 20.547 31.1061 20.2392C31.2879 19.6324 31.3561 19.0197 31.2278 18.3892C31.1824 18.1124 31.1635 17.8319 31.1713 17.5515C31.1648 16.5533 31.0306 15.5646 31.0057 14.5679C30.9932 14.0772 31.2168 13.8182 31.6162 13.6325C32.078 13.4186 32.5119 13.4682 32.926 13.7509C33.0594 13.8427 33.0052 13.987 32.9685 14.0898H32.9737ZM30.5931 7.58599C30.5788 7.5214 30.5725 7.4553 30.574 7.38915C30.5681 7.07909 30.6392 6.8423 30.7001 6.60476C30.7792 6.29618 30.851 5.98464 30.9485 5.68198C31.0116 5.48662 31.1406 5.47922 31.2688 5.6361C31.307 5.68503 31.3327 5.74262 31.3439 5.80387C31.355 5.86513 31.3511 5.9282 31.3326 5.9876C31.1911 6.53298 31.0907 7.08945 30.9075 7.62299C30.8745 7.71845 30.862 7.87533 30.7301 7.86053C30.5982 7.84573 30.6224 7.68589 30.5931 7.58599ZM30.5813 5.64276C30.3285 6.3243 30.228 7.03765 30.1701 7.75915C30.1557 7.94562 30.2117 8.1307 30.327 8.27715C30.563 8.57907 30.5535 8.91724 30.489 9.25838C30.3651 9.90884 30.3182 10.5682 30.2449 11.2238C30.2156 11.4872 30.091 11.5568 29.8586 11.5398C29.7795 11.5339 29.6615 11.5013 29.6336 11.6049C29.6058 11.7085 29.7267 11.7529 29.7934 11.7781C30.1797 11.9327 30.2332 12.2346 30.2405 12.6113C30.261 13.372 30.3504 14.1305 30.3761 14.8912C30.3966 15.5054 30.478 16.1174 30.4575 16.7331C30.4534 16.8563 30.4672 16.9795 30.4985 17.0986C30.5843 17.4176 30.5953 17.7328 30.3439 17.9933C30.2368 18.1036 30.2552 18.1761 30.3952 18.2153C30.6451 18.2826 30.6883 18.4513 30.6883 18.6904C30.7017 19.1942 30.6502 19.6977 30.5352 20.1881C30.4824 20.3894 30.4252 20.6033 30.1599 20.624C30.0287 20.6343 30.0243 20.7113 30.0749 20.8008C30.3182 21.2278 30.1548 21.6578 30.0829 22.0855C30.0557 22.1964 30.0199 22.305 29.9759 22.4103C29.7648 22.2364 29.7714 21.9826 29.7348 21.7702C29.6006 20.9858 29.5149 20.1933 29.3852 19.4074C29.3119 18.9738 29.2107 18.5453 29.1088 18.1169C28.9945 17.6388 29.0194 17.1364 28.8765 16.668C28.5833 15.6986 28.3114 14.7203 27.8899 13.7938C27.631 13.2397 27.4106 12.668 27.2303 12.0829C27.1849 11.9305 27.0727 11.7189 27.3989 11.7374C27.4788 11.7418 27.4634 11.6922 27.4319 11.6471C27.4066 11.6048 27.3766 11.5655 27.3424 11.5302C26.976 11.2068 27.0045 10.8109 27.1108 10.3832C27.3432 9.44782 27.5242 8.49767 27.791 7.57119C28.0182 6.78532 28.3151 6.0172 28.9205 5.4252C29.3207 5.03449 29.7927 4.90055 30.3299 5.07075C30.6554 5.17434 30.7037 5.32012 30.5828 5.64424L30.5813 5.64276ZM27.3835 13.7457C27.5425 14.3377 27.7822 14.9119 27.6092 15.5432C27.5667 15.6986 27.6415 15.6845 27.7661 15.6771C28.0724 15.6579 28.244 15.7866 28.34 16.0797C28.4499 16.4229 28.4361 16.7943 28.3011 17.1282C28.2278 17.3162 28.104 17.4701 28.4155 17.5597C28.5437 17.5967 28.5862 17.7654 28.6097 17.8986C28.6977 18.3936 28.8039 18.8879 28.8501 19.3882C28.9762 20.749 29.2899 22.0758 29.5442 23.4123C29.7868 24.6814 30.2647 25.8809 30.758 27.0708C31.1757 28.0787 31.5899 29.0873 31.8706 30.1462C32.13 31.126 32.1696 32.0947 31.8918 33.0862C31.6954 33.7863 31.4279 34.4545 31.1589 35.1257C30.6231 36.471 29.9722 37.7638 29.3998 39.0913C29.0201 39.9682 28.6617 40.8547 28.2733 41.7272C27.7734 42.8505 27.3285 43.993 27.091 45.2052C26.9086 46.1705 26.7755 47.1446 26.6923 48.1237C26.5772 49.344 26.5355 50.5694 26.5039 51.7933C26.169 51.7933 26.0297 51.7526 25.6779 51.7549C25.4629 51.7591 25.2479 51.7522 25.0337 51.7341C24.6672 51.7023 24.2729 51.729 23.9452 51.6705C23.6022 51.6106 23.2541 51.5965 22.9044 51.5662C22.2704 51.5158 21.6035 51.4996 20.968 51.4996C19.2778 51.4996 17.584 51.4707 15.896 51.5329C15.1279 51.561 14.3641 51.6017 13.5967 51.6365C13.2493 51.652 12.8909 51.6483 12.5457 51.6772C12.4724 51.6831 12.3075 51.6846 12.1653 51.6942C12.0693 51.2502 11.952 50.8158 11.9286 50.3622C11.9212 50.2209 11.8714 50.0307 12.0297 49.9633C12.2796 49.8575 12.1858 49.7576 12.0678 49.6281C11.4895 48.9954 10.9296 48.3442 10.3307 47.7315C9.4407 46.835 8.7289 45.7747 8.23378 44.608C7.79401 43.5565 7.4847 42.4561 7.13435 41.3705C7.06359 41.1234 7.00827 40.872 6.96871 40.6179C6.95332 40.5373 6.93646 40.4277 7.01488 40.3789C7.10723 40.3212 7.20398 40.3722 7.27728 40.4477C7.41361 40.5883 7.55214 40.7274 7.68407 40.8732C8.09823 41.3147 8.56905 41.6982 9.08399 42.0136C9.01975 41.92 8.94606 41.8335 8.86411 41.7553C8.23231 41.2669 7.80061 40.6157 7.37623 39.9512C6.69679 38.8886 6.24969 37.7194 5.79013 36.5546C5.10189 34.8082 4.40926 33.0648 3.518 31.4079C3.11854 30.6628 2.73008 29.9094 2.52778 29.0747C2.27858 28.0521 2.58422 27.2018 3.42931 26.5906C3.74875 26.3638 4.09842 26.1839 4.46789 26.0563C4.23995 26.006 4.09776 26.1155 3.94237 26.1725C3.78699 26.2294 3.65799 26.3101 3.49747 26.3286C3.31717 26.3501 3.25414 26.2849 3.28858 26.097C3.32042 25.9783 3.37332 25.8665 3.4447 25.7669C3.56889 25.5707 3.67022 25.3606 3.74668 25.1409C3.93578 24.5326 4.34916 24.1449 4.93625 23.934C5.14294 23.86 5.3489 23.786 5.55559 23.712C5.86416 23.6032 6.01954 23.3664 6.08258 23.0586C6.13811 22.832 6.14758 22.5963 6.11043 22.3659C6.05718 22.0643 5.98047 21.7674 5.88102 21.4779C5.76961 21.1634 5.85756 21.0598 6.19472 21.0413C6.64035 21.0162 7.00096 21.2049 7.31832 21.4913C7.94793 22.0633 8.34079 22.8055 8.67208 23.5714C9.14556 24.6644 9.16388 25.8409 9.19394 27.0101C9.19833 27.1988 9.10818 27.2418 8.9462 27.2321C8.85385 27.2277 8.77176 27.1826 8.62004 27.1359C9.12357 27.7494 9.42994 28.4087 9.85579 28.9911C10.5887 29.9894 11.2572 31.0313 12.0458 31.9874C12.4314 32.4543 12.8814 32.7962 13.4846 32.9301C14.326 33.1173 15.1594 33.3386 15.9979 33.5369C16.6377 33.6886 17.2769 33.8433 17.9219 33.9654C18.2385 34.0253 18.5625 34.1089 18.893 34.0357C17.5004 33.7663 16.1496 33.3697 14.7885 32.996C14.6566 32.9704 14.53 32.9223 14.414 32.8539C14.2564 32.7451 14.2601 32.643 14.4308 32.566C14.5544 32.5139 14.6813 32.4699 14.8105 32.4343C16.1987 32.0133 17.6294 32.0295 19.0535 32.0747C20.0672 32.1065 21.0779 32.2493 22.0916 32.3433C22.0909 32.3233 22.0831 32.3043 22.0696 32.2896C22.0562 32.275 22.038 32.2657 22.0183 32.2634C21.248 32.0414 20.4916 31.7565 19.6773 31.7269C19.497 31.7202 19.3702 31.6603 19.4039 31.4353C19.5131 30.7027 19.8305 30.0604 20.2438 29.461C20.3523 29.3026 20.4974 29.2841 20.647 29.4203L21.1512 29.8798C20.9792 29.5703 20.8651 29.2314 20.8148 28.8801C20.7496 28.442 20.9387 28.2274 21.377 28.223C21.5478 28.223 21.7185 28.2371 21.89 28.2371C22.0459 28.2351 22.2018 28.245 22.3562 28.2667C21.1021 27.7235 19.9917 27.0087 19.0953 25.9616C18.4423 25.2001 18.2854 24.3676 18.6079 23.4271C18.6372 23.342 18.7266 23.2628 18.6424 23.1444C17.6837 23.8777 16.615 23.8015 15.5405 23.5233C14.4909 23.2517 13.4084 23.0142 12.8037 21.9049C12.7473 22.1728 12.8433 22.3711 12.8572 22.579C12.8697 22.7655 12.8125 22.8861 12.6373 22.949C11.7365 23.2598 10.824 23.5285 9.86165 23.504C9.38963 23.4922 8.9396 23.3398 8.64789 22.9283C8.36424 22.5287 8.11797 22.1032 7.84825 21.6933C7.71632 21.4927 7.8138 21.3973 7.99484 21.341C8.12237 21.2981 8.25723 21.2759 8.37963 21.2234C9.05907 20.9318 9.72166 20.621 10.0002 19.8433C10.027 19.7743 10.0685 19.712 10.1216 19.6609C10.1748 19.6097 10.2384 19.571 10.308 19.5473C11.0004 19.2794 11.6908 19.0063 12.3793 18.7281C12.4599 18.6955 12.5567 18.6304 12.6197 18.6741C12.814 18.8073 12.9562 18.6918 13.1115 18.6067C13.2547 18.5351 13.4155 18.5076 13.574 18.5276C14.447 18.6016 15.3199 18.6822 16.1936 18.7451C17.4315 18.8332 18.6709 18.9153 19.9045 19.0574C20.3267 19.1055 20.7591 19.1314 21.163 19.2668C21.7647 19.474 22.1891 19.8381 21.7757 20.5211C21.7757 20.5256 21.7867 20.5396 21.8036 20.5685C21.9589 20.4826 22.1158 20.3961 22.2712 20.3087C22.6274 20.1089 22.6376 20.1008 22.903 20.4249C23.4094 21.0406 23.8595 21.6992 24.3022 22.3607C24.868 23.2066 25.4133 24.0701 26.0693 24.8471C27.4275 26.4455 28.8127 28.0143 30.1687 29.6075C30.6216 30.1388 31.0321 30.7042 31.2256 31.3998C31.2666 31.5478 31.2183 31.7284 31.3626 31.8616C31.3839 30.9373 31.0196 30.1596 30.5227 29.4307C30.0653 28.7647 29.5273 28.1549 29.0084 27.5363C27.9999 26.336 26.9958 25.1343 26.0502 23.8807C25.0762 22.5901 24.0984 21.3003 23.0115 20.1008C22.8547 19.928 22.7493 19.7141 22.7073 19.4836C22.6017 18.9449 22.6611 18.404 22.6596 17.8645C22.6656 17.7899 22.7004 17.7205 22.7564 17.6714C22.8451 17.5737 23.0664 17.6055 23.0576 17.4723C23.051 17.3695 22.8825 17.2829 22.7967 17.1763C22.7442 17.1082 22.7006 17.0336 22.667 16.9543C22.5123 16.6302 22.4368 16.2817 22.3665 15.9324C22.0681 14.4524 21.764 12.9724 21.5976 11.4724C21.5566 11.1025 21.5712 10.7325 21.558 10.3669C21.558 10.3062 21.5536 10.2189 21.6123 10.2019C21.8321 10.1501 21.7625 10.0931 21.6328 10.0043C21.5595 9.95324 21.5675 9.8563 21.5507 9.76898C21.3865 8.92834 21.2172 8.08845 21.0501 7.24781C20.9145 6.5611 20.7738 5.87364 20.8258 5.16694C20.9167 3.92523 21.7215 3.17414 22.8693 3.05352C23.1991 3.018 23.2071 3.05352 23.2797 3.37024C23.4263 4.01477 23.5274 4.67189 23.7818 5.2883C23.9467 5.68642 24.1343 6.05568 24.6335 6.08824C24.7742 6.09786 24.7925 6.1911 24.8211 6.31024C25.1255 7.5871 25.5091 8.84338 25.9696 10.0716C26.427 11.2993 27.0375 12.467 27.3805 13.7391L27.3835 13.7457ZM24.5015 5.54212C24.451 5.57468 24.4055 5.54212 24.3689 5.51252C24.2779 5.44999 24.2026 5.36688 24.149 5.2698C23.795 4.59049 23.6843 3.83273 23.4754 3.10754C23.4285 2.94622 23.5582 2.87666 23.7305 2.94178C23.8499 2.98618 23.8917 3.08978 23.9225 3.19338C24.1211 3.87195 24.3139 4.55275 24.5089 5.2328C24.5227 5.29452 24.5328 5.35705 24.5389 5.42002C24.5482 5.4416 24.5494 5.46583 24.5424 5.48826C24.5354 5.51069 24.5206 5.52981 24.5008 5.54212H24.5015ZM9.47172 20.2007C9.44232 20.2949 9.38749 20.3789 9.31341 20.4434C8.88001 20.7744 8.37159 20.9909 7.83432 21.0732C7.69213 21.0732 7.59905 21.0732 7.52722 20.9844C7.42607 20.8549 7.40701 20.752 7.58878 20.6884C7.9428 20.564 8.29828 20.4434 8.65082 20.3184C8.87804 20.2355 9.10085 20.143 9.3244 20.0527C9.36911 20.0342 9.41309 20.0046 9.4578 20.0386C9.5201 20.0853 9.49298 20.1496 9.47172 20.2044V20.2007ZM5.7806 21.9804C5.92719 22.3385 5.90154 22.7041 5.81798 23.063C5.76814 23.2746 5.58271 23.4078 5.38554 23.4796C5.05572 23.601 4.73982 23.7527 4.42392 23.9051C4.03985 24.0901 4.02373 24.0798 4.03106 23.5655C4.12488 22.9986 4.19817 22.323 4.66139 21.7895C5.07477 21.3114 5.53507 21.3973 5.7806 21.9826V21.9804Z" stroke="black" stroke-width="0.25" stroke-miterlimit="10"/>
<path d="M54.9 39H59.1L56.52 18H50.73L48.12 39H51.9L52.2 36.27H54.57L54.9 39ZM53.37 21.09C53.55 24.42 53.82 28.14 54.18 32.55H52.56C52.92 28.14 53.19 24.42 53.37 21.09ZM65.91 39H70.53V18H66.9V25.11C66.9 26.55 66.96 27.93 66.99 29.43C66.81 27.96 66.66 26.55 66.39 25.11L65.04 18H60V39H63.6V30.87C63.6 29.4 63.54 28.05 63.51 26.55C63.69 28.02 63.9 29.4 64.2 30.87L65.91 39ZM72.071 39H78.221C81.521 39 82.361 37.95 82.361 34.35V22.65C82.361 19.05 81.521 18 78.221 18H72.071V39ZM76.271 35.04V21.96H77.381C78.071 21.96 78.161 22.26 78.161 23.16V33.84C78.161 34.74 78.071 35.04 77.381 35.04H76.271ZM90.2768 39V32.73L93.6068 18H89.8268L89.1968 21.3C88.9268 22.74 88.6268 25.05 88.4168 27.57C88.2068 25.05 87.9068 22.74 87.6368 21.3L87.0068 18H82.7768L86.0768 32.73V39H90.2768ZM99.6216 33.99C99.6216 34.89 99.5316 35.19 98.8416 35.19H98.5716C97.8816 35.19 97.7916 34.89 97.7916 33.99V31.35H93.8616V34.5C93.8616 38.1 94.7316 39.15 98.0016 39.15H99.6816C102.952 39.15 103.822 38.1 103.822 34.5V33.21C103.822 30.12 102.802 28.95 100.642 27.15C98.6916 25.53 98.0316 24.96 98.0316 23.31V22.92C98.0316 22.11 98.1216 21.81 98.8416 21.81H99.0816C99.7716 21.81 99.8916 22.11 99.8916 23.01V25.05H103.822V22.5C103.822 18.9 102.982 17.85 99.6816 17.85H98.0316C94.7316 17.85 93.8616 18.9 93.8616 22.5V23.34C93.8616 26.43 94.8816 27.6 97.0116 29.4C98.9916 31.02 99.6216 31.56 99.6216 33.24V33.99ZM114.958 29.7C115.138 28.5 115.348 26.55 115.558 24.99C115.528 26.49 115.498 28.29 115.498 29.7V39H119.608V18H113.578L112.558 26.13C112.408 27.24 112.348 28.47 112.258 29.7C112.168 28.47 112.108 27.24 111.958 26.13L110.938 18H105.088V39H108.748V29.7C108.748 28.29 108.718 26.55 108.688 25.08C108.868 26.61 109.078 28.47 109.258 29.7L110.608 39H113.578L114.958 29.7ZM127.263 39H131.463L128.883 18H123.093L120.483 39H124.263L124.563 36.27H126.933L127.263 39ZM125.733 21.09C125.913 24.42 126.183 28.14 126.543 32.55H124.923C125.283 28.14 125.553 24.42 125.733 21.09ZM138.273 39H142.893V18H139.263V25.11C139.263 26.55 139.323 27.93 139.353 29.43C139.173 27.96 139.023 26.55 138.753 25.11L137.403 18H132.363V39H135.963V30.87C135.963 29.4 135.903 28.05 135.873 26.55C136.053 28.02 136.263 29.4 136.563 30.87L138.273 39ZM148.484 23.01C148.484 22.11 148.574 21.81 149.294 21.81H149.594C150.314 21.81 150.404 22.11 150.404 23.01V26.07H154.334V22.5C154.334 18.9 153.494 17.85 150.194 17.85H148.454C145.154 17.85 144.284 18.9 144.284 22.5V34.5C144.284 38.1 145.154 39.15 148.454 39.15H150.194C153.494 39.15 154.334 38.1 154.334 34.5V30.03H150.404V33.99C150.404 34.89 150.314 35.19 149.594 35.19H149.294C148.574 35.19 148.484 34.89 148.484 33.99V23.01ZM155.743 39H163.033V35.04H159.943V18H155.743V39ZM168.027 18H163.827V34.5C163.827 38.1 164.697 39.15 167.997 39.15H169.737C173.037 39.15 173.877 38.1 173.877 34.5V18H169.917V33.99C169.917 34.89 169.827 35.19 169.137 35.19H168.807C168.117 35.19 168.027 34.89 168.027 33.99V18ZM175.253 39H181.373C184.703 39 185.543 37.95 185.543 34.35V32.25C185.543 29.7 185.123 28.47 183.683 27.99C185.123 27.48 185.543 26.25 185.543 23.7V22.65C185.543 19.05 184.703 18 181.373 18H175.253V39ZM180.563 29.94C181.253 29.94 181.343 30.24 181.343 31.14V33.84C181.343 34.74 181.253 35.04 180.563 35.04H179.453V29.94H180.563ZM181.343 24.81C181.343 25.68 181.253 25.98 180.563 25.98H179.453V21.96H180.563C181.253 21.96 181.343 22.26 181.343 23.16V24.81Z" fill="white"/>
</svg>
