<?xml version="1.0" encoding="utf-8"?>
<!-- Generator: Adobe Illustrator 26.0.1, SVG Export Plug-In . SVG Version: 6.00 Build 0)  -->
<svg version="1.1" id="Layer_1" xmlns="http://www.w3.org/2000/svg" xmlns:xlink="http://www.w3.org/1999/xlink" x="0px" y="0px"
	 viewBox="0 0 139 55" style="enable-background:new 0 0 139 55;" xml:space="preserve" height="55">
<style type="text/css">
	.st0{fill:#FFFFFF;}
	.letters {
		transform: translateX(0px) translateZ(0);
		transition: opacity .3s ease-in-out;
		transition-delay: .3s;
	}
	.letter-1 {
		transition: all .4s ease-in-out;
		transition-delay: 200ms;  
	}
	.letter-2 {
		transition: all .4s ease-in-out;
		transition-delay: 300ms;  
	}
	.letter-3 {
		transition: all .4s ease-in-out;
		transition-delay: 400ms;  
	}
	.letter-4 {
		transition: all .4s ease-in-out;
		transition-delay: 500ms;  
	}
	.letter-5 {
		transition: all .4s ease-in-out;
		transition-delay: 600ms;  
	}
	.letter-6 {
		transition: all .4s ease-in-out;
		transition-delay: 700ms;  
	}
	.letter-7 {
		transition: all .4s ease-in-out;
		transition-delay: 800ms;  
	}
	.letter-8 {
		transition: all .4s ease-in-out;
		transition-delay: 900ms;  
	}
	.letter-9 {
		transition: all .4s ease-in-out;
		transition-delay: 1000ms;  
	}
	.letter-10 {
		transition: all .4s ease-in-out;
		transition-delay: 1100ms;  
	}
	.letter-11 {
		transition: all .4s ease-in-out;
		transition-delay: 1200ms;  
	}
	.letter-12 {
		transition: all .4s ease-in-out;
		transition-delay: 1300ms;  
	}
	.animate .letter-1, .animate .letter-2, .animate .letter-3
	, .animate .letter-4, .animate .letter-5, .animate .letter-6,
	.animate .letter-7, .animate .letter-8, .animate .letter-9
	, .animate .letter-10, .animate .letter-11, .animate .letter-12 {
		opacity: 0;
		transition-delay: 0ms;
	}
	.animate .letters {
		opacity: 0;
		transition-delay: 0ms;
		transition: opacity .3s ease-in-out, transform .3s ease-in-out;
	}
</style>
<g class="letters">
	<path class="st0 letter-1" d="M3.6,17L1,38h3.8l0.3-2.7h2.4L7.8,38H12L9.4,17H3.6z M5.4,31.6c0.4-4.4,0.6-8.1,0.8-11.5
		c0.2,3.3,0.5,7,0.8,11.5H5.4z"/>
	<path class="st0 letter-2" d="M19.8,24.1c0,1.4,0.1,2.8,0.1,4.3c-0.2-1.5-0.3-2.9-0.6-4.3L17.9,17h-5v21h3.6v-8.1c0-1.5-0.1-2.8-0.1-4.3
		c0.2,1.5,0.4,2.8,0.7,4.3l1.7,8.1h4.6V17h-3.6C19.8,17,19.8,24.1,19.8,24.1z"/>
	<path class="st0 letter-3" d="M31.1,17H25v21h6.2c3.3,0,4.1-1.1,4.1-4.7V21.7C35.2,18.1,34.4,17,31.1,17z M31,32.8c0,0.9-0.1,1.2-0.8,1.2
		h-1.1V21h1.1c0.7,0,0.8,0.3,0.8,1.2V32.8z"/>
	<path class="st0 letter-4" d="M42.1,20.3c-0.3,1.4-0.6,3.8-0.8,6.3c-0.2-2.5-0.5-4.8-0.8-6.3L39.9,17h-4.2L39,31.7V38h4.2v-6.3L46.5,17h-3.8
		L42.1,20.3z"/>
	<path class="st0 letter-5" d="M52.6,16.9H51c-3.3,0-4.2,1-4.2,4.7v0.8c0,3.1,1,4.3,3.2,6.1c2,1.6,2.6,2.2,2.6,3.8V33c0,0.9-0.1,1.2-0.8,1.2
		h-0.3c-0.7,0-0.8-0.3-0.8-1.2v-2.6h-3.9v3.2c0,3.6,0.9,4.6,4.1,4.6h1.7c3.3,0,4.1-1,4.1-4.6v-1.3c0-3.1-1-4.3-3.2-6.1
		c-2-1.6-2.6-2.2-2.6-3.8V22c0-0.8,0.1-1.1,0.8-1.1H52c0.7,0,0.8,0.3,0.8,1.2v2h3.9v-2.5C56.7,17.9,55.9,16.9,52.6,16.9z"/>
	<path class="st0 letter-6" d="M65.4,25.1c-0.1,1.1-0.2,2.3-0.3,3.6c-0.1-1.2-0.2-2.5-0.3-3.6l-1-8.1H58v21h3.7v-9.3c0-1.4,0-3.1-0.1-4.6
		c0.2,1.5,0.4,3.4,0.6,4.6l1.3,9.3h3l1.4-9.3c0.2-1.2,0.4-3.1,0.6-4.7c0,1.5-0.1,3.3-0.1,4.7V38h4.1V17h-6L65.4,25.1z"/>
	<path class="st0 letter-7" d="M76,17l-2.6,21h3.8l0.3-2.7h2.4l0.3,2.7h4.2l-2.6-21H76z M77.8,31.6c0.4-4.4,0.6-8.1,0.8-11.5
		c0.2,3.3,0.5,7,0.8,11.5H77.8z"/>
	<path class="st0 letter-8" d="M92.1,24.1c0,1.4,0.1,2.8,0.1,4.3c-0.2-1.5-0.3-2.9-0.6-4.3L90.3,17h-5v21h3.6v-8.1c0-1.5-0.1-2.8-0.1-4.3
		c0.2,1.5,0.4,2.8,0.7,4.3l1.7,8.1h4.6V17h-3.6L92.1,24.1L92.1,24.1z"/>
	<path class="st0 letter-9" d="M103.1,16.9h-1.7c-3.3,0-4.2,1-4.2,4.7v12c0,3.6,0.9,4.6,4.2,4.6h1.7c3.3,0,4.1-1,4.1-4.6V29h-3.9v4
		c0,0.9-0.1,1.2-0.8,1.2h-0.3c-0.7,0-0.8-0.3-0.8-1.2V22c0-0.9,0.1-1.2,0.8-1.2h0.3c0.7,0,0.8,0.3,0.8,1.2v3.1h3.9v-3.6
		C107.2,17.9,106.4,16.9,103.1,16.9z"/>
	<polygon class="st0 letter-10" points="112.8,17 108.6,17 108.6,38 115.9,38 115.9,34 112.8,34 	"/>
	<path class="st0 letter-11" d="M122.8,33c0,0.9-0.1,1.2-0.8,1.2h-0.3c-0.7,0-0.8-0.3-0.8-1.2V17h-4.2v16.5c0,3.6,0.9,4.6,4.2,4.6h1.7
		c3.3,0,4.1-1,4.1-4.6V17h-4v16H122.8z"/>
	<path class="st0 letter-12" d="M138.4,22.7v-1c0-3.6-0.8-4.6-4.2-4.6h-6.1v21h6.1c3.3,0,4.2-1.1,4.2-4.7v-2.1c0-2.6-0.4-3.8-1.9-4.3
		C138,26.5,138.4,25.3,138.4,22.7z M134.2,32.8c0,0.9-0.1,1.2-0.8,1.2h-1.1v-5.1h1.1c0.7,0,0.8,0.3,0.8,1.2V32.8z M134.2,23.8
		c0,0.9-0.1,1.2-0.8,1.2h-1.1v-4h1.1c0.7,0,0.8,0.3,0.8,1.2V23.8z"/>
</g>
</svg>
