<svg width="36" height="54" viewBox="0 0 36 54" fill="none" xmlns="http://www.w3.org/2000/svg">
<path d="M33.8334 13.2176C33.2361 12.5398 31.9761 12.2445 31.2681 12.7351C31.2043 12.7702 31.1385 12.8013 31.0709 12.8284C30.8789 12.9253 30.7939 12.8335 30.7778 12.65C30.755 12.4177 30.7411 12.1846 30.7286 11.9515C30.6861 11.1619 30.7822 10.3827 30.8562 9.59828C30.9603 8.49494 31.101 7.40789 31.4359 6.34896C31.5566 5.98829 31.6418 5.6165 31.6903 5.23896C31.7098 5.11724 31.6939 4.99241 31.6446 4.8796C31.5953 4.76678 31.5147 4.67081 31.4125 4.60331C30.8151 4.15931 30.1489 4.07939 29.4335 4.17855C28.8824 4.25255 28.4397 4.48935 28.1406 4.97404C27.9992 5.20344 27.8328 5.41804 27.7258 5.66742C27.2288 6.80849 26.8704 7.98879 26.7238 9.23124C26.7048 9.39626 26.7385 9.64638 26.5413 9.66044C26.3442 9.6745 26.2782 9.43844 26.2262 9.25936C26.1367 8.95374 26.0503 8.64738 25.9616 8.34176C25.6508 7.27025 25.3239 6.20318 25.0337 5.12648C24.8138 4.29769 24.6342 3.45557 24.4348 2.61938C24.3271 2.1665 24.1211 2.00888 23.663 2C23.187 2.00151 22.7144 2.08022 22.2631 2.2331C20.9541 2.6401 20.4205 3.55621 20.3472 4.65141C20.2739 5.7466 20.4938 6.83217 20.7598 7.89407C20.9423 8.6237 21.1182 9.34594 21.0889 10.1074C21.0747 10.6859 21.1209 11.2643 21.2267 11.8331C21.3198 12.3777 21.4466 12.9142 21.5448 13.4566C21.6875 14.3276 21.8905 15.1873 22.1524 16.0296C22.275 16.3662 22.2828 16.7344 22.1744 17.0759C22.0601 17.4193 22.0718 17.7782 22.085 18.1356C22.0967 18.4397 22.0117 18.5056 21.7185 18.4316C21.495 18.3724 21.2986 18.2451 21.0684 18.1955C20.076 17.9817 19.0638 17.9476 18.0633 17.8552C16.6546 17.7249 15.2393 17.6998 13.8247 17.6909C13.2764 17.686 12.7312 17.7748 12.2122 17.9536C11.0395 18.3561 9.89024 18.8334 8.72705 19.2685C7.96772 19.5527 7.24576 19.9686 6.39848 19.9501C6.27593 19.9516 6.15357 19.9602 6.032 19.976C5.022 20.0692 4.30005 20.5524 3.91452 21.53C3.67998 22.122 3.64113 22.7502 3.5715 23.3696C3.51671 23.8823 3.38704 24.3841 3.1867 24.8585C2.92797 25.4697 2.60987 26.0499 2.31083 26.6404C1.95975 27.333 1.9319 28.0582 2.09901 28.7938C2.37313 30.0022 2.94043 31.0937 3.48575 32.1904C3.8896 33.0043 4.31911 33.8006 4.74129 34.602C5.2822 35.6306 5.54313 36.7613 5.914 37.8528C6.06059 38.2813 6.25849 38.6912 6.35377 39.1374C6.6792 40.6463 6.94013 42.1714 7.51329 43.6181C7.91275 44.6252 8.33052 45.6065 9.0129 46.4597C9.36594 46.8823 9.74934 47.278 10.16 47.6437C10.8269 48.2631 11.178 49.0341 11.3451 49.9155C11.4617 50.5289 11.565 51.1468 11.7226 51.7507C11.7842 51.9815 11.889 52.0319 12.1624 51.983C12.1933 51.9782 12.2232 51.9685 12.2511 51.9542C12.6542 51.8062 13.2156 51.7721 13.6143 51.7721C14.3473 51.7721 15.3734 51.7122 16.1064 51.7122C17.098 51.7122 17.8185 51.6804 18.8073 51.6804C19.154 51.6804 19.3936 51.653 19.7425 51.6522C19.9661 51.6522 20.7686 51.6389 20.9885 51.6426C21.4466 51.6402 21.9044 51.6634 22.3599 51.7122C22.8876 51.7669 23.3244 51.7773 23.899 51.8602C24.1864 51.9016 24.6063 51.8816 24.8966 51.8816C25.4221 51.8816 25.974 51.9712 26.4959 51.9712C26.5413 51.9712 26.5963 51.9712 26.6535 51.9778C26.7193 51.9867 26.7858 51.9896 26.8521 51.9867C27.0412 51.9867 27.2134 52.0156 27.2046 51.7159C27.1885 51.1624 27.2237 50.6059 27.2134 50.0531C27.1647 47.9763 27.4191 45.9035 27.9684 43.9015C28.5081 41.9625 29.2287 40.0794 30.1203 38.2776C31.0218 36.4549 31.9409 34.639 32.4313 32.644C32.5867 32.0083 32.6746 31.3741 32.5874 30.7118C32.4643 29.7787 32.1161 28.9159 31.8317 28.0323C31.5833 27.2612 31.2102 26.5383 30.9793 25.759C30.8731 25.4306 30.8751 25.0762 30.9852 24.749C31.303 23.7688 31.5692 22.7724 31.7826 21.7638C32.015 20.7115 32.2158 19.6504 32.6211 18.6418C32.7819 18.2143 32.8935 17.7696 32.9539 17.3164C33.0908 16.3805 33.3391 15.4647 33.6934 14.5888C33.796 14.3417 33.8495 14.0708 33.9514 13.8251C34.0533 13.5795 33.9866 13.3982 33.829 13.2198" fill="black"/>
<path d="M33.8334 13.2176C33.2361 12.5398 31.9761 12.2445 31.2681 12.7351C31.2043 12.7702 31.1385 12.8013 31.0709 12.8284C30.8789 12.9253 30.7939 12.8335 30.7778 12.65C30.755 12.4177 30.7411 12.1846 30.7286 11.9515C30.6861 11.1619 30.7822 10.3827 30.8562 9.59828C30.9603 8.49494 31.101 7.40789 31.4359 6.34896C31.5566 5.98829 31.6418 5.6165 31.6903 5.23896C31.7098 5.11724 31.6939 4.99241 31.6446 4.8796C31.5953 4.76678 31.5147 4.67081 31.4125 4.60331C30.8151 4.15931 30.1489 4.07939 29.4335 4.17855C28.8824 4.25255 28.4397 4.48935 28.1406 4.97404C27.9992 5.20344 27.8328 5.41804 27.7258 5.66742C27.2288 6.80849 26.8704 7.98879 26.7238 9.23124C26.7048 9.39626 26.7385 9.64638 26.5413 9.66044C26.3442 9.6745 26.2782 9.43844 26.2262 9.25936C26.1367 8.95374 26.0503 8.64738 25.9616 8.34176C25.6508 7.27025 25.3239 6.20318 25.0337 5.12648C24.8138 4.29769 24.6342 3.45557 24.4348 2.61938C24.3271 2.1665 24.1211 2.00888 23.663 2C23.187 2.00151 22.7144 2.08022 22.2631 2.2331C20.9541 2.6401 20.4205 3.55621 20.3472 4.65141C20.2739 5.7466 20.4938 6.83217 20.7598 7.89407C20.9423 8.6237 21.1183 9.34594 21.0889 10.1074C21.0747 10.6859 21.1209 11.2643 21.2267 11.8331C21.3198 12.3777 21.4466 12.9142 21.5448 13.4566C21.6875 14.3276 21.8905 15.1873 22.1524 16.0296C22.275 16.3662 22.2828 16.7344 22.1744 17.0759C22.0601 17.4193 22.0718 17.7782 22.085 18.1356C22.0967 18.4397 22.0117 18.5056 21.7185 18.4316C21.495 18.3724 21.2986 18.2451 21.0684 18.1955C20.076 17.9817 19.0638 17.9476 18.0633 17.8552C16.6546 17.7249 15.2393 17.6998 13.8247 17.6909C13.2764 17.686 12.7312 17.7748 12.2122 17.9536C11.0395 18.3561 9.89024 18.8334 8.72705 19.2685C7.96772 19.5527 7.24576 19.9686 6.39848 19.9501C6.27593 19.9516 6.15357 19.9602 6.032 19.976C5.022 20.0692 4.30005 20.5524 3.91452 21.53C3.67998 22.122 3.64113 22.7502 3.5715 23.3696C3.51671 23.8823 3.38704 24.3841 3.1867 24.8585C2.92797 25.4697 2.60987 26.0499 2.31083 26.6404C1.95975 27.333 1.9319 28.0582 2.09901 28.7938C2.37313 30.0022 2.94043 31.0937 3.48575 32.1904C3.8896 33.0043 4.31911 33.8006 4.74129 34.602C5.2822 35.6306 5.54313 36.7613 5.914 37.8528C6.06059 38.2813 6.25849 38.6912 6.35377 39.1374C6.6792 40.6463 6.94013 42.1714 7.51329 43.6181C7.91275 44.6252 8.33052 45.6065 9.0129 46.4597C9.36594 46.8823 9.74934 47.278 10.16 47.6437C10.8269 48.2631 11.178 49.0341 11.3451 49.9155C11.4617 50.5289 11.565 51.1468 11.7226 51.7507C11.7842 51.9815 11.889 52.0319 12.1624 51.983C12.1933 51.9782 12.2232 51.9685 12.2511 51.9542C12.6542 51.8062 13.2156 51.7721 13.6143 51.7721C14.3473 51.7721 15.3734 51.7122 16.1064 51.7122C17.098 51.7122 17.8185 51.6804 18.8073 51.6804C19.154 51.6804 19.3936 51.653 19.7425 51.6522C19.9661 51.6522 20.7686 51.6389 20.9885 51.6426C21.4466 51.6402 21.9044 51.6634 22.3599 51.7122C22.8876 51.7669 23.3244 51.7773 23.8991 51.8602C24.1864 51.9016 24.6063 51.8816 24.8966 51.8816C25.4221 51.8816 25.974 51.9712 26.4959 51.9712C26.5413 51.9712 26.5963 51.9712 26.6535 51.9778C26.7193 51.9867 26.7858 51.9896 26.8521 51.9867C27.0412 51.9867 27.2134 52.0156 27.2046 51.7159C27.1885 51.1624 27.2237 50.6059 27.2134 50.0531C27.1647 47.9763 27.4191 45.9035 27.9684 43.9015C28.5081 41.9625 29.2287 40.0794 30.1203 38.2776C31.0218 36.4549 31.9409 34.639 32.4313 32.644C32.5867 32.0083 32.6746 31.3741 32.5874 30.7118C32.4643 29.7787 32.1161 28.9159 31.8317 28.0323C31.5833 27.2612 31.2102 26.5383 30.9793 25.759C30.8731 25.4306 30.8751 25.0762 30.9852 24.749C31.303 23.7688 31.5692 22.7724 31.7826 21.7638C32.015 20.7115 32.2158 19.6504 32.6211 18.6418C32.7819 18.2143 32.8935 17.7696 32.9539 17.3164C33.0908 16.3805 33.3391 15.4647 33.6934 14.5888C33.796 14.3417 33.8495 14.0708 33.9514 13.8251C34.0533 13.5795 33.9866 13.3982 33.829 13.2198" stroke="white" stroke-width="3" stroke-miterlimit="10"/>
<path d="M11.9323 50.9173L11.562 49.8025L11.188 48.2406L10.0772 46.8864L8.53389 44.9263L7.51637 42.6456L6.49811 39.2997L5.95677 37.2922L4.46604 33.533L3.69068 32.0796L2.42656 29.7213L2 28.3348L2.09849 27.2832L2.77165 26.0879L3.72549 23.7806L3.79065 22.228L4.83631 20.7531L5.67462 20.4915L6.8595 20.4196L8.00884 20.0602L10.5697 18.9978L12.6054 18.3128L13.8696 18.1691L19.8621 18.4882L21.652 18.8807L22.1608 19.1416L22.5222 17.5093L22.3904 16.273L21.3536 11.0625L21.1729 9.10961L20.6841 6.05984L20.7493 4.5619L21.7039 3.4938L23.4923 3L24.3002 3.18688L25.5762 8.09901L26.4464 10.6809L26.8166 10.504L27.1543 9.5761L28.0037 6.68589L28.8576 5.40647L29.7929 5.05714H30.4424L31.1718 5.29434L31.6162 5.72201L31.6813 6.10872L31.117 8.08464L30.726 11.3831L30.8415 13.5502L32.0101 13.1995L33.0469 13.2792L33.7038 13.6652L34 13.9829L33.4216 15.6196L32.847 18.2331L32.0923 20.605L31.7472 22.31L31.1081 24.3887L30.843 25.4532L31.3051 26.959L32.2456 29.676L32.5693 30.8864L32.4708 32.1932L31.3547 35.3486L30.1395 37.8341L29.0072 40.3678L27.726 43.4751L27.4298 45.0564L27.1018 46.9971L27.0529 49.4187L26.987 51C26.987 51 24.7046 50.9202 24.6061 50.9202C24.5076 50.9202 18.712 50.586 18.712 50.586C18.712 50.586 16.5289 50.8412 16.2993 50.8088C16.0698 50.7765 12.9824 50.857 12.9824 50.857L11.9323 50.9173Z" fill="white"/>
<path d="M33.6187 13.7541C33.4992 14.1241 33.4134 14.5111 33.2522 14.8707C33.2339 14.9129 33.2302 14.9795 33.1686 14.9721C33.1071 14.9647 33.1195 14.9026 33.121 14.8567C33.1225 14.8108 33.1283 14.7827 33.1327 14.7464C33.1547 14.3764 33.2646 14.0227 33.3636 13.6675C33.3885 13.5787 33.4318 13.5025 33.5439 13.541C33.656 13.5795 33.6465 13.669 33.6172 13.7541H33.6187ZM32.9737 13.5898C32.8674 13.891 32.8505 14.2092 32.764 14.5148C32.657 14.8944 32.6175 15.2874 32.8373 15.6544C32.9106 15.7809 32.893 15.9208 32.8586 16.0473C32.6277 16.9102 32.5046 17.8078 32.1513 18.6299C31.7702 19.5179 31.7922 20.471 31.5649 21.3805C31.4748 21.7505 31.4249 22.1264 31.2718 22.4772C31.1801 22.6918 31.0724 22.9019 30.8496 23.004C30.7177 23.0655 30.7096 23.1402 30.8027 23.2209C30.9302 23.3319 30.876 23.4347 30.821 23.5465C30.7272 23.7433 30.6238 23.9357 30.5432 24.1385C30.4699 24.3183 30.4149 24.2398 30.3673 24.1385C30.2662 23.9165 30.3013 23.6804 30.294 23.5006C30.294 22.4816 30.5139 21.5492 30.7631 20.6272C30.8452 20.3267 31.0145 20.047 31.1061 19.7392C31.2879 19.1324 31.3561 18.5197 31.2278 17.8892C31.1824 17.6124 31.1635 17.3319 31.1713 17.0515C31.1648 16.0533 31.0306 15.0646 31.0057 14.0679C30.9932 13.5772 31.2168 13.3182 31.6162 13.1325C32.078 12.9186 32.5119 12.9682 32.926 13.2509C33.0594 13.3427 33.0052 13.487 32.9685 13.5898H32.9737ZM30.5931 7.08599C30.5788 7.0214 30.5725 6.9553 30.574 6.88915C30.5681 6.57909 30.6392 6.3423 30.7001 6.10476C30.7792 5.79618 30.851 5.48464 30.9485 5.18198C31.0116 4.98662 31.1406 4.97922 31.2688 5.1361C31.307 5.18503 31.3327 5.24262 31.3439 5.30387C31.355 5.36513 31.3511 5.4282 31.3326 5.4876C31.1911 6.03298 31.0907 6.58945 30.9075 7.12299C30.8745 7.21845 30.862 7.37533 30.7301 7.36053C30.5982 7.34573 30.6224 7.18589 30.5931 7.08599ZM30.5813 5.14276C30.3285 5.8243 30.228 6.53765 30.1701 7.25915C30.1557 7.44562 30.2117 7.6307 30.327 7.77715C30.563 8.07907 30.5535 8.41724 30.489 8.75838C30.3651 9.40884 30.3182 10.0682 30.2449 10.7238C30.2156 10.9872 30.091 11.0568 29.8586 11.0398C29.7795 11.0339 29.6615 11.0013 29.6336 11.1049C29.6058 11.2085 29.7267 11.2529 29.7934 11.2781C30.1797 11.4327 30.2332 11.7346 30.2405 12.1113C30.261 12.872 30.3504 13.6305 30.3761 14.3912C30.3966 15.0054 30.478 15.6174 30.4575 16.2331C30.4534 16.3563 30.4672 16.4795 30.4985 16.5986C30.5843 16.9176 30.5953 17.2328 30.3439 17.4933C30.2368 17.6036 30.2552 17.6761 30.3952 17.7153C30.6451 17.7826 30.6883 17.9513 30.6883 18.1904C30.7017 18.6942 30.6502 19.1977 30.5352 19.6881C30.4824 19.8894 30.4252 20.1033 30.1599 20.124C30.0287 20.1343 30.0243 20.2113 30.0749 20.3008C30.3182 20.7278 30.1548 21.1578 30.0829 21.5855C30.0557 21.6964 30.0199 21.805 29.9759 21.9103C29.7648 21.7364 29.7714 21.4826 29.7348 21.2702C29.6006 20.4858 29.5149 19.6933 29.3852 18.9074C29.3119 18.4738 29.2107 18.0453 29.1088 17.6169C28.9945 17.1388 29.0194 16.6364 28.8765 16.168C28.5833 15.1986 28.3114 14.2203 27.8899 13.2938C27.631 12.7397 27.4106 12.168 27.2303 11.5829C27.1849 11.4305 27.0727 11.2189 27.3989 11.2374C27.4788 11.2418 27.4634 11.1922 27.4319 11.1471C27.4066 11.1048 27.3766 11.0655 27.3424 11.0302C26.976 10.7068 27.0045 10.3109 27.1108 9.88318C27.3432 8.94782 27.5242 7.99767 27.791 7.07119C28.0182 6.28532 28.3151 5.5172 28.9205 4.9252C29.3207 4.53449 29.7927 4.40055 30.3299 4.57075C30.6554 4.67435 30.7037 4.82012 30.5828 5.14424L30.5813 5.14276ZM27.3835 13.2457C27.5425 13.8377 27.7822 14.4119 27.6092 15.0432C27.5667 15.1986 27.6415 15.1845 27.7661 15.1771C28.0725 15.1579 28.244 15.2866 28.34 15.5797C28.4499 15.9229 28.4361 16.2943 28.3011 16.6282C28.2278 16.8162 28.104 16.9701 28.4155 17.0597C28.5437 17.0967 28.5862 17.2654 28.6097 17.3986C28.6977 17.8936 28.8039 18.3879 28.8501 18.8882C28.9762 20.249 29.2899 21.5758 29.5442 22.9123C29.7868 24.1814 30.2647 25.3809 30.758 26.5708C31.1757 27.5787 31.5899 28.5873 31.8706 29.6462C32.13 30.626 32.1696 31.5947 31.8918 32.5862C31.6954 33.2863 31.4279 33.9545 31.1589 34.6257C30.6231 35.971 29.9722 37.2638 29.3998 38.5913C29.0201 39.4682 28.6617 40.3547 28.2733 41.2272C27.7734 42.3505 27.3285 43.493 27.091 44.7052C26.9086 45.6705 26.7755 46.6446 26.6923 47.6237C26.5772 48.844 26.5355 50.0694 26.5039 51.2933C26.169 51.2933 26.0297 51.2526 25.6779 51.2549C25.4629 51.2591 25.2479 51.2522 25.0337 51.2341C24.6672 51.2023 24.2729 51.229 23.9452 51.1705C23.6022 51.1106 23.2541 51.0965 22.9044 51.0662C22.2704 51.0158 21.6035 50.9996 20.968 50.9996C19.2778 50.9996 17.584 50.9707 15.896 51.0329C15.1279 51.061 14.3641 51.1017 13.5967 51.1365C13.2493 51.152 12.8909 51.1483 12.5457 51.1772C12.4724 51.1831 12.3075 51.1846 12.1653 51.1942C12.0693 50.7502 11.952 50.3158 11.9286 49.8622C11.9212 49.7209 11.8714 49.5307 12.0297 49.4633C12.2796 49.3575 12.1858 49.2576 12.0678 49.1281C11.4895 48.4954 10.9296 47.8442 10.3307 47.2315C9.4407 46.335 8.7289 45.2747 8.23378 44.108C7.79401 43.0564 7.4847 41.9561 7.13435 40.8705C7.06359 40.6234 7.00827 40.372 6.96871 40.1179C6.95332 40.0373 6.93646 39.9277 7.01488 39.8789C7.10723 39.8212 7.20398 39.8722 7.27728 39.9477C7.41361 40.0883 7.55214 40.2274 7.68407 40.3732C8.09823 40.8147 8.56905 41.1982 9.08399 41.5136C9.01975 41.42 8.94606 41.3335 8.86411 41.2553C8.23231 40.7669 7.80061 40.1157 7.37623 39.4512C6.69679 38.3886 6.24969 37.2194 5.79013 36.0546C5.10189 34.3082 4.40926 32.5648 3.518 30.9079C3.11854 30.1628 2.73008 29.4094 2.52778 28.5747C2.27858 27.5521 2.58422 26.7018 3.42931 26.0906C3.74875 25.8638 4.09842 25.6839 4.46789 25.5563C4.23995 25.506 4.09776 25.6155 3.94237 25.6725C3.78699 25.7294 3.65799 25.8101 3.49747 25.8286C3.31717 25.8501 3.25414 25.7849 3.28858 25.597C3.32042 25.4783 3.37332 25.3665 3.4447 25.2669C3.56889 25.0707 3.67022 24.8606 3.74668 24.6409C3.93578 24.0326 4.34916 23.6449 4.93625 23.434C5.14294 23.36 5.3489 23.286 5.55559 23.212C5.86416 23.1032 6.01954 22.8664 6.08258 22.5586C6.13811 22.332 6.14758 22.0963 6.11043 21.8659C6.05718 21.5643 5.98047 21.2674 5.88102 20.9779C5.76961 20.6634 5.85756 20.5598 6.19472 20.5413C6.64035 20.5162 7.00096 20.7049 7.31832 20.9913C7.94793 21.5633 8.34079 22.3055 8.67208 23.0714C9.14556 24.1644 9.16388 25.3409 9.19394 26.5101C9.19833 26.6988 9.10818 26.7418 8.9462 26.7321C8.85385 26.7277 8.77176 26.6826 8.62004 26.6359C9.12357 27.2494 9.42994 27.9087 9.85579 28.4911C10.5887 29.4894 11.2572 30.5313 12.0458 31.4874C12.4314 31.9543 12.8814 32.2962 13.4846 32.4301C14.326 32.6173 15.1594 32.8386 15.9979 33.0369C16.6377 33.1886 17.2769 33.3433 17.9219 33.4654C18.2385 33.5253 18.5625 33.6089 18.893 33.5357C17.5004 33.2663 16.1496 32.8697 14.7885 32.496C14.6566 32.4704 14.53 32.4223 14.414 32.3539C14.2564 32.2451 14.2601 32.143 14.4308 32.066C14.5544 32.0139 14.6813 31.9699 14.8105 31.9343C16.1987 31.5133 17.6294 31.5295 19.0535 31.5747C20.0672 31.6065 21.0779 31.7493 22.0916 31.8433C22.0909 31.8233 22.0831 31.8043 22.0696 31.7896C22.0562 31.775 22.038 31.7657 22.0183 31.7634C21.248 31.5414 20.4916 31.2565 19.6773 31.2269C19.497 31.2202 19.3702 31.1603 19.4039 30.9353C19.5131 30.2027 19.8305 29.5604 20.2438 28.961C20.3523 28.8026 20.4974 28.7841 20.647 28.9203L21.1512 29.3798C20.9792 29.0703 20.8651 28.7314 20.8148 28.3801C20.7496 27.942 20.9387 27.7274 21.377 27.723C21.5478 27.723 21.7185 27.7371 21.89 27.7371C22.0459 27.7351 22.2018 27.745 22.3562 27.7667C21.1021 27.2235 19.9917 26.5087 19.0953 25.4616C18.4423 24.7001 18.2854 23.8676 18.6079 22.9271C18.6372 22.842 18.7266 22.7628 18.6424 22.6444C17.6837 23.3777 16.615 23.3015 15.5405 23.0233C14.4909 22.7517 13.4084 22.5142 12.8037 21.4049C12.7473 21.6728 12.8433 21.8711 12.8572 22.079C12.8697 22.2655 12.8125 22.3861 12.6373 22.449C11.7365 22.7598 10.824 23.0285 9.86165 23.004C9.38963 22.9922 8.9396 22.8398 8.64789 22.4283C8.36424 22.0287 8.11797 21.6032 7.84825 21.1933C7.71632 20.9927 7.8138 20.8973 7.99483 20.841C8.12237 20.7981 8.25723 20.7759 8.37963 20.7234C9.05907 20.4318 9.72166 20.121 10.0002 19.3433C10.027 19.2743 10.0685 19.212 10.1216 19.1609C10.1748 19.1097 10.2384 19.071 10.308 19.0473C11.0004 18.7794 11.6908 18.5063 12.3793 18.2281C12.4599 18.1955 12.5567 18.1304 12.6197 18.1741C12.814 18.3073 12.9562 18.1918 13.1115 18.1067C13.2547 18.0351 13.4155 18.0076 13.574 18.0276C14.447 18.1016 15.3199 18.1822 16.1936 18.2451C17.4315 18.3332 18.6709 18.4153 19.9045 18.5574C20.3267 18.6055 20.7591 18.6314 21.163 18.7668C21.7647 18.974 22.1891 19.3381 21.7757 20.0211C21.7757 20.0256 21.7867 20.0396 21.8036 20.0685C21.9589 19.9826 22.1158 19.8961 22.2712 19.8087C22.6274 19.6089 22.6376 19.6008 22.903 19.9249C23.4094 20.5406 23.8595 21.1992 24.3022 21.8607C24.868 22.7066 25.4133 23.5701 26.0693 24.3471C27.4275 25.9455 28.8127 27.5143 30.1687 29.1075C30.6216 29.6388 31.0321 30.2042 31.2256 30.8998C31.2666 31.0478 31.2183 31.2284 31.3626 31.3616C31.3839 30.4373 31.0196 29.6596 30.5227 28.9307C30.0653 28.2647 29.5273 27.6549 29.0084 27.0363C27.9999 25.836 26.9958 24.6343 26.0502 23.3807C25.0762 22.0901 24.0984 20.8003 23.0115 19.6008C22.8547 19.428 22.7493 19.2141 22.7073 18.9836C22.6017 18.4449 22.6611 17.904 22.6596 17.3645C22.6656 17.2899 22.7004 17.2205 22.7564 17.1714C22.8451 17.0737 23.0664 17.1055 23.0576 16.9723C23.051 16.8695 22.8825 16.7829 22.7967 16.6763C22.7442 16.6082 22.7006 16.5336 22.667 16.4543C22.5123 16.1302 22.4368 15.7817 22.3665 15.4324C22.0681 13.9524 21.764 12.4724 21.5976 10.9724C21.5566 10.6025 21.5712 10.2325 21.558 9.8669C21.558 9.80622 21.5536 9.7189 21.6123 9.70188C21.8321 9.65008 21.7625 9.5931 21.6328 9.5043C21.5595 9.45324 21.5675 9.3563 21.5507 9.26898C21.3865 8.42834 21.2172 7.58845 21.0501 6.74781C20.9145 6.0611 20.7738 5.37364 20.8258 4.66694C20.9167 3.42523 21.7215 2.67414 22.8693 2.55352C23.1991 2.518 23.2071 2.55352 23.2797 2.87024C23.4263 3.51477 23.5274 4.17189 23.7818 4.7883C23.9467 5.18642 24.1343 5.55568 24.6335 5.58824C24.7742 5.59786 24.7925 5.6911 24.8211 5.81024C25.1255 7.0871 25.5091 8.34338 25.9696 9.57164C26.427 10.7993 27.0375 11.967 27.3805 13.2391L27.3835 13.2457ZM24.5015 5.04212C24.451 5.07468 24.4055 5.04212 24.3689 5.01252C24.2779 4.94999 24.2026 4.86688 24.149 4.7698C23.795 4.09049 23.6843 3.33273 23.4754 2.60754C23.4285 2.44622 23.5582 2.37666 23.7305 2.44178C23.8499 2.48618 23.8917 2.58978 23.9225 2.69338C24.1211 3.37195 24.3139 4.05275 24.5089 4.7328C24.5227 4.79452 24.5328 4.85705 24.5389 4.92002C24.5482 4.9416 24.5494 4.96583 24.5424 4.98826C24.5354 5.01069 24.5206 5.02981 24.5008 5.04212H24.5015ZM9.47172 19.7007C9.44232 19.7949 9.38749 19.8789 9.31341 19.9434C8.88001 20.2744 8.37159 20.4909 7.83432 20.5732C7.69213 20.5732 7.59905 20.5732 7.52722 20.4844C7.42607 20.3549 7.40701 20.252 7.58878 20.1884C7.9428 20.064 8.29828 19.9434 8.65082 19.8184C8.87804 19.7355 9.10085 19.643 9.3244 19.5527C9.36911 19.5342 9.41309 19.5046 9.4578 19.5386C9.5201 19.5853 9.49298 19.6496 9.47172 19.7044V19.7007ZM5.7806 21.4804C5.92719 21.8385 5.90154 22.2041 5.81798 22.563C5.76814 22.7746 5.58271 22.9078 5.38554 22.9796C5.05572 23.101 4.73982 23.2527 4.42392 23.4051C4.03985 23.5901 4.02373 23.5798 4.03106 23.0655C4.12488 22.4986 4.19817 21.823 4.66139 21.2895C5.07477 20.8114 5.53507 20.8973 5.7806 21.4826V21.4804ZM33.8334 13.2176C33.2361 12.5398 31.9761 12.2445 31.2681 12.7351C31.2043 12.7702 31.1385 12.8013 31.0709 12.8284C30.8789 12.9253 30.7939 12.8335 30.7778 12.65C30.755 12.4177 30.7411 12.1846 30.7286 11.9515C30.6861 11.1619 30.7822 10.3827 30.8562 9.59828C30.9603 8.49494 31.101 7.40789 31.4359 6.34896C31.5566 5.98829 31.6418 5.6165 31.6903 5.23896C31.7098 5.11724 31.6939 4.99241 31.6446 4.8796C31.5953 4.76678 31.5147 4.67081 31.4125 4.60331C30.8151 4.15931 30.1489 4.07939 29.4335 4.17855C28.8824 4.25255 28.4397 4.48935 28.1406 4.97404C27.9992 5.20344 27.8328 5.41804 27.7258 5.66742C27.2288 6.80849 26.8704 7.98879 26.7238 9.23124C26.7048 9.39626 26.7385 9.64638 26.5413 9.66044C26.3442 9.6745 26.2782 9.43844 26.2262 9.25936C26.1367 8.95374 26.0503 8.64738 25.9616 8.34176C25.6508 7.27025 25.3239 6.20318 25.0337 5.12648C24.8138 4.29769 24.6342 3.45557 24.4348 2.61938C24.3271 2.1665 24.1211 2.00888 23.663 2C23.187 2.00151 22.7144 2.08022 22.2631 2.2331C20.9541 2.6401 20.4205 3.55621 20.3472 4.65141C20.2739 5.7466 20.4938 6.83217 20.7598 7.89407C20.9423 8.6237 21.1182 9.34594 21.0889 10.1074C21.0747 10.6859 21.1209 11.2643 21.2267 11.8331C21.3198 12.3777 21.4466 12.9142 21.5448 13.4566C21.6875 14.3276 21.8905 15.1873 22.1524 16.0296C22.275 16.3662 22.2828 16.7344 22.1744 17.0759C22.0601 17.4193 22.0718 17.7782 22.085 18.1356C22.0967 18.4397 22.0117 18.5056 21.7185 18.4316C21.495 18.3724 21.2986 18.2451 21.0684 18.1955C20.076 17.9817 19.0638 17.9476 18.0633 17.8551C16.6546 17.7249 15.2393 17.6998 13.8247 17.6909C13.2764 17.686 12.7312 17.7748 12.2122 17.9536C11.0395 18.3561 9.89023 18.8334 8.72705 19.2685C7.96772 19.5527 7.24576 19.9686 6.39848 19.9501C6.27593 19.9516 6.15357 19.9602 6.032 19.976C5.022 20.0692 4.30005 20.5524 3.91452 21.53C3.67998 22.122 3.64113 22.7502 3.5715 23.3696C3.51671 23.8823 3.38704 24.3841 3.1867 24.8585C2.92797 25.4697 2.60987 26.0499 2.31083 26.6404C1.95975 27.333 1.9319 28.0582 2.09901 28.7938C2.37313 30.0022 2.94043 31.0937 3.48575 32.1903C3.8896 33.0043 4.31911 33.8006 4.74129 34.602C5.2822 35.6306 5.54313 36.7613 5.914 37.8528C6.06059 38.2813 6.25849 38.6912 6.35377 39.1374C6.6792 40.6463 6.94013 42.1714 7.51329 43.6181C7.91275 44.6252 8.33052 45.6065 9.0129 46.4597C9.36594 46.8822 9.74934 47.278 10.16 47.6437C10.8269 48.2631 11.178 49.0341 11.3451 49.9155C11.4617 50.5289 11.565 51.1468 11.7226 51.7507C11.7842 51.9815 11.889 52.0319 12.1624 51.983C12.1933 51.9782 12.2232 51.9685 12.2511 51.9542C12.6542 51.8062 13.2156 51.7721 13.6143 51.7721C14.3473 51.7721 15.3734 51.7122 16.1064 51.7122C17.098 51.7122 17.8185 51.6804 18.8073 51.6804C19.154 51.6804 19.3936 51.653 19.7425 51.6522C19.9661 51.6522 20.7686 51.6389 20.9885 51.6426C21.4466 51.6402 21.9044 51.6634 22.3599 51.7122C22.8876 51.7669 23.3244 51.7773 23.899 51.8602C24.1864 51.9016 24.6063 51.8816 24.8966 51.8816C25.4221 51.8816 25.974 51.9712 26.4959 51.9712C26.5413 51.9712 26.5963 51.9712 26.6535 51.9778C26.7193 51.9867 26.7858 51.9896 26.8521 51.9867C27.0412 51.9867 27.2134 52.0156 27.2046 51.7159C27.1885 51.1624 27.2237 50.6059 27.2134 50.0531C27.1647 47.9763 27.4191 45.9035 27.9684 43.9015C28.5081 41.9625 29.2287 40.0794 30.1203 38.2776C31.0218 36.4549 31.9409 34.639 32.4313 32.644C32.5867 32.0083 32.6746 31.3741 32.5874 30.7118C32.4643 29.7787 32.1161 28.9159 31.8317 28.0323C31.5833 27.2612 31.2102 26.5383 30.9793 25.759C30.8731 25.4306 30.8751 25.0762 30.9852 24.749C31.303 23.7688 31.5692 22.7724 31.7826 21.7638C32.015 20.7115 32.2158 19.6504 32.6211 18.6418C32.7819 18.2143 32.8935 17.7696 32.9539 17.3164C33.0908 16.3805 33.3391 15.4647 33.6934 14.5888C33.796 14.3417 33.8495 14.0708 33.9514 13.8251C34.0533 13.5795 33.9866 13.3982 33.829 13.2198" fill="black"/>
<path d="M33.8334 13.2176C33.2361 12.5398 31.9761 12.2445 31.2681 12.7351C31.2043 12.7702 31.1385 12.8013 31.0709 12.8284C30.8789 12.9253 30.7939 12.8335 30.7778 12.65C30.755 12.4177 30.7411 12.1846 30.7286 11.9515C30.6861 11.1619 30.7822 10.3827 30.8562 9.59828C30.9603 8.49494 31.101 7.40789 31.4359 6.34896C31.5566 5.98829 31.6418 5.6165 31.6903 5.23896C31.7098 5.11724 31.6939 4.99241 31.6446 4.8796C31.5953 4.76678 31.5147 4.67081 31.4125 4.60331C30.8151 4.15931 30.1489 4.07939 29.4335 4.17855C28.8824 4.25255 28.4397 4.48935 28.1406 4.97404C27.9992 5.20344 27.8328 5.41804 27.7258 5.66742C27.2288 6.80849 26.8704 7.98879 26.7238 9.23124C26.7048 9.39626 26.7385 9.64638 26.5413 9.66044C26.3442 9.6745 26.2782 9.43844 26.2262 9.25936C26.1367 8.95374 26.0503 8.64738 25.9616 8.34176C25.6508 7.27025 25.3239 6.20318 25.0337 5.12648C24.8138 4.29769 24.6342 3.45557 24.4348 2.61938C24.3271 2.1665 24.1211 2.00888 23.663 2C23.187 2.00151 22.7144 2.08022 22.2631 2.2331C20.9541 2.6401 20.4205 3.55621 20.3472 4.65141C20.2739 5.7466 20.4938 6.83217 20.7598 7.89407C20.9423 8.6237 21.1182 9.34594 21.0889 10.1074C21.0747 10.6859 21.1209 11.2643 21.2267 11.8331C21.3198 12.3777 21.4466 12.9142 21.5448 13.4566C21.6874 14.3276 21.8905 15.1873 22.1524 16.0296C22.275 16.3662 22.2828 16.7344 22.1744 17.0759C22.0601 17.4193 22.0718 17.7782 22.085 18.1356C22.0967 18.4397 22.0117 18.5056 21.7185 18.4316C21.495 18.3724 21.2986 18.2451 21.0684 18.1955C20.076 17.9817 19.0638 17.9476 18.0633 17.8551C16.6546 17.7249 15.2393 17.6998 13.8247 17.6909C13.2764 17.686 12.7312 17.7748 12.2122 17.9536C11.0395 18.3561 9.89024 18.8334 8.72705 19.2685C7.96772 19.5527 7.24576 19.9686 6.39848 19.9501C6.27593 19.9516 6.15357 19.9602 6.032 19.976C5.022 20.0692 4.30005 20.5524 3.91452 21.53C3.67998 22.122 3.64113 22.7502 3.5715 23.3696C3.51671 23.8823 3.38704 24.3841 3.1867 24.8585C2.92797 25.4697 2.60987 26.0499 2.31083 26.6404C1.95975 27.333 1.9319 28.0582 2.09901 28.7938C2.37313 30.0022 2.94043 31.0937 3.48575 32.1903C3.8896 33.0043 4.31911 33.8006 4.74129 34.602C5.2822 35.6306 5.54313 36.7613 5.914 37.8528C6.06059 38.2813 6.25849 38.6912 6.35377 39.1374C6.6792 40.6463 6.94013 42.1714 7.51329 43.6181C7.91275 44.6252 8.33052 45.6065 9.0129 46.4597C9.36594 46.8822 9.74934 47.278 10.16 47.6437C10.8269 48.2631 11.178 49.0341 11.3451 49.9155C11.4617 50.5289 11.565 51.1468 11.7226 51.7507C11.7842 51.9815 11.889 52.0319 12.1624 51.983C12.1933 51.9782 12.2232 51.9685 12.2511 51.9542C12.6542 51.8062 13.2156 51.7721 13.6143 51.7721C14.3473 51.7721 15.3734 51.7122 16.1064 51.7122C17.098 51.7122 17.8185 51.6804 18.8073 51.6804C19.154 51.6804 19.3936 51.653 19.7425 51.6522C19.9661 51.6522 20.7686 51.6389 20.9885 51.6426C21.4466 51.6402 21.9044 51.6634 22.3599 51.7122C22.8876 51.7669 23.3244 51.7773 23.899 51.8602C24.1864 51.9016 24.6063 51.8816 24.8966 51.8816C25.4221 51.8816 25.974 51.9712 26.4959 51.9712C26.5413 51.9712 26.5963 51.9712 26.6535 51.9778C26.7193 51.9867 26.7858 51.9896 26.8521 51.9867C27.0412 51.9867 27.2134 52.0156 27.2046 51.7159C27.1885 51.1624 27.2237 50.6059 27.2134 50.0531C27.1647 47.9763 27.4191 45.9035 27.9684 43.9015C28.5081 41.9625 29.2287 40.0794 30.1203 38.2776C31.0218 36.4549 31.9409 34.639 32.4313 32.644C32.5867 32.0083 32.6746 31.3741 32.5874 30.7118C32.4643 29.7787 32.1161 28.9159 31.8317 28.0323C31.5833 27.2612 31.2102 26.5383 30.9793 25.759C30.8731 25.4306 30.8751 25.0762 30.9852 24.749C31.303 23.7688 31.5692 22.7724 31.7826 21.7638C32.015 20.7115 32.2158 19.6504 32.6211 18.6418C32.7819 18.2143 32.8935 17.7696 32.9539 17.3164C33.0908 16.3805 33.3391 15.4647 33.6934 14.5888C33.796 14.3417 33.8495 14.0708 33.9514 13.8251C34.0533 13.5795 33.9866 13.3982 33.829 13.2198M33.6187 13.7541C33.4992 14.1241 33.4134 14.5111 33.2522 14.8707C33.2339 14.9129 33.2302 14.9795 33.1686 14.9721C33.1071 14.9647 33.1195 14.9026 33.121 14.8567C33.1225 14.8108 33.1283 14.7827 33.1327 14.7464C33.1547 14.3764 33.2646 14.0227 33.3636 13.6675C33.3885 13.5787 33.4318 13.5025 33.5439 13.541C33.656 13.5795 33.6465 13.669 33.6172 13.7541H33.6187ZM32.9737 13.5898C32.8674 13.891 32.8505 14.2092 32.764 14.5148C32.657 14.8944 32.6175 15.2874 32.8373 15.6544C32.9106 15.7809 32.893 15.9208 32.8586 16.0473C32.6277 16.9102 32.5046 17.8078 32.1513 18.6299C31.7702 19.5179 31.7922 20.471 31.5649 21.3805C31.4748 21.7505 31.4249 22.1264 31.2718 22.4772C31.1801 22.6918 31.0724 22.9019 30.8496 23.004C30.7177 23.0655 30.7096 23.1402 30.8027 23.2209C30.9302 23.3319 30.876 23.4347 30.821 23.5465C30.7272 23.7433 30.6238 23.9357 30.5432 24.1385C30.4699 24.3183 30.4149 24.2398 30.3673 24.1385C30.2662 23.9165 30.3013 23.6804 30.294 23.5006C30.294 22.4816 30.5139 21.5492 30.7631 20.6272C30.8452 20.3267 31.0145 20.047 31.1061 19.7392C31.2879 19.1324 31.3561 18.5197 31.2278 17.8892C31.1824 17.6124 31.1635 17.3319 31.1713 17.0515C31.1648 16.0533 31.0306 15.0646 31.0057 14.0679C30.9932 13.5772 31.2168 13.3182 31.6162 13.1325C32.078 12.9186 32.5119 12.9682 32.926 13.2509C33.0594 13.3427 33.0052 13.487 32.9685 13.5898H32.9737ZM30.5931 7.08599C30.5788 7.0214 30.5725 6.9553 30.574 6.88915C30.5681 6.57909 30.6392 6.3423 30.7001 6.10476C30.7792 5.79618 30.851 5.48464 30.9485 5.18198C31.0116 4.98662 31.1406 4.97922 31.2688 5.1361C31.307 5.18503 31.3327 5.24262 31.3439 5.30387C31.355 5.36513 31.3511 5.4282 31.3326 5.4876C31.1911 6.03298 31.0907 6.58945 30.9075 7.12299C30.8745 7.21845 30.862 7.37533 30.7301 7.36053C30.5982 7.34573 30.6224 7.18589 30.5931 7.08599ZM30.5813 5.14276C30.3285 5.8243 30.228 6.53765 30.1701 7.25915C30.1557 7.44562 30.2117 7.6307 30.327 7.77715C30.563 8.07907 30.5535 8.41724 30.489 8.75838C30.3651 9.40884 30.3182 10.0682 30.2449 10.7238C30.2156 10.9872 30.091 11.0568 29.8586 11.0398C29.7795 11.0339 29.6615 11.0013 29.6336 11.1049C29.6058 11.2085 29.7267 11.2529 29.7934 11.2781C30.1797 11.4327 30.2332 11.7346 30.2405 12.1113C30.261 12.872 30.3504 13.6305 30.3761 14.3912C30.3966 15.0054 30.478 15.6174 30.4575 16.2331C30.4534 16.3563 30.4672 16.4795 30.4985 16.5986C30.5843 16.9176 30.5953 17.2328 30.3439 17.4933C30.2368 17.6036 30.2552 17.6761 30.3952 17.7153C30.6451 17.7826 30.6883 17.9513 30.6883 18.1904C30.7017 18.6942 30.6502 19.1977 30.5352 19.6881C30.4824 19.8894 30.4252 20.1033 30.1599 20.124C30.0287 20.1343 30.0243 20.2113 30.0749 20.3008C30.3182 20.7278 30.1548 21.1578 30.0829 21.5855C30.0557 21.6964 30.0199 21.805 29.9759 21.9103C29.7648 21.7364 29.7714 21.4826 29.7348 21.2702C29.6006 20.4858 29.5149 19.6933 29.3852 18.9074C29.3119 18.4738 29.2107 18.0453 29.1088 17.6169C28.9945 17.1388 29.0194 16.6364 28.8765 16.168C28.5833 15.1986 28.3114 14.2203 27.8899 13.2938C27.631 12.7397 27.4106 12.168 27.2303 11.5829C27.1849 11.4305 27.0727 11.2189 27.3989 11.2374C27.4788 11.2418 27.4634 11.1922 27.4319 11.1471C27.4066 11.1048 27.3766 11.0655 27.3424 11.0302C26.976 10.7068 27.0045 10.3109 27.1108 9.88318C27.3432 8.94782 27.5242 7.99767 27.791 7.07119C28.0182 6.28532 28.3151 5.5172 28.9205 4.9252C29.3207 4.53449 29.7927 4.40055 30.3299 4.57075C30.6554 4.67434 30.7037 4.82012 30.5828 5.14424L30.5813 5.14276ZM27.3835 13.2457C27.5425 13.8377 27.7822 14.4119 27.6092 15.0432C27.5667 15.1986 27.6415 15.1845 27.7661 15.1771C28.0724 15.1579 28.244 15.2866 28.34 15.5797C28.4499 15.9229 28.4361 16.2943 28.3011 16.6282C28.2278 16.8162 28.104 16.9701 28.4155 17.0597C28.5437 17.0967 28.5862 17.2654 28.6097 17.3986C28.6977 17.8936 28.8039 18.3879 28.8501 18.8882C28.9762 20.249 29.2899 21.5758 29.5442 22.9123C29.7868 24.1814 30.2647 25.3809 30.758 26.5708C31.1757 27.5787 31.5899 28.5873 31.8706 29.6462C32.13 30.626 32.1696 31.5947 31.8918 32.5862C31.6954 33.2863 31.4279 33.9545 31.1589 34.6257C30.6231 35.971 29.9722 37.2638 29.3998 38.5913C29.0201 39.4682 28.6617 40.3547 28.2733 41.2272C27.7734 42.3505 27.3285 43.493 27.091 44.7052C26.9086 45.6705 26.7755 46.6446 26.6923 47.6237C26.5772 48.844 26.5355 50.0694 26.5039 51.2933C26.169 51.2933 26.0297 51.2526 25.6779 51.2549C25.4629 51.2591 25.2479 51.2522 25.0337 51.2341C24.6672 51.2023 24.2729 51.229 23.9452 51.1705C23.6022 51.1106 23.2541 51.0965 22.9044 51.0662C22.2704 51.0158 21.6035 50.9996 20.968 50.9996C19.2778 50.9996 17.584 50.9707 15.896 51.0329C15.1279 51.061 14.3641 51.1017 13.5967 51.1365C13.2493 51.152 12.8909 51.1483 12.5457 51.1772C12.4724 51.1831 12.3075 51.1846 12.1653 51.1942C12.0693 50.7502 11.952 50.3158 11.9286 49.8622C11.9212 49.7209 11.8714 49.5307 12.0297 49.4633C12.2796 49.3575 12.1858 49.2576 12.0678 49.1281C11.4895 48.4954 10.9296 47.8442 10.3307 47.2315C9.4407 46.335 8.7289 45.2747 8.23378 44.108C7.79401 43.0565 7.4847 41.9561 7.13435 40.8705C7.06359 40.6234 7.00827 40.372 6.96871 40.1179C6.95332 40.0373 6.93646 39.9277 7.01488 39.8789C7.10723 39.8212 7.20398 39.8722 7.27728 39.9477C7.41361 40.0883 7.55214 40.2274 7.68407 40.3732C8.09823 40.8147 8.56905 41.1982 9.08399 41.5136C9.01975 41.42 8.94606 41.3335 8.86411 41.2553C8.23231 40.7669 7.80061 40.1157 7.37623 39.4512C6.69679 38.3886 6.24969 37.2194 5.79013 36.0546C5.10189 34.3082 4.40926 32.5648 3.518 30.9079C3.11854 30.1628 2.73008 29.4094 2.52778 28.5747C2.27858 27.5521 2.58422 26.7018 3.42931 26.0906C3.74875 25.8638 4.09842 25.6839 4.46789 25.5563C4.23995 25.506 4.09776 25.6155 3.94237 25.6725C3.78699 25.7294 3.65799 25.8101 3.49747 25.8286C3.31717 25.8501 3.25414 25.7849 3.28858 25.597C3.32042 25.4783 3.37332 25.3665 3.4447 25.2669C3.56889 25.0707 3.67022 24.8606 3.74668 24.6409C3.93578 24.0326 4.34916 23.6449 4.93625 23.434C5.14294 23.36 5.3489 23.286 5.55559 23.212C5.86416 23.1032 6.01954 22.8664 6.08258 22.5586C6.13811 22.332 6.14758 22.0963 6.11043 21.8659C6.05718 21.5643 5.98047 21.2674 5.88102 20.9779C5.76961 20.6634 5.85756 20.5598 6.19472 20.5413C6.64035 20.5162 7.00096 20.7049 7.31832 20.9913C7.94793 21.5633 8.34079 22.3055 8.67208 23.0714C9.14556 24.1644 9.16388 25.3409 9.19394 26.5101C9.19833 26.6988 9.10818 26.7418 8.9462 26.7321C8.85385 26.7277 8.77176 26.6826 8.62004 26.6359C9.12357 27.2494 9.42994 27.9087 9.85579 28.4911C10.5887 29.4894 11.2572 30.5313 12.0458 31.4874C12.4314 31.9543 12.8814 32.2962 13.4846 32.4301C14.326 32.6173 15.1594 32.8386 15.9979 33.0369C16.6377 33.1886 17.2769 33.3433 17.9219 33.4654C18.2385 33.5253 18.5625 33.6089 18.893 33.5357C17.5004 33.2663 16.1496 32.8697 14.7885 32.496C14.6566 32.4704 14.53 32.4223 14.414 32.3539C14.2564 32.2451 14.2601 32.143 14.4308 32.066C14.5544 32.0139 14.6813 31.9699 14.8105 31.9343C16.1987 31.5133 17.6294 31.5295 19.0535 31.5747C20.0672 31.6065 21.0779 31.7493 22.0916 31.8433C22.0909 31.8233 22.0831 31.8043 22.0696 31.7896C22.0562 31.775 22.038 31.7657 22.0183 31.7634C21.248 31.5414 20.4916 31.2565 19.6773 31.2269C19.497 31.2202 19.3702 31.1603 19.4039 30.9353C19.5131 30.2027 19.8305 29.5604 20.2438 28.961C20.3523 28.8026 20.4974 28.7841 20.647 28.9203L21.1512 29.3798C20.9792 29.0703 20.8651 28.7314 20.8148 28.3801C20.7496 27.942 20.9387 27.7274 21.377 27.723C21.5478 27.723 21.7185 27.7371 21.89 27.7371C22.0459 27.7351 22.2018 27.745 22.3562 27.7667C21.1021 27.2235 19.9917 26.5087 19.0953 25.4616C18.4423 24.7001 18.2854 23.8676 18.6079 22.9271C18.6372 22.842 18.7266 22.7628 18.6424 22.6444C17.6837 23.3777 16.615 23.3015 15.5405 23.0233C14.4909 22.7517 13.4084 22.5142 12.8037 21.4049C12.7473 21.6728 12.8433 21.8711 12.8572 22.079C12.8697 22.2655 12.8125 22.3861 12.6373 22.449C11.7365 22.7598 10.824 23.0285 9.86165 23.004C9.38963 22.9922 8.9396 22.8398 8.64789 22.4283C8.36424 22.0287 8.11797 21.6032 7.84825 21.1933C7.71632 20.9927 7.8138 20.8973 7.99484 20.841C8.12237 20.7981 8.25723 20.7759 8.37963 20.7234C9.05907 20.4318 9.72166 20.121 10.0002 19.3433C10.027 19.2743 10.0685 19.212 10.1216 19.1609C10.1748 19.1097 10.2384 19.071 10.308 19.0473C11.0004 18.7794 11.6908 18.5063 12.3793 18.2281C12.4599 18.1955 12.5567 18.1304 12.6197 18.1741C12.814 18.3073 12.9562 18.1918 13.1115 18.1067C13.2547 18.0351 13.4155 18.0076 13.574 18.0276C14.447 18.1016 15.3199 18.1822 16.1936 18.2451C17.4315 18.3332 18.6709 18.4153 19.9045 18.5574C20.3267 18.6055 20.7591 18.6314 21.163 18.7668C21.7647 18.974 22.1891 19.3381 21.7757 20.0211C21.7757 20.0256 21.7867 20.0396 21.8036 20.0685C21.9589 19.9826 22.1158 19.8961 22.2712 19.8087C22.6274 19.6089 22.6376 19.6008 22.903 19.9249C23.4094 20.5406 23.8595 21.1992 24.3022 21.8607C24.868 22.7066 25.4133 23.5701 26.0693 24.3471C27.4275 25.9455 28.8127 27.5143 30.1687 29.1075C30.6216 29.6388 31.0321 30.2042 31.2256 30.8998C31.2666 31.0478 31.2183 31.2284 31.3626 31.3616C31.3839 30.4373 31.0196 29.6596 30.5227 28.9307C30.0653 28.2647 29.5273 27.6549 29.0084 27.0363C27.9999 25.836 26.9958 24.6343 26.0502 23.3807C25.0762 22.0901 24.0984 20.8003 23.0115 19.6008C22.8547 19.428 22.7493 19.2141 22.7073 18.9836C22.6017 18.4449 22.6611 17.904 22.6596 17.3645C22.6656 17.2899 22.7004 17.2205 22.7564 17.1714C22.8451 17.0737 23.0664 17.1055 23.0576 16.9723C23.051 16.8695 22.8825 16.7829 22.7967 16.6763C22.7442 16.6082 22.7006 16.5336 22.667 16.4543C22.5123 16.1302 22.4368 15.7817 22.3665 15.4324C22.0681 13.9524 21.764 12.4724 21.5976 10.9724C21.5566 10.6025 21.5712 10.2325 21.558 9.8669C21.558 9.80622 21.5536 9.7189 21.6123 9.70188C21.8321 9.65008 21.7625 9.5931 21.6328 9.5043C21.5595 9.45324 21.5675 9.3563 21.5507 9.26898C21.3865 8.42834 21.2172 7.58845 21.0501 6.74781C20.9145 6.0611 20.7738 5.37364 20.8258 4.66694C20.9167 3.42523 21.7215 2.67414 22.8693 2.55352C23.1991 2.518 23.2071 2.55352 23.2797 2.87024C23.4263 3.51477 23.5274 4.17189 23.7818 4.7883C23.9467 5.18642 24.1343 5.55568 24.6335 5.58824C24.7742 5.59786 24.7925 5.6911 24.8211 5.81024C25.1255 7.0871 25.5091 8.34338 25.9696 9.57164C26.427 10.7993 27.0375 11.967 27.3805 13.2391L27.3835 13.2457ZM24.5015 5.04212C24.451 5.07468 24.4055 5.04212 24.3689 5.01252C24.2779 4.94999 24.2026 4.86688 24.149 4.7698C23.795 4.09049 23.6843 3.33273 23.4754 2.60754C23.4285 2.44622 23.5582 2.37666 23.7305 2.44178C23.8499 2.48618 23.8917 2.58978 23.9225 2.69338C24.1211 3.37195 24.3139 4.05275 24.5089 4.7328C24.5227 4.79452 24.5328 4.85705 24.5389 4.92002C24.5482 4.9416 24.5494 4.96583 24.5424 4.98826C24.5354 5.01069 24.5206 5.02981 24.5008 5.04212H24.5015ZM9.47172 19.7007C9.44232 19.7949 9.38749 19.8789 9.31341 19.9434C8.88001 20.2744 8.37159 20.4909 7.83432 20.5732C7.69213 20.5732 7.59905 20.5732 7.52722 20.4844C7.42607 20.3549 7.40701 20.252 7.58878 20.1884C7.9428 20.064 8.29828 19.9434 8.65082 19.8184C8.87804 19.7355 9.10085 19.643 9.3244 19.5527C9.36911 19.5342 9.41309 19.5046 9.4578 19.5386C9.5201 19.5853 9.49298 19.6496 9.47172 19.7044V19.7007ZM5.7806 21.4804C5.92719 21.8385 5.90154 22.2041 5.81798 22.563C5.76814 22.7746 5.58271 22.9078 5.38554 22.9796C5.05572 23.101 4.73982 23.2527 4.42392 23.4051C4.03985 23.5901 4.02373 23.5798 4.03106 23.0655C4.12488 22.4986 4.19817 21.823 4.66139 21.2895C5.07477 20.8114 5.53507 20.8973 5.7806 21.4826V21.4804Z" stroke="black" stroke-width="0.25" stroke-miterlimit="10"/>
</svg>
