<svg width="40" height="50" viewBox="0 0 80 99" fill="none" xmlns="http://www.w3.org/2000/svg">
<path d="M78.4904 40.4117C78.4904 70.669 39.9998 96.6039 39.9998 96.6039C39.9998 96.6039 1.50928 70.669 1.50928 40.4117C1.50928 30.0942 5.56452 20.1993 12.7829 12.9037C20.0013 5.60814 29.7915 1.50952 39.9998 1.50952C50.2082 1.50952 59.9984 5.60814 67.2168 12.9037C74.4352 20.1993 78.4904 30.0942 78.4904 40.4117Z" fill="black" stroke="black" stroke-width="2" stroke-linecap="round" stroke-linejoin="round"/>
<path d="M53.3405 28.8983C52.7644 28.2162 51.5494 27.919 50.8666 28.4127C50.8051 28.448 50.7416 28.4794 50.6765 28.5066C50.4913 28.6041 50.4093 28.5118 50.3937 28.3271C50.3718 28.0933 50.3584 27.8587 50.3464 27.6242C50.3054 26.8296 50.398 26.0455 50.4694 25.2562C50.5697 24.1459 50.7054 23.052 51.0285 21.9864C51.1448 21.6235 51.227 21.2493 51.2737 20.8694C51.2925 20.7469 51.2773 20.6213 51.2297 20.5078C51.1822 20.3943 51.1044 20.2977 51.0058 20.2298C50.4298 19.783 49.7873 19.7026 49.0974 19.8024C48.5659 19.8768 48.139 20.1151 47.8506 20.6029C47.7142 20.8337 47.5537 21.0496 47.4505 21.3006C46.9713 22.4488 46.6257 23.6366 46.4843 24.8868C46.4659 25.0529 46.4984 25.3046 46.3083 25.3187C46.1182 25.3329 46.0545 25.0953 46.0044 24.9151C45.9181 24.6076 45.8347 24.2993 45.7492 23.9918C45.4495 22.9135 45.1343 21.8397 44.8543 20.7563C44.6423 19.9222 44.4691 19.0748 44.2769 18.2334C44.173 17.7777 43.9743 17.619 43.5326 17.6101C43.0736 17.6116 42.6177 17.6908 42.1826 17.8447C40.9202 18.2542 40.4056 19.1761 40.3349 20.2782C40.2642 21.3803 40.4763 22.4727 40.7329 23.5412C40.9089 24.2755 41.0785 25.0022 41.0502 25.7685C41.0365 26.3506 41.081 26.9327 41.1831 27.505C41.2729 28.0531 41.3951 28.5929 41.4899 29.1388C41.6274 30.0152 41.8232 30.8804 42.0758 31.7279C42.194 32.0666 42.2015 32.4372 42.097 32.7809C41.9868 33.1264 41.9981 33.4875 42.0108 33.8472C42.0221 34.1532 41.9401 34.2195 41.6574 34.1451C41.4418 34.0855 41.2524 33.9574 41.0304 33.9075C40.0734 33.6923 39.0973 33.6581 38.1324 33.565C36.7739 33.4339 35.409 33.4086 34.0449 33.3997C33.5161 33.3948 32.9903 33.4841 32.4899 33.664C31.3589 34.0691 30.2506 34.5494 29.1289 34.9873C28.3966 35.2732 27.7004 35.6917 26.8833 35.6731C26.7651 35.6746 26.6471 35.6833 26.5299 35.6991C25.5559 35.793 24.8597 36.2792 24.4879 37.2629C24.2617 37.8586 24.2242 38.4908 24.1571 39.1141C24.1043 39.6301 23.9792 40.135 23.786 40.6123C23.5365 41.2274 23.2297 41.8112 22.9414 42.4055C22.6028 43.1025 22.5759 43.8322 22.7371 44.5724C23.0014 45.7884 23.5485 46.8868 24.0744 47.9903C24.4639 48.8095 24.8781 49.6107 25.2852 50.4171C25.8068 51.4522 26.0585 52.59 26.4161 53.6884C26.5575 54.1195 26.7483 54.5321 26.8402 54.9811C27.154 56.4994 27.4057 58.0342 27.9584 59.49C28.3436 60.5034 28.7465 61.4908 29.4046 62.3494C29.745 62.7746 30.1148 63.1729 30.5107 63.5409C31.154 64.1641 31.4925 64.9401 31.6537 65.8269C31.7661 66.4442 31.8657 67.066 32.0177 67.6737C32.0771 67.906 32.1781 67.9566 32.4418 67.9075C32.4716 67.9027 32.5005 67.8929 32.5273 67.8784C32.9161 67.7295 33.4575 67.6953 33.842 67.6953C34.5488 67.6953 35.5384 67.6349 36.2452 67.6349C37.2016 67.6349 37.8964 67.6029 38.8499 67.6029C39.1842 67.6029 39.4153 67.5754 39.7518 67.5746C39.9674 67.5746 40.7413 67.5612 40.9534 67.5649C41.3951 67.5625 41.8366 67.5859 42.2759 67.6349C42.7848 67.6901 43.206 67.7005 43.7602 67.7839C44.0373 67.8256 44.4423 67.8055 44.7222 67.8055C45.229 67.8055 45.7612 67.8956 46.2645 67.8956C46.3083 67.8956 46.3613 67.8956 46.4164 67.9023C46.4799 67.9111 46.544 67.9141 46.608 67.9112C46.7903 67.9112 46.9564 67.9403 46.948 67.6387C46.9324 67.0817 46.9663 66.5217 46.9564 65.9654C46.9094 63.8756 47.1547 61.7898 47.6845 59.7752C48.205 57.8239 48.8999 55.929 49.7597 54.1158C50.6291 52.2817 51.5155 50.4544 51.9883 48.4468C52.1382 47.8071 52.223 47.169 52.1389 46.5025C52.0201 45.5635 51.6844 44.6953 51.4102 43.8061C51.1705 43.0302 50.8108 42.3027 50.5881 41.5186C50.4857 41.188 50.4876 40.8314 50.5938 40.5021C50.9003 39.5158 51.157 38.5131 51.3628 37.4982C51.5869 36.4393 51.7805 35.3715 52.1714 34.3565C52.3264 33.9264 52.4341 33.4789 52.4923 33.0229C52.6243 32.081 52.8638 31.1594 53.2055 30.2781C53.3044 30.0294 53.356 29.7568 53.4543 29.5096C53.5525 29.2624 53.4882 29.0799 53.3363 28.9005" fill="black"/>
<path d="M53.3405 28.8983C52.7644 28.2162 51.5494 27.919 50.8666 28.4127C50.8051 28.448 50.7416 28.4794 50.6765 28.5066C50.4913 28.6041 50.4093 28.5118 50.3937 28.3271C50.3718 28.0933 50.3584 27.8587 50.3464 27.6242C50.3054 26.8296 50.398 26.0455 50.4694 25.2562C50.5697 24.1459 50.7054 23.052 51.0285 21.9864C51.1448 21.6235 51.227 21.2493 51.2737 20.8694C51.2925 20.7469 51.2773 20.6213 51.2297 20.5078C51.1822 20.3943 51.1044 20.2977 51.0058 20.2298C50.4298 19.783 49.7873 19.7026 49.0974 19.8024C48.5659 19.8768 48.139 20.1151 47.8506 20.6029C47.7142 20.8337 47.5537 21.0496 47.4505 21.3006C46.9713 22.4488 46.6257 23.6366 46.4843 24.8868C46.4659 25.0529 46.4984 25.3046 46.3083 25.3187C46.1182 25.3329 46.0545 25.0953 46.0044 24.9151C45.9181 24.6076 45.8347 24.2993 45.7492 23.9918C45.4495 22.9135 45.1343 21.8397 44.8543 20.7563C44.6423 19.9222 44.4691 19.0748 44.2769 18.2334C44.173 17.7777 43.9744 17.619 43.5326 17.6101C43.0736 17.6116 42.6177 17.6908 42.1826 17.8447C40.9202 18.2542 40.4056 19.1761 40.3349 20.2782C40.2642 21.3803 40.4763 22.4727 40.7329 23.5412C40.9089 24.2755 41.0785 25.0022 41.0502 25.7685C41.0365 26.3506 41.081 26.9327 41.1831 27.505C41.2729 28.0531 41.3951 28.5929 41.4899 29.1388C41.6274 30.0152 41.8232 30.8804 42.0758 31.7279C42.194 32.0666 42.2015 32.4372 42.097 32.7809C41.9868 33.1264 41.9981 33.4875 42.0108 33.8472C42.0221 34.1533 41.9401 34.2195 41.6574 34.1451C41.4418 34.0855 41.2524 33.9574 41.0304 33.9075C40.0734 33.6923 39.0973 33.6581 38.1324 33.565C36.7739 33.4339 35.409 33.4086 34.0449 33.3997C33.5161 33.3948 32.9903 33.4841 32.4899 33.664C31.3589 34.0691 30.2506 34.5494 29.1289 34.9873C28.3966 35.2732 27.7004 35.6917 26.8833 35.6731C26.7651 35.6746 26.6471 35.6833 26.5299 35.6991C25.5559 35.793 24.8597 36.2792 24.4879 37.2629C24.2617 37.8586 24.2242 38.4908 24.1571 39.1141C24.1043 39.6301 23.9792 40.135 23.786 40.6123C23.5365 41.2274 23.2297 41.8112 22.9414 42.4055C22.6028 43.1025 22.5759 43.8322 22.7371 44.5724C23.0014 45.7884 23.5485 46.8868 24.0744 47.9903C24.4639 48.8095 24.8781 49.6107 25.2852 50.4171C25.8068 51.4522 26.0585 52.59 26.4161 53.6884C26.5575 54.1195 26.7483 54.5321 26.8402 54.9811C27.154 56.4994 27.4057 58.0342 27.9584 59.49C28.3436 60.5034 28.7465 61.4908 29.4046 62.3494C29.745 62.7746 30.1148 63.1729 30.5107 63.5409C31.154 64.1641 31.4925 64.9401 31.6537 65.8269C31.7661 66.4442 31.8657 67.066 32.0177 67.6737C32.0771 67.906 32.1781 67.9566 32.4418 67.9075C32.4716 67.9027 32.5005 67.8929 32.5273 67.8784C32.9161 67.7295 33.4575 67.6953 33.842 67.6953C34.5488 67.6953 35.5384 67.6349 36.2452 67.6349C37.2016 67.6349 37.8964 67.6029 38.8499 67.6029C39.1842 67.6029 39.4153 67.5754 39.7518 67.5746C39.9674 67.5746 40.7413 67.5612 40.9534 67.5649C41.3951 67.5625 41.8366 67.5859 42.2758 67.6349C42.7848 67.6901 43.206 67.7005 43.7602 67.7839C44.0373 67.8256 44.4423 67.8055 44.7222 67.8055C45.229 67.8055 45.7612 67.8956 46.2645 67.8956C46.3083 67.8956 46.3613 67.8956 46.4164 67.9023C46.4799 67.9111 46.544 67.9141 46.608 67.9112C46.7903 67.9112 46.9564 67.9403 46.948 67.6387C46.9324 67.0817 46.9663 66.5217 46.9564 65.9654C46.9094 63.8756 47.1547 61.7898 47.6845 59.7752C48.205 57.8239 48.8999 55.929 49.7597 54.1158C50.6291 52.2818 51.5155 50.4544 51.9883 48.4468C52.1382 47.8071 52.223 47.169 52.1389 46.5025C52.0201 45.5635 51.6844 44.6953 51.4102 43.8061C51.1705 43.0302 50.8108 42.3027 50.5881 41.5186C50.4857 41.188 50.4876 40.8314 50.5938 40.5021C50.9003 39.5158 51.157 38.5131 51.3628 37.4982C51.5869 36.4393 51.7805 35.3715 52.1714 34.3565C52.3264 33.9264 52.4341 33.4789 52.4923 33.0229C52.6243 32.081 52.8638 31.1594 53.2055 30.2781C53.3044 30.0294 53.356 29.7568 53.4543 29.5096C53.5525 29.2624 53.4882 29.0799 53.3362 28.9005" stroke="white" stroke-width="2" stroke-miterlimit="10"/>
<path d="M32.2199 66.8352L31.8628 65.7133L31.5022 64.1416L30.4309 62.7789L28.9426 60.8065L27.9614 58.5114L26.9794 55.1445L26.4574 53.1243L25.0198 49.3415L24.272 47.879L23.053 45.5058L22.6416 44.1106L22.7366 43.0524L23.3858 41.8495L24.3056 39.5277L24.3684 37.9654L25.3768 36.4812L26.1853 36.2179L27.3279 36.1456L28.4363 35.784L30.9059 34.7149L32.8691 34.0256L34.0881 33.881L39.8671 34.2021L41.5932 34.597L42.0839 34.8596L42.4324 33.217L42.3053 31.9729L41.3054 26.7297L41.1312 24.7645L40.6598 21.6955L40.7227 20.1882L41.6432 19.1134L43.3679 18.6165L44.1471 18.8045L45.3776 23.7475L46.2167 26.3456L46.5738 26.1677L46.8995 25.2339L47.7186 22.3255L48.542 21.0381L49.444 20.6865H50.0703L50.7738 20.9252L51.2023 21.3556L51.2651 21.7447L50.7209 23.7331L50.3438 27.0523L50.4552 29.233L51.5822 28.8801L52.582 28.9604L53.2155 29.3488L53.5011 29.6685L52.9434 31.3154L52.3892 33.9453L51.6615 36.3322L51.3287 38.0479L50.7123 40.1397L50.4567 41.2109L50.9023 42.7262L51.8093 45.4602L52.1214 46.6783L52.0264 47.9932L50.9502 51.1685L49.7782 53.6697L48.6863 56.2193L47.4508 59.3461L47.1651 60.9374L46.8487 62.8903L46.8016 65.3271L46.738 66.9183C46.738 66.9183 44.537 66.8381 44.442 66.8381C44.347 66.8381 38.758 66.5017 38.758 66.5017C38.758 66.5017 36.6527 66.7585 36.4313 66.7259C36.2099 66.6934 33.2326 66.7744 33.2326 66.7744L32.2199 66.8352Z" fill="white"/>
<path d="M53.1334 29.4381C53.0182 29.8105 52.9355 30.1999 52.78 30.5618C52.7623 30.6042 52.7588 30.6713 52.6994 30.6638C52.64 30.6564 52.652 30.5938 52.6535 30.5477C52.6549 30.5015 52.6605 30.4732 52.6648 30.4367C52.686 30.0644 52.792 29.7084 52.8874 29.351C52.9114 29.2616 52.9531 29.1849 53.0613 29.2237C53.1694 29.2624 53.1602 29.3525 53.132 29.4381H53.1334ZM52.5114 29.2728C52.4089 29.5759 52.3926 29.8961 52.3092 30.2036C52.206 30.5856 52.1679 30.981 52.3799 31.3504C52.4506 31.4777 52.4336 31.6185 52.4004 31.7458C52.1778 32.6141 52.059 33.5173 51.7183 34.3446C51.3508 35.2382 51.372 36.1973 51.1529 37.1125C51.0659 37.4848 51.0179 37.8631 50.8701 38.2161C50.7818 38.432 50.6779 38.6435 50.463 38.7462C50.3358 38.8081 50.328 38.8833 50.4178 38.9644C50.5408 39.0761 50.4884 39.1796 50.4354 39.2921C50.345 39.4902 50.2453 39.6838 50.1675 39.8878C50.0969 40.0687 50.0439 39.9898 49.9979 39.8878C49.9004 39.6644 49.9343 39.4269 49.9272 39.2459C49.9272 38.2205 50.1393 37.2823 50.3796 36.3544C50.4588 36.0521 50.622 35.7706 50.7104 35.4609C50.8857 34.8502 50.9514 34.2337 50.8277 33.5992C50.7839 33.3207 50.7657 33.0385 50.7733 32.7563C50.7669 31.7518 50.6376 30.7569 50.6136 29.7539C50.6015 29.2602 50.8171 28.9995 51.2023 28.8126C51.6476 28.5974 52.0661 28.6473 52.4654 28.9318C52.5941 29.0241 52.5418 29.1693 52.5064 29.2728H52.5114ZM50.2156 22.7281C50.2019 22.6631 50.1957 22.5966 50.1972 22.53C50.1916 22.218 50.2601 21.9797 50.3188 21.7407C50.3951 21.4302 50.4644 21.1167 50.5584 20.8121C50.6192 20.6155 50.7436 20.6081 50.8673 20.7659C50.9041 20.8152 50.9289 20.8731 50.9397 20.9348C50.9504 20.9964 50.9466 21.0599 50.9288 21.1196C50.7924 21.6684 50.6955 22.2284 50.5188 22.7653C50.487 22.8614 50.475 23.0192 50.3478 23.0044C50.2206 22.9895 50.2439 22.8286 50.2156 22.7281ZM50.2043 20.7726C49.9605 21.4585 49.8636 22.1763 49.8078 22.9023C49.7939 23.09 49.8479 23.2762 49.959 23.4236C50.1866 23.7274 50.1774 24.0677 50.1152 24.411C49.9958 25.0655 49.9506 25.729 49.8799 26.3888C49.8516 26.6539 49.7314 26.7239 49.5074 26.7068C49.431 26.7008 49.3172 26.668 49.2904 26.7723C49.2635 26.8765 49.3801 26.9212 49.4445 26.9465C49.817 27.1022 49.8686 27.406 49.8756 27.785C49.8954 28.5505 49.9817 29.3138 50.0064 30.0793C50.0262 30.6973 50.1046 31.3132 50.0849 31.9327C50.0809 32.0567 50.0942 32.1806 50.1244 32.3006C50.2071 32.6215 50.2177 32.9387 49.9753 33.2008C49.8721 33.3118 49.8898 33.3848 50.0248 33.4242C50.2658 33.492 50.3075 33.6618 50.3075 33.9023C50.3204 34.4093 50.2707 34.9159 50.1598 35.4095C50.1089 35.612 50.0538 35.8272 49.7979 35.8481C49.6714 35.8585 49.6671 35.9359 49.7159 36.026C49.9506 36.4557 49.7929 36.8883 49.7237 37.3188C49.6974 37.4304 49.6629 37.5397 49.6205 37.6457C49.4169 37.4707 49.4233 37.2153 49.3879 37.0015C49.2586 36.2122 49.1759 35.4147 49.0508 34.6239C48.9801 34.1875 48.8825 33.7564 48.7843 33.3252C48.674 32.8442 48.6981 32.3385 48.5602 31.8672C48.2775 30.8917 48.0153 29.9073 47.6088 28.975C47.3592 28.4173 47.1466 27.842 46.9727 27.2533C46.9289 27.0999 46.8207 26.887 47.1353 26.9056C47.2123 26.91 47.1975 26.8601 47.1671 26.8147C47.1427 26.7721 47.1138 26.7326 47.0808 26.6971C46.7274 26.3717 46.755 25.9733 46.8575 25.5429C47.0816 24.6016 47.2561 23.6455 47.5134 22.7132C47.7325 21.9224 48.0188 21.1494 48.6026 20.5537C48.9886 20.1605 49.4438 20.0258 49.9619 20.197C50.2757 20.3013 50.3223 20.448 50.2057 20.7741L50.2043 20.7726ZM47.1204 28.9266C47.2738 29.5223 47.5049 30.1001 47.3381 30.7353C47.2971 30.8917 47.3692 30.8775 47.4894 30.8701C47.7848 30.8507 47.9502 30.9803 48.0428 31.2752C48.1488 31.6206 48.1356 31.9943 48.0054 32.3303C47.9347 32.5195 47.8152 32.6744 48.1156 32.7645C48.2393 32.8017 48.2803 32.9715 48.3029 33.1055C48.3878 33.6037 48.4903 34.1011 48.5348 34.6045C48.6564 35.9739 48.9589 37.3091 49.2041 38.6539C49.4381 39.931 49.899 41.1381 50.3746 42.3355C50.7775 43.3497 51.1769 44.3646 51.4476 45.4302C51.6978 46.4161 51.736 47.3909 51.4681 48.3887C51.2787 49.0932 51.0207 49.7656 50.7613 50.441C50.2446 51.7948 49.6169 53.0957 49.0649 54.4316C48.6988 55.314 48.3531 56.2061 47.9785 57.084C47.4965 58.2144 47.0674 59.3641 46.8384 60.5839C46.6624 61.5552 46.5341 62.5355 46.4539 63.5208C46.3429 64.7487 46.3026 65.9818 46.2722 67.2135C45.9492 67.2135 45.8149 67.1725 45.4756 67.1748C45.2683 67.179 45.061 67.172 44.8543 67.1539C44.5009 67.1219 44.1207 67.1487 43.8047 67.0899C43.4739 67.0295 43.1382 67.0154 42.801 66.9849C42.1896 66.9342 41.5464 66.9178 40.9336 66.9178C39.3036 66.9178 37.6702 66.8888 36.0424 66.9514C35.3016 66.9797 34.5651 67.0206 33.825 67.0556C33.49 67.0712 33.1444 67.0675 32.8115 67.0966C32.7408 67.1025 32.5817 67.104 32.4446 67.1137C32.352 66.6669 32.2389 66.2298 32.2163 65.7733C32.2092 65.6311 32.1612 65.4397 32.3139 65.372C32.5549 65.2655 32.4644 65.1649 32.3506 65.0346C31.7929 64.398 31.2529 63.7427 30.6754 63.1261C29.8171 62.2239 29.1307 61.157 28.6532 59.9829C28.2291 58.9248 27.9308 57.8175 27.593 56.7251C27.5247 56.4764 27.4714 56.2235 27.4332 55.9678C27.4184 55.8866 27.4021 55.7764 27.4778 55.7272C27.5668 55.6692 27.6601 55.7205 27.7308 55.7965C27.8623 55.938 27.9959 56.078 28.1231 56.2247C28.5225 56.6689 28.9765 57.0548 29.4731 57.3722C29.4112 57.2781 29.3401 57.191 29.2611 57.1123C28.6518 56.6208 28.2355 55.9655 27.8262 55.2968C27.171 54.2275 26.7398 53.051 26.2967 51.8789C25.6329 50.1215 24.965 48.3671 24.1055 46.6999C23.7203 45.95 23.3457 45.1919 23.1506 44.352C22.9103 43.3229 23.205 42.4673 24.02 41.8522C24.328 41.624 24.6652 41.443 25.0215 41.3145C24.8017 41.2639 24.6646 41.3741 24.5147 41.4315C24.3649 41.4888 24.2405 41.57 24.0857 41.5886C23.9118 41.6102 23.851 41.5446 23.8843 41.3555C23.915 41.2361 23.966 41.1236 24.0348 41.0234C24.1546 40.8259 24.2523 40.6145 24.326 40.3934C24.5084 39.7813 24.907 39.3911 25.4732 39.1789C25.6725 39.1044 25.8711 39.03 26.0705 38.9555C26.368 38.846 26.5179 38.6077 26.5787 38.298C26.6322 38.0699 26.6414 37.8328 26.6055 37.601C26.5542 37.2975 26.4802 36.9987 26.3843 36.7074C26.2769 36.3909 26.3617 36.2867 26.6868 36.2681C27.1166 36.2427 27.4643 36.4326 27.7704 36.7208C28.3775 37.2964 28.7564 38.0433 29.0759 38.814C29.5325 39.9139 29.5502 41.0979 29.5791 42.2744C29.5834 42.4643 29.4965 42.5075 29.3402 42.4978C29.2512 42.4933 29.172 42.4479 29.0257 42.401C29.5113 43.0183 29.8067 43.6818 30.2174 44.2678C30.9242 45.2724 31.5689 46.3208 32.3294 47.2829C32.7012 47.7528 33.1352 48.0968 33.7169 48.2316C34.5283 48.42 35.332 48.6426 36.1406 48.8422C36.7577 48.9949 37.374 49.1505 37.996 49.2734C38.3014 49.3337 38.6138 49.4178 38.9326 49.3441C37.5896 49.0731 36.2869 48.6739 34.9743 48.2979C34.8471 48.2721 34.725 48.2238 34.6132 48.1549C34.4612 48.0454 34.4647 47.9427 34.6294 47.8652C34.7486 47.8127 34.8709 47.7685 34.9956 47.7327C36.3343 47.309 37.714 47.3254 39.0874 47.3708C40.0649 47.4028 41.0396 47.5465 42.0171 47.6411C42.0164 47.621 42.0089 47.6018 41.9959 47.5871C41.983 47.5723 41.9654 47.563 41.9465 47.5607C41.2036 47.3373 40.4741 47.0506 39.6889 47.0208C39.515 47.0141 39.3927 46.9538 39.4252 46.7274C39.5305 45.9902 39.8366 45.3438 40.2352 44.7407C40.3399 44.5813 40.4798 44.5627 40.624 44.6997L41.1103 45.1622C40.9443 44.8507 40.8344 44.5096 40.7859 44.1561C40.723 43.7153 40.9053 43.4993 41.328 43.4949C41.4927 43.4949 41.6574 43.509 41.8228 43.509C41.9731 43.5071 42.1234 43.517 42.2723 43.5388C41.0629 42.9922 39.9921 42.2729 39.1276 41.2192C38.4979 40.453 38.3466 39.6153 38.6576 38.6688C38.6859 38.5832 38.7721 38.5035 38.6908 38.3844C37.7663 39.1223 36.7358 39.0456 35.6995 38.7656C34.6874 38.4923 33.6434 38.2533 33.0603 37.1371C33.0058 37.4066 33.0984 37.6062 33.1119 37.8154C33.1239 38.0031 33.0687 38.1245 32.8998 38.1878C32.0311 38.5005 31.1511 38.7708 30.2231 38.7462C29.7679 38.7343 29.3339 38.5809 29.0526 38.1669C28.779 37.7648 28.5415 37.3366 28.2814 36.9241C28.1542 36.7223 28.2482 36.6262 28.4228 36.5696C28.5458 36.5264 28.6758 36.5041 28.7939 36.4512C29.4491 36.1578 30.0881 35.8451 30.3567 35.0625C30.3825 34.993 30.4225 34.9304 30.4738 34.8789C30.5251 34.8275 30.5864 34.7884 30.6535 34.7646C31.3212 34.495 31.9871 34.2203 32.651 33.9403C32.7288 33.9075 32.8221 33.842 32.8829 33.8859C33.0702 34.02 33.2073 33.9038 33.3571 33.8182C33.4952 33.7461 33.6503 33.7184 33.8031 33.7385C34.645 33.8129 35.4868 33.8941 36.3293 33.9574C37.5232 34.046 38.7184 34.1287 39.908 34.2716C40.3151 34.3201 40.7321 34.3461 41.1216 34.4824C41.7019 34.6909 42.1112 35.0573 41.7125 35.7446C41.7125 35.749 41.7231 35.7632 41.7394 35.7922C41.8892 35.7058 42.0405 35.6187 42.1903 35.5309C42.5338 35.3298 42.5437 35.3216 42.7996 35.6478C43.288 36.2673 43.722 36.93 44.1489 37.5958C44.6946 38.4469 45.2205 39.3159 45.8531 40.0978C47.1628 41.7062 48.4987 43.2849 49.8064 44.8881C50.2432 45.4228 50.639 45.9917 50.8256 46.6917C50.8652 46.8406 50.8185 47.0223 50.9578 47.1563C50.9783 46.2263 50.627 45.4436 50.1478 44.7101C49.7067 44.04 49.1879 43.4264 48.6875 42.8038C47.7149 41.596 46.7465 40.3867 45.8347 39.1253C44.8953 37.8266 43.9524 36.5287 42.9042 35.3216C42.753 35.1477 42.6514 34.9325 42.6109 34.7006C42.5091 34.1585 42.5664 33.6141 42.5649 33.0713C42.5707 32.9961 42.6042 32.9264 42.6582 32.8769C42.7438 32.7786 42.9572 32.8106 42.9487 32.6766C42.9424 32.5731 42.7798 32.486 42.6971 32.3787C42.6465 32.3102 42.6045 32.2351 42.572 32.1554C42.4229 31.8292 42.3501 31.4785 42.2822 31.127C41.9945 29.6377 41.7012 28.1484 41.5408 26.639C41.5012 26.2667 41.5153 25.8943 41.5026 25.5265C41.5026 25.4654 41.4983 25.3776 41.5549 25.3604C41.7669 25.3083 41.6998 25.251 41.5747 25.1616C41.504 25.1102 41.5118 25.0127 41.4955 24.9248C41.3372 24.0789 41.1739 23.2337 41.0128 22.3878C40.882 21.6967 40.7463 21.005 40.7965 20.2938C40.8841 19.0443 41.6602 18.2885 42.7671 18.1671C43.0852 18.1314 43.0929 18.1671 43.1629 18.4858C43.3043 19.1344 43.4018 19.7957 43.6471 20.4159C43.8061 20.8166 43.9871 21.1882 44.4684 21.2209C44.6041 21.2306 44.6218 21.3244 44.6494 21.4443C44.9429 22.7292 45.3128 23.9934 45.757 25.2294C46.198 26.4647 46.7868 27.6398 47.1176 28.9199L47.1204 28.9266ZM44.3412 20.6714C44.2924 20.7041 44.2486 20.6714 44.2133 20.6416C44.1255 20.5787 44.0529 20.495 44.0012 20.3973C43.6598 19.7137 43.5531 18.9512 43.3516 18.2215C43.3064 18.0591 43.4315 17.9891 43.5976 18.0547C43.7128 18.0993 43.7531 18.2036 43.7828 18.3078C43.9743 18.9907 44.1602 19.6758 44.3483 20.3601C44.3616 20.4222 44.3713 20.4851 44.3772 20.5485C44.3862 20.5702 44.3874 20.5946 44.3806 20.6172C44.3739 20.6397 44.3596 20.659 44.3405 20.6714H44.3412ZM29.847 35.4221C29.8187 35.5169 29.7658 35.6015 29.6944 35.6664C29.2764 35.9994 28.7861 36.2173 28.268 36.3001C28.1309 36.3001 28.0411 36.3001 27.9718 36.2107C27.8743 36.0804 27.8559 35.9769 28.0312 35.9129C28.3726 35.7878 28.7154 35.6664 29.0554 35.5405C29.2745 35.4571 29.4894 35.364 29.705 35.2732C29.7481 35.2546 29.7905 35.2248 29.8336 35.2591C29.8937 35.306 29.8675 35.3708 29.847 35.4259V35.4221ZM26.2875 37.213C26.4288 37.5734 26.4041 37.9413 26.3235 38.3024C26.2755 38.5154 26.0966 38.6494 25.9065 38.7217C25.5884 38.8438 25.2838 38.9965 24.9791 39.1499C24.6088 39.336 24.5932 39.3256 24.6003 38.8081C24.6907 38.2377 24.7614 37.5578 25.2081 37.0209C25.6068 36.5399 26.0507 36.6262 26.2875 37.2153V37.213ZM53.3405 28.8983C52.7644 28.2162 51.5494 27.919 50.8666 28.4127C50.8051 28.448 50.7416 28.4794 50.6765 28.5066C50.4913 28.6041 50.4093 28.5118 50.3937 28.3271C50.3718 28.0933 50.3584 27.8587 50.3464 27.6242C50.3054 26.8296 50.398 26.0455 50.4694 25.2562C50.5697 24.1459 50.7054 23.052 51.0285 21.9864C51.1448 21.6235 51.227 21.2493 51.2737 20.8694C51.2925 20.7469 51.2772 20.6213 51.2297 20.5078C51.1822 20.3943 51.1044 20.2977 51.0058 20.2298C50.4298 19.783 49.7873 19.7026 49.0974 19.8024C48.5659 19.8768 48.139 20.1151 47.8506 20.6029C47.7142 20.8337 47.5537 21.0496 47.4505 21.3006C46.9713 22.4488 46.6257 23.6366 46.4843 24.8868C46.4659 25.0529 46.4984 25.3046 46.3083 25.3187C46.1181 25.3329 46.0545 25.0953 46.0044 24.9151C45.9181 24.6076 45.8347 24.2993 45.7492 23.9918C45.4495 22.9135 45.1343 21.8397 44.8543 20.7563C44.6423 19.9222 44.4691 19.0748 44.2769 18.2334C44.173 17.7777 43.9743 17.619 43.5326 17.6101C43.0736 17.6116 42.6177 17.6908 42.1825 17.8447C40.9202 18.2542 40.4056 19.1761 40.3349 20.2782C40.2642 21.3803 40.4763 22.4727 40.7328 23.5412C40.9088 24.2755 41.0785 25.0022 41.0502 25.7685C41.0365 26.3506 41.081 26.9327 41.1831 27.505C41.2729 28.0531 41.3951 28.5929 41.4899 29.1388C41.6274 30.0152 41.8232 30.8804 42.0758 31.7279C42.194 32.0666 42.2015 32.4372 42.097 32.7809C41.9868 33.1264 41.9981 33.4875 42.0108 33.8472C42.0221 34.1532 41.9401 34.2195 41.6574 34.1451C41.4418 34.0855 41.2524 33.9574 41.0304 33.9075C40.0734 33.6923 39.0973 33.6581 38.1324 33.565C36.7739 33.4339 35.409 33.4086 34.0449 33.3997C33.5161 33.3948 32.9903 33.4841 32.4899 33.664C31.3589 34.0691 30.2506 34.5494 29.1289 34.9873C28.3966 35.2732 27.7004 35.6917 26.8833 35.6731C26.7651 35.6746 26.6471 35.6833 26.5299 35.6991C25.5559 35.793 24.8597 36.2792 24.4879 37.2629C24.2617 37.8586 24.2242 38.4908 24.1571 39.1141C24.1043 39.6301 23.9792 40.135 23.786 40.6123C23.5365 41.2274 23.2297 41.8112 22.9414 42.4055C22.6028 43.1025 22.5759 43.8322 22.7371 44.5724C23.0014 45.7884 23.5485 46.8868 24.0744 47.9903C24.4639 48.8094 24.8781 49.6107 25.2852 50.4171C25.8068 51.4522 26.0585 52.59 26.4161 53.6884C26.5575 54.1195 26.7483 54.5321 26.8402 54.9811C27.154 56.4994 27.4057 58.0342 27.9584 59.49C28.3436 60.5034 28.7465 61.4908 29.4046 62.3494C29.745 62.7746 30.1148 63.1729 30.5107 63.5409C31.154 64.1641 31.4925 64.9401 31.6537 65.8269C31.7661 66.4442 31.8657 67.066 32.0177 67.6737C32.0771 67.906 32.1781 67.9566 32.4418 67.9075C32.4716 67.9027 32.5005 67.8929 32.5273 67.8784C32.9161 67.7295 33.4575 67.6953 33.842 67.6953C34.5488 67.6953 35.5384 67.6349 36.2452 67.6349C37.2016 67.6349 37.8964 67.6029 38.8499 67.6029C39.1842 67.6029 39.4153 67.5754 39.7518 67.5746C39.9674 67.5746 40.7413 67.5612 40.9534 67.5649C41.3951 67.5625 41.8366 67.5859 42.2758 67.6349C42.7848 67.6901 43.206 67.7005 43.7602 67.7839C44.0373 67.8256 44.4423 67.8055 44.7222 67.8055C45.229 67.8055 45.7612 67.8956 46.2645 67.8956C46.3083 67.8956 46.3613 67.8956 46.4164 67.9023C46.4799 67.9111 46.544 67.9141 46.608 67.9112C46.7903 67.9112 46.9564 67.9403 46.948 67.6387C46.9324 67.0817 46.9663 66.5217 46.9564 65.9654C46.9094 63.8756 47.1547 61.7898 47.6845 59.7752C48.205 57.8239 48.8998 55.929 49.7597 54.1158C50.6291 52.2817 51.5155 50.4544 51.9883 48.4468C52.1382 47.8071 52.223 47.169 52.1389 46.5025C52.0201 45.5635 51.6844 44.6953 51.4101 43.8061C51.1705 43.0302 50.8108 42.3027 50.5881 41.5186C50.4857 41.188 50.4876 40.8314 50.5938 40.5021C50.9003 39.5158 51.157 38.5131 51.3628 37.4982C51.5869 36.4393 51.7805 35.3715 52.1714 34.3565C52.3264 33.9264 52.4341 33.4789 52.4923 33.0229C52.6243 32.081 52.8638 31.1594 53.2055 30.2781C53.3044 30.0294 53.356 29.7568 53.4543 29.5096C53.5525 29.2624 53.4882 29.0799 53.3362 28.9005" fill="black"/>
<path d="M53.3405 28.8983C52.7644 28.2162 51.5494 27.919 50.8666 28.4127C50.8051 28.448 50.7416 28.4794 50.6765 28.5066C50.4913 28.6041 50.4093 28.5118 50.3937 28.3271C50.3718 28.0933 50.3584 27.8587 50.3464 27.6242C50.3054 26.8296 50.398 26.0455 50.4694 25.2562C50.5697 24.1459 50.7054 23.052 51.0285 21.9864C51.1448 21.6235 51.227 21.2493 51.2737 20.8694C51.2925 20.7469 51.2772 20.6213 51.2297 20.5078C51.1822 20.3943 51.1044 20.2977 51.0058 20.2298C50.4298 19.783 49.7873 19.7026 49.0974 19.8024C48.5659 19.8768 48.139 20.1151 47.8506 20.6029C47.7142 20.8337 47.5537 21.0496 47.4505 21.3006C46.9713 22.4488 46.6256 23.6366 46.4843 24.8868C46.4659 25.0529 46.4984 25.3046 46.3083 25.3187C46.1181 25.3329 46.0545 25.0953 46.0043 24.9151C45.9181 24.6076 45.8347 24.2993 45.7492 23.9918C45.4495 22.9135 45.1342 21.8397 44.8543 20.7563C44.6423 19.9222 44.4691 19.0748 44.2769 18.2334C44.173 17.7777 43.9743 17.619 43.5326 17.6101C43.0736 17.6116 42.6177 17.6908 42.1825 17.8447C40.9202 18.2542 40.4056 19.1761 40.3349 20.2782C40.2642 21.3803 40.4763 22.4727 40.7328 23.5412C40.9088 24.2755 41.0785 25.0022 41.0502 25.7685C41.0365 26.3506 41.081 26.9327 41.1831 27.505C41.2729 28.0531 41.3951 28.5929 41.4899 29.1388C41.6274 30.0152 41.8232 30.8804 42.0758 31.7279C42.194 32.0666 42.2015 32.4372 42.097 32.7809C41.9868 33.1264 41.9981 33.4875 42.0108 33.8472C42.0221 34.1532 41.9401 34.2195 41.6574 34.1451C41.4418 34.0855 41.2524 33.9574 41.0304 33.9075C40.0734 33.6923 39.0973 33.6581 38.1324 33.565C36.7739 33.4339 35.409 33.4086 34.0449 33.3997C33.5161 33.3948 32.9903 33.4841 32.4899 33.664C31.3589 34.0691 30.2506 34.5494 29.1289 34.9873C28.3966 35.2732 27.7004 35.6917 26.8833 35.6731C26.7651 35.6746 26.6471 35.6833 26.5299 35.6991C25.5559 35.793 24.8597 36.2792 24.4879 37.2629C24.2617 37.8586 24.2242 38.4908 24.1571 39.1141C24.1043 39.6301 23.9792 40.135 23.786 40.6123C23.5365 41.2274 23.2297 41.8112 22.9414 42.4055C22.6028 43.1025 22.5759 43.8322 22.7371 44.5724C23.0014 45.7884 23.5485 46.8868 24.0744 47.9903C24.4639 48.8094 24.8781 49.6107 25.2852 50.4171C25.8068 51.4522 26.0585 52.59 26.4161 53.6884C26.5575 54.1195 26.7483 54.5321 26.8402 54.9811C27.154 56.4994 27.4057 58.0342 27.9584 59.49C28.3436 60.5034 28.7465 61.4908 29.4046 62.3494C29.745 62.7746 30.1148 63.1729 30.5107 63.5409C31.154 64.1641 31.4925 64.9401 31.6537 65.8269C31.7661 66.4442 31.8657 67.066 32.0177 67.6737C32.0771 67.906 32.1781 67.9566 32.4418 67.9075C32.4716 67.9027 32.5005 67.8929 32.5273 67.8784C32.9161 67.7295 33.4575 67.6953 33.842 67.6953C34.5488 67.6953 35.5384 67.6349 36.2452 67.6349C37.2016 67.6349 37.8964 67.6029 38.8499 67.6029C39.1842 67.6029 39.4153 67.5754 39.7518 67.5746C39.9674 67.5746 40.7413 67.5612 40.9534 67.565C41.3951 67.5625 41.8366 67.5859 42.2758 67.6349C42.7848 67.6901 43.206 67.7005 43.7602 67.7839C44.0373 67.8256 44.4423 67.8055 44.7222 67.8055C45.229 67.8055 45.7612 67.8956 46.2645 67.8956C46.3083 67.8956 46.3613 67.8956 46.4164 67.9023C46.4799 67.9111 46.544 67.9141 46.608 67.9112C46.7903 67.9112 46.9564 67.9403 46.948 67.6387C46.9324 67.0817 46.9663 66.5217 46.9564 65.9654C46.9094 63.8756 47.1547 61.7898 47.6845 59.7752C48.205 57.8239 48.8998 55.929 49.7597 54.1158C50.6291 52.2818 51.5155 50.4544 51.9883 48.4468C52.1382 47.8071 52.223 47.169 52.1389 46.5025C52.0201 45.5635 51.6844 44.6953 51.4101 43.8061C51.1705 43.0302 50.8108 42.3027 50.5881 41.5186C50.4857 41.188 50.4876 40.8314 50.5938 40.5021C50.9003 39.5158 51.157 38.5131 51.3628 37.4982C51.5869 36.4393 51.7805 35.3715 52.1714 34.3565C52.3264 33.9264 52.4341 33.4789 52.4923 33.0229C52.6243 32.081 52.8638 31.1594 53.2055 30.2781C53.3044 30.0294 53.356 29.7568 53.4543 29.5096C53.5525 29.2624 53.4882 29.0799 53.3362 28.9005M53.1334 29.4381C53.0182 29.8105 52.9355 30.1999 52.78 30.5618C52.7623 30.6042 52.7588 30.6713 52.6994 30.6638C52.64 30.6564 52.652 30.5938 52.6535 30.5477C52.6549 30.5015 52.6605 30.4732 52.6648 30.4367C52.686 30.0644 52.792 29.7084 52.8874 29.351C52.9114 29.2616 52.9531 29.1849 53.0613 29.2237C53.1694 29.2624 53.1602 29.3525 53.132 29.4381H53.1334ZM52.5114 29.2728C52.4089 29.5759 52.3926 29.8961 52.3092 30.2036C52.206 30.5856 52.1679 30.981 52.3799 31.3504C52.4506 31.4777 52.4336 31.6185 52.4004 31.7458C52.1778 32.6141 52.059 33.5173 51.7183 34.3446C51.3508 35.2382 51.372 36.1973 51.1529 37.1125C51.0659 37.4848 51.0179 37.8631 50.8701 38.2161C50.7818 38.432 50.6779 38.6435 50.463 38.7462C50.3358 38.8081 50.328 38.8833 50.4178 38.9644C50.5408 39.0761 50.4884 39.1796 50.4354 39.2921C50.345 39.4902 50.2453 39.6838 50.1675 39.8878C50.0969 40.0687 50.0439 39.9898 49.9979 39.8878C49.9004 39.6644 49.9343 39.4269 49.9272 39.2459C49.9272 38.2205 50.1393 37.2823 50.3796 36.3544C50.4588 36.0521 50.622 35.7706 50.7104 35.4609C50.8857 34.8502 50.9514 34.2337 50.8277 33.5992C50.7839 33.3207 50.7657 33.0385 50.7733 32.7563C50.7669 31.7518 50.6376 30.7569 50.6136 29.7539C50.6015 29.2602 50.8171 28.9995 51.2023 28.8126C51.6476 28.5974 52.0661 28.6473 52.4654 28.9318C52.5941 29.0241 52.5418 29.1693 52.5064 29.2728H52.5114ZM50.2156 22.7281C50.2019 22.6631 50.1957 22.5966 50.1972 22.53C50.1916 22.218 50.2601 21.9797 50.3188 21.7407C50.3951 21.4302 50.4644 21.1167 50.5584 20.8121C50.6192 20.6155 50.7436 20.6081 50.8673 20.7659C50.9041 20.8152 50.9289 20.8731 50.9397 20.9348C50.9504 20.9964 50.9466 21.0599 50.9288 21.1196C50.7924 21.6684 50.6955 22.2284 50.5188 22.7653C50.487 22.8614 50.475 23.0192 50.3478 23.0044C50.2206 22.9895 50.2439 22.8286 50.2156 22.7281ZM50.2043 20.7726C49.9605 21.4585 49.8636 22.1763 49.8078 22.9023C49.7939 23.09 49.8479 23.2762 49.959 23.4236C50.1866 23.7274 50.1774 24.0677 50.1152 24.411C49.9958 25.0655 49.9506 25.729 49.8799 26.3888C49.8516 26.6539 49.7314 26.7239 49.5074 26.7068C49.431 26.7008 49.3172 26.668 49.2904 26.7723C49.2635 26.8765 49.3801 26.9212 49.4445 26.9465C49.817 27.1022 49.8686 27.406 49.8756 27.785C49.8954 28.5505 49.9817 29.3138 50.0064 30.0793C50.0262 30.6973 50.1046 31.3132 50.0849 31.9327C50.0809 32.0567 50.0942 32.1806 50.1244 32.3006C50.2071 32.6215 50.2177 32.9387 49.9753 33.2008C49.8721 33.3118 49.8898 33.3848 50.0248 33.4242C50.2658 33.492 50.3075 33.6618 50.3075 33.9023C50.3204 34.4093 50.2707 34.9159 50.1598 35.4095C50.1089 35.612 50.0538 35.8272 49.7979 35.8481C49.6714 35.8585 49.6671 35.9359 49.7159 36.026C49.9506 36.4557 49.7929 36.8883 49.7237 37.3188C49.6974 37.4304 49.6629 37.5397 49.6205 37.6457C49.4169 37.4707 49.4233 37.2152 49.3879 37.0015C49.2586 36.2122 49.1759 35.4147 49.0508 34.6239C48.9801 34.1875 48.8825 33.7564 48.7843 33.3252C48.674 32.8442 48.6981 32.3385 48.5602 31.8672C48.2775 30.8917 48.0153 29.9073 47.6088 28.975C47.3592 28.4173 47.1466 27.842 46.9727 27.2533C46.9289 27.0999 46.8207 26.887 47.1353 26.9056C47.2123 26.91 47.1975 26.8601 47.1671 26.8147C47.1427 26.7721 47.1138 26.7326 47.0808 26.6971C46.7274 26.3717 46.755 25.9733 46.8575 25.5429C47.0816 24.6016 47.2561 23.6455 47.5134 22.7132C47.7325 21.9224 48.0188 21.1494 48.6026 20.5537C48.9886 20.1605 49.4438 20.0258 49.9619 20.197C50.2757 20.3013 50.3223 20.448 50.2057 20.7741L50.2043 20.7726ZM47.1204 28.9266C47.2738 29.5223 47.5049 30.1001 47.3381 30.7353C47.2971 30.8917 47.3692 30.8775 47.4894 30.8701C47.7848 30.8507 47.9502 30.9803 48.0428 31.2752C48.1488 31.6206 48.1356 31.9943 48.0054 32.3303C47.9347 32.5195 47.8152 32.6744 48.1156 32.7645C48.2393 32.8017 48.2803 32.9715 48.3029 33.1055C48.3878 33.6037 48.4903 34.1011 48.5348 34.6045C48.6564 35.9739 48.9589 37.3091 49.2041 38.6539C49.4381 39.931 49.899 41.1381 50.3746 42.3355C50.7775 43.3497 51.1769 44.3646 51.4476 45.4302C51.6978 46.4161 51.736 47.3909 51.4681 48.3887C51.2787 49.0932 51.0207 49.7656 50.7613 50.441C50.2446 51.7948 49.6169 53.0957 49.0649 54.4316C48.6988 55.314 48.3531 56.2061 47.9785 57.084C47.4965 58.2144 47.0674 59.3641 46.8384 60.5839C46.6624 61.5552 46.5341 62.5355 46.4539 63.5208C46.3429 64.7487 46.3026 65.9818 46.2722 67.2135C45.9492 67.2135 45.8149 67.1725 45.4756 67.1748C45.2683 67.179 45.061 67.172 44.8543 67.1539C44.5009 67.1219 44.1207 67.1487 43.8047 67.0899C43.4739 67.0295 43.1382 67.0154 42.801 66.9849C42.1896 66.9342 41.5464 66.9178 40.9336 66.9178C39.3036 66.9178 37.6702 66.8888 36.0424 66.9514C35.3016 66.9797 34.5651 67.0206 33.825 67.0556C33.49 67.0712 33.1444 67.0675 32.8115 67.0966C32.7408 67.1025 32.5817 67.104 32.4446 67.1137C32.352 66.6669 32.2389 66.2298 32.2163 65.7733C32.2092 65.6311 32.1612 65.4397 32.3139 65.372C32.5549 65.2655 32.4644 65.1649 32.3506 65.0346C31.7929 64.398 31.2529 63.7427 30.6754 63.1261C29.8171 62.2239 29.1307 61.157 28.6532 59.9829C28.2291 58.9248 27.9308 57.8175 27.593 56.7251C27.5247 56.4764 27.4714 56.2235 27.4332 55.9678C27.4184 55.8866 27.4021 55.7764 27.4778 55.7272C27.5668 55.6692 27.6601 55.7205 27.7308 55.7965C27.8623 55.938 27.9959 56.078 28.1231 56.2247C28.5225 56.6689 28.9765 57.0548 29.4731 57.3722C29.4112 57.2781 29.3401 57.191 29.2611 57.1123C28.6518 56.6208 28.2355 55.9655 27.8262 55.2968C27.171 54.2275 26.7398 53.051 26.2967 51.8789C25.6329 50.1215 24.965 48.3671 24.1055 46.6999C23.7203 45.95 23.3457 45.1919 23.1506 44.352C22.9103 43.3229 23.205 42.4673 24.02 41.8522C24.328 41.624 24.6652 41.443 25.0215 41.3145C24.8017 41.2639 24.6646 41.3741 24.5147 41.4315C24.3649 41.4888 24.2405 41.57 24.0857 41.5886C23.9118 41.6102 23.851 41.5446 23.8843 41.3555C23.915 41.2361 23.966 41.1236 24.0348 41.0234C24.1546 40.8259 24.2523 40.6145 24.326 40.3934C24.5084 39.7813 24.907 39.3911 25.4732 39.1789C25.6725 39.1044 25.8711 39.03 26.0705 38.9555C26.368 38.846 26.5179 38.6077 26.5787 38.298C26.6322 38.0699 26.6414 37.8328 26.6055 37.601C26.5542 37.2975 26.4802 36.9987 26.3843 36.7074C26.2769 36.3909 26.3617 36.2867 26.6868 36.2681C27.1166 36.2427 27.4643 36.4326 27.7704 36.7208C28.3775 37.2964 28.7564 38.0433 29.0759 38.814C29.5325 39.9139 29.5502 41.0979 29.5791 42.2744C29.5834 42.4643 29.4965 42.5075 29.3402 42.4978C29.2512 42.4933 29.172 42.4479 29.0257 42.401C29.5113 43.0183 29.8067 43.6818 30.2174 44.2678C30.9242 45.2724 31.5689 46.3208 32.3294 47.2829C32.7012 47.7528 33.1352 48.0968 33.7169 48.2316C34.5283 48.42 35.332 48.6426 36.1406 48.8422C36.7577 48.9949 37.374 49.1505 37.996 49.2734C38.3014 49.3337 38.6138 49.4178 38.9326 49.3441C37.5896 49.0731 36.2869 48.6739 34.9743 48.2979C34.8471 48.2721 34.725 48.2238 34.6132 48.1549C34.4612 48.0454 34.4647 47.9427 34.6294 47.8652C34.7486 47.8127 34.8709 47.7685 34.9956 47.7327C36.3343 47.309 37.714 47.3254 39.0874 47.3708C40.0649 47.4028 41.0396 47.5465 42.0171 47.6411C42.0164 47.621 42.0089 47.6018 41.9959 47.5871C41.983 47.5723 41.9654 47.563 41.9465 47.5607C41.2036 47.3373 40.4742 47.0506 39.6889 47.0208C39.515 47.0141 39.3927 46.9538 39.4252 46.7274C39.5305 45.9902 39.8366 45.3438 40.2352 44.7407C40.3399 44.5813 40.4798 44.5627 40.624 44.6997L41.1103 45.1622C40.9443 44.8507 40.8344 44.5096 40.7859 44.1561C40.723 43.7153 40.9053 43.4994 41.328 43.4949C41.4927 43.4949 41.6574 43.509 41.8228 43.509C41.9731 43.5071 42.1234 43.517 42.2723 43.5388C41.0629 42.9922 39.9921 42.2729 39.1277 41.2192C38.4979 40.453 38.3466 39.6153 38.6576 38.6688C38.6859 38.5832 38.7721 38.5035 38.6908 38.3844C37.7663 39.1223 36.7358 39.0456 35.6995 38.7656C34.6874 38.4923 33.6434 38.2533 33.0603 37.1371C33.0058 37.4066 33.0984 37.6062 33.1119 37.8154C33.1239 38.0031 33.0687 38.1245 32.8998 38.1878C32.0311 38.5005 31.1511 38.7708 30.2231 38.7462C29.7679 38.7343 29.3339 38.5809 29.0526 38.1669C28.779 37.7648 28.5415 37.3366 28.2814 36.9241C28.1542 36.7223 28.2482 36.6262 28.4228 36.5696C28.5458 36.5264 28.6758 36.5041 28.7939 36.4512C29.4491 36.1578 30.0881 35.8451 30.3567 35.0625C30.3825 34.993 30.4225 34.9304 30.4738 34.8789C30.5251 34.8275 30.5864 34.7884 30.6535 34.7646C31.3212 34.495 31.9871 34.2203 32.651 33.9403C32.7288 33.9075 32.8221 33.842 32.8829 33.8859C33.0702 34.02 33.2073 33.9038 33.3571 33.8182C33.4952 33.7461 33.6503 33.7184 33.8031 33.7385C34.645 33.8129 35.4868 33.8941 36.3293 33.9574C37.5232 34.046 38.7184 34.1287 39.908 34.2716C40.3151 34.3201 40.7321 34.3461 41.1216 34.4824C41.7019 34.6909 42.1112 35.0573 41.7125 35.7446C41.7125 35.749 41.7231 35.7632 41.7394 35.7922C41.8892 35.7058 42.0405 35.6187 42.1903 35.5309C42.5338 35.3298 42.5437 35.3216 42.7996 35.6478C43.288 36.2673 43.722 36.93 44.1489 37.5958C44.6946 38.4469 45.2205 39.3159 45.8531 40.0978C47.1628 41.7062 48.4987 43.2849 49.8064 44.8881C50.2432 45.4228 50.639 45.9917 50.8256 46.6917C50.8652 46.8406 50.8185 47.0223 50.9578 47.1563C50.9783 46.2263 50.627 45.4436 50.1478 44.7102C49.7067 44.04 49.1879 43.4264 48.6875 42.8038C47.7149 41.596 46.7465 40.3867 45.8347 39.1253C44.8953 37.8266 43.9524 36.5287 42.9042 35.3216C42.753 35.1477 42.6514 34.9325 42.6109 34.7006C42.5091 34.1585 42.5664 33.6141 42.5649 33.0713C42.5707 32.9961 42.6042 32.9264 42.6582 32.8769C42.7438 32.7786 42.9572 32.8106 42.9487 32.6766C42.9424 32.5731 42.7798 32.486 42.6971 32.3787C42.6465 32.3102 42.6045 32.2351 42.572 32.1554C42.4229 31.8292 42.3501 31.4785 42.2822 31.127C41.9945 29.6377 41.7012 28.1484 41.5408 26.639C41.5012 26.2667 41.5153 25.8943 41.5026 25.5265C41.5026 25.4654 41.4983 25.3776 41.5549 25.3604C41.7669 25.3083 41.6998 25.251 41.5747 25.1616C41.504 25.1102 41.5118 25.0127 41.4955 24.9248C41.3372 24.0789 41.1739 23.2337 41.0128 22.3878C40.882 21.6967 40.7463 21.005 40.7965 20.2938C40.8841 19.0443 41.6602 18.2885 42.7671 18.1671C43.0852 18.1314 43.0929 18.1671 43.1629 18.4858C43.3043 19.1344 43.4018 19.7957 43.6471 20.4159C43.8061 20.8166 43.9871 21.1882 44.4684 21.2209C44.6041 21.2306 44.6218 21.3244 44.6494 21.4443C44.9429 22.7292 45.3128 23.9934 45.757 25.2294C46.198 26.4647 46.7868 27.6398 47.1176 28.9199L47.1204 28.9266ZM44.3412 20.6714C44.2924 20.7041 44.2486 20.6714 44.2133 20.6416C44.1255 20.5787 44.0529 20.495 44.0012 20.3973C43.6598 19.7137 43.5531 18.9512 43.3516 18.2215C43.3064 18.0591 43.4315 17.9891 43.5976 18.0547C43.7128 18.0993 43.7531 18.2036 43.7828 18.3078C43.9743 18.9907 44.1602 19.6758 44.3483 20.3601C44.3616 20.4222 44.3713 20.4851 44.3772 20.5485C44.3862 20.5702 44.3874 20.5946 44.3806 20.6172C44.3739 20.6397 44.3596 20.659 44.3405 20.6714H44.3412ZM29.847 35.4221C29.8187 35.5169 29.7658 35.6015 29.6944 35.6664C29.2764 35.9994 28.7861 36.2173 28.268 36.3001C28.1309 36.3001 28.0411 36.3001 27.9718 36.2107C27.8743 36.0804 27.8559 35.9769 28.0312 35.9129C28.3726 35.7878 28.7154 35.6664 29.0554 35.5405C29.2745 35.4571 29.4894 35.3641 29.705 35.2732C29.7481 35.2546 29.7905 35.2248 29.8336 35.2591C29.8937 35.306 29.8675 35.3708 29.847 35.4259V35.4221ZM26.2875 37.213C26.4288 37.5734 26.4041 37.9413 26.3235 38.3024C26.2755 38.5154 26.0966 38.6494 25.9065 38.7217C25.5884 38.8438 25.2838 38.9965 24.9791 39.1499C24.6088 39.336 24.5932 39.3256 24.6003 38.8081C24.6907 38.2377 24.7614 37.5578 25.2081 37.0209C25.6068 36.5399 26.0507 36.6262 26.2875 37.2153V37.213Z" stroke="black" stroke-width="0.25" stroke-miterlimit="10"/>
</svg>
