<svg width="107" height="107" viewBox="0 0 107 107" fill="none" xmlns="http://www.w3.org/2000/svg">
<circle cx="53.5" cy="53.5" r="53.5" fill="white"/>
<path d="M34.115 49.1H30.62V59H31.82V55.13H34.115C36.11 55.13 37.445 53.975 37.445 52.115C37.445 50.255 36.11 49.1 34.115 49.1ZM33.935 54.005H31.82V50.225H33.935C35.495 50.225 36.185 50.885 36.185 52.115C36.185 53.345 35.495 54.005 33.935 54.005ZM44.9753 57.875V49.1H43.7753V59H50.6453V57.875H44.9753ZM63.3551 59H64.6301L60.7901 49.1H59.3651L55.5101 59H56.7701L57.8201 56.255H62.3051L63.3551 59ZM58.2551 55.13L59.6051 51.575L60.0401 50.24H60.0701L60.5351 51.62L61.8701 55.13H58.2551ZM76.471 49.1H75.046L72.331 53.9L69.616 49.1H68.191L71.731 55.13V59H72.931V55.13L76.471 49.1Z" fill="black"/>
</svg>
